let piece = {
    "header": {
      "PPQ": 480,
      "timeSignature": [
        2,
        4
      ],
      "bpm": 116.00008506672904,
      "name": ""
    },
    "startTime": 0.0010775854166666667,
    "duration": 87.93097000000121,
    "tracks": [
      {
        "startTime": 0.0010775854166666667,
        "duration": 87.93097000000121,
        "length": 1631,
        "notes": [
          {
            "name": "F#6",
            "midi": 90,
            "time": 0.0010775854166666667,
            "velocity": 0.7795275590551181,
            "duration": 0.08620683333333334
          },
          {
            "name": "F#3",
            "midi": 54,
            "time": 0.0010775854166666667,
            "velocity": 0.5905511811023622,
            "duration": 0.09698268750000001
          },
          {
            "name": "C#4",
            "midi": 61,
            "time": 0.0010775854166666667,
            "velocity": 0.5905511811023622,
            "duration": 0.09698268750000001
          },
          {
            "name": "A#3",
            "midi": 58,
            "time": 0.0010775854166666667,
            "velocity": 0.5905511811023622,
            "duration": 0.09698268750000001
          },
          {
            "name": "F#4",
            "midi": 66,
            "time": 0.0010775854166666667,
            "velocity": 0.7007874015748031,
            "duration": 0.09698268750000001
          },
          {
            "name": "A#6",
            "midi": 94,
            "time": 0.08620683333333334,
            "velocity": 0.5984251968503937,
            "duration": 0.08620683333333334
          },
          {
            "name": "C#6",
            "midi": 85,
            "time": 0.1724136666666667,
            "velocity": 0.5433070866141733,
            "duration": 0.08620683333333334
          },
          {
            "name": "F#6",
            "midi": 90,
            "time": 0.25862050000000003,
            "velocity": 0.7322834645669292,
            "duration": 0.08620683333333334
          },
          {
            "name": "F#3",
            "midi": 54,
            "time": 0.25862050000000003,
            "velocity": 0.5590551181102362,
            "duration": 0.0969826875
          },
          {
            "name": "D#4",
            "midi": 63,
            "time": 0.25862050000000003,
            "velocity": 0.5590551181102362,
            "duration": 0.0969826875
          },
          {
            "name": "B3",
            "midi": 59,
            "time": 0.25862050000000003,
            "velocity": 0.5590551181102362,
            "duration": 0.0969826875
          },
          {
            "name": "F#4",
            "midi": 66,
            "time": 0.25862050000000003,
            "velocity": 0.6614173228346457,
            "duration": 0.0969826875
          },
          {
            "name": "D#6",
            "midi": 87,
            "time": 0.3448273333333334,
            "velocity": 0.6220472440944882,
            "duration": 0.08620683333333334
          },
          {
            "name": "F#6",
            "midi": 90,
            "time": 0.4310341666666667,
            "velocity": 0.5748031496062992,
            "duration": 0.08620683333333334
          },
          {
            "name": "C#6",
            "midi": 85,
            "time": 0.5172410000000001,
            "velocity": 0.7244094488188977,
            "duration": 0.08620683333333334
          },
          {
            "name": "F#3",
            "midi": 54,
            "time": 0.5172410000000001,
            "velocity": 0.5905511811023622,
            "duration": 0.09698268750000005
          },
          {
            "name": "C#4",
            "midi": 61,
            "time": 0.5172410000000001,
            "velocity": 0.5905511811023622,
            "duration": 0.09698268750000005
          },
          {
            "name": "A#3",
            "midi": 58,
            "time": 0.5172410000000001,
            "velocity": 0.5905511811023622,
            "duration": 0.09698268750000005
          },
          {
            "name": "F#4",
            "midi": 66,
            "time": 0.5172410000000001,
            "velocity": 0.7007874015748031,
            "duration": 0.09698268750000005
          },
          {
            "name": "F#6",
            "midi": 90,
            "time": 0.6034478333333334,
            "velocity": 0.6141732283464567,
            "duration": 0.08620683333333334
          },
          {
            "name": "A#5",
            "midi": 82,
            "time": 0.6896546666666667,
            "velocity": 0.5590551181102362,
            "duration": 0.08620683333333334
          },
          {
            "name": "C#6",
            "midi": 85,
            "time": 0.7758615000000001,
            "velocity": 0.6614173228346457,
            "duration": 0.08620683333333334
          },
          {
            "name": "F#5",
            "midi": 78,
            "time": 0.8620683333333334,
            "velocity": 0.5669291338582677,
            "duration": 0.08620683333333334
          },
          {
            "name": "A#5",
            "midi": 82,
            "time": 0.9482751666666668,
            "velocity": 0.5354330708661418,
            "duration": 0.08620683333333334
          },
          {
            "name": "F#5",
            "midi": 78,
            "time": 1.0344820000000001,
            "velocity": 0.5826771653543307,
            "duration": 0.08620683333333323
          },
          {
            "name": "F#2",
            "midi": 42,
            "time": 1.0344820000000001,
            "velocity": 0.3779527559055118,
            "duration": 0.09698268749999994
          },
          {
            "name": "F#3",
            "midi": 54,
            "time": 1.0344820000000001,
            "velocity": 0.44881889763779526,
            "duration": 0.09698268749999994
          },
          {
            "name": "A#5",
            "midi": 82,
            "time": 1.1206888333333334,
            "velocity": 0.5039370078740157,
            "duration": 0.08620683333333345
          },
          {
            "name": "C#5",
            "midi": 73,
            "time": 1.2068956666666668,
            "velocity": 0.4566929133858268,
            "duration": 0.08620683333333345
          },
          {
            "name": "F#5",
            "midi": 78,
            "time": 1.2931025000000003,
            "velocity": 0.5590551181102362,
            "duration": 0.08620683333333323
          },
          {
            "name": "F#4",
            "midi": 66,
            "time": 1.2931025000000003,
            "velocity": 0.4330708661417323,
            "duration": 0.09698268749999994
          },
          {
            "name": "D#4",
            "midi": 63,
            "time": 1.2931025000000003,
            "velocity": 0.36220472440944884,
            "duration": 0.09698268749999994
          },
          {
            "name": "B3",
            "midi": 59,
            "time": 1.2931025000000003,
            "velocity": 0.36220472440944884,
            "duration": 0.09698268749999994
          },
          {
            "name": "D#5",
            "midi": 75,
            "time": 1.3793093333333335,
            "velocity": 0.49606299212598426,
            "duration": 0.08620683333333345
          },
          {
            "name": "F#5",
            "midi": 78,
            "time": 1.465516166666667,
            "velocity": 0.44881889763779526,
            "duration": 0.08620683333333345
          },
          {
            "name": "C#5",
            "midi": 73,
            "time": 1.5517230000000004,
            "velocity": 0.5433070866141733,
            "duration": 0.08620683333333345
          },
          {
            "name": "F#4",
            "midi": 66,
            "time": 1.5517230000000004,
            "velocity": 0.44881889763779526,
            "duration": 0.09698268750000016
          },
          {
            "name": "C#4",
            "midi": 61,
            "time": 1.5517230000000004,
            "velocity": 0.3779527559055118,
            "duration": 0.09698268750000016
          },
          {
            "name": "A#3",
            "midi": 58,
            "time": 1.5517230000000004,
            "velocity": 0.3779527559055118,
            "duration": 0.09698268750000016
          },
          {
            "name": "F#5",
            "midi": 78,
            "time": 1.6379298333333339,
            "velocity": 0.4409448818897638,
            "duration": 0.08620683333333345
          },
          {
            "name": "A#4",
            "midi": 70,
            "time": 1.7241366666666673,
            "velocity": 0.4409448818897638,
            "duration": 0.08620683333333323
          },
          {
            "name": "C#5",
            "midi": 73,
            "time": 1.8103435000000005,
            "velocity": 0.5275590551181102,
            "duration": 0.08620683333333323
          },
          {
            "name": "F#4",
            "midi": 66,
            "time": 1.8965503333333338,
            "velocity": 0.4330708661417323,
            "duration": 0.08620683333333323
          },
          {
            "name": "A#4",
            "midi": 70,
            "time": 1.982757166666667,
            "velocity": 0.41732283464566927,
            "duration": 0.08620683333333323
          },
          {
            "name": "C#4",
            "midi": 61,
            "time": 2.0689640000000002,
            "velocity": 0.5826771653543307,
            "duration": 0.08620683333333323
          },
          {
            "name": "C#2",
            "midi": 37,
            "time": 2.0689640000000002,
            "velocity": 0.3700787401574803,
            "duration": 0.09698268749999972
          },
          {
            "name": "C#3",
            "midi": 49,
            "time": 2.0689640000000002,
            "velocity": 0.4409448818897638,
            "duration": 0.09698268749999972
          },
          {
            "name": "C#5",
            "midi": 73,
            "time": 2.1551708333333335,
            "velocity": 0.5433070866141733,
            "duration": 0.08620683333333323
          },
          {
            "name": "G#4",
            "midi": 68,
            "time": 2.2413776666666667,
            "velocity": 0.49606299212598426,
            "duration": 0.08620683333333323
          },
          {
            "name": "C#5",
            "midi": 73,
            "time": 2.3275845,
            "velocity": 0.5905511811023622,
            "duration": 0.08620683333333368
          },
          {
            "name": "F4",
            "midi": 65,
            "time": 2.3275845,
            "velocity": 0.47244094488188976,
            "duration": 0.09698268750000016
          },
          {
            "name": "C#4",
            "midi": 61,
            "time": 2.3275845,
            "velocity": 0.3937007874015748,
            "duration": 0.09698268750000016
          },
          {
            "name": "G#3",
            "midi": 56,
            "time": 2.3275845,
            "velocity": 0.3937007874015748,
            "duration": 0.09698268750000016
          },
          {
            "name": "G#4",
            "midi": 68,
            "time": 2.4137913333333336,
            "velocity": 0.5275590551181102,
            "duration": 0.08620683333333323
          },
          {
            "name": "G#5",
            "midi": 80,
            "time": 2.499998166666667,
            "velocity": 0.48031496062992124,
            "duration": 0.08620683333333323
          },
          {
            "name": "G#4",
            "midi": 68,
            "time": 2.586205,
            "velocity": 0.5905511811023622,
            "duration": 0.08620683333333368
          },
          {
            "name": "D#4",
            "midi": 63,
            "time": 2.586205,
            "velocity": 0.49606299212598426,
            "duration": 0.09698268750000016
          },
          {
            "name": "B3",
            "midi": 59,
            "time": 2.586205,
            "velocity": 0.41732283464566927,
            "duration": 0.09698268750000016
          },
          {
            "name": "G#3",
            "midi": 56,
            "time": 2.586205,
            "velocity": 0.41732283464566927,
            "duration": 0.09698268750000016
          },
          {
            "name": "G#5",
            "midi": 80,
            "time": 2.6724118333333338,
            "velocity": 0.5354330708661418,
            "duration": 0.08620683333333323
          },
          {
            "name": "D#5",
            "midi": 75,
            "time": 2.758618666666667,
            "velocity": 0.48031496062992124,
            "duration": 0.08620683333333323
          },
          {
            "name": "G#5",
            "midi": 80,
            "time": 2.8448255000000002,
            "velocity": 0.6377952755905512,
            "duration": 0.08620683333333323
          },
          {
            "name": "G#2",
            "midi": 44,
            "time": 2.8448255000000002,
            "velocity": 0.5354330708661418,
            "duration": 0.09698268749999972
          },
          {
            "name": "D#5",
            "midi": 75,
            "time": 2.9310323333333335,
            "velocity": 0.5826771653543307,
            "duration": 0.08620683333333323
          },
          {
            "name": "D#6",
            "midi": 87,
            "time": 3.0172391666666667,
            "velocity": 0.5511811023622047,
            "duration": 0.08620683333333323
          },
          {
            "name": "D#5",
            "midi": 75,
            "time": 3.103446,
            "velocity": 0.6456692913385826,
            "duration": 0.08620683333333368
          },
          {
            "name": "C#3",
            "midi": 49,
            "time": 3.103446,
            "velocity": 0.5511811023622047,
            "duration": 0.7758614999999995
          },
          {
            "name": "D#6",
            "midi": 87,
            "time": 3.1896528333333336,
            "velocity": 0.5748031496062992,
            "duration": 0.08620683333333323
          },
          {
            "name": "G#5",
            "midi": 80,
            "time": 3.275859666666667,
            "velocity": 0.5354330708661418,
            "duration": 0.08620683333333323
          },
          {
            "name": "D#6",
            "midi": 87,
            "time": 3.3620665,
            "velocity": 0.6771653543307087,
            "duration": 0.08620683333333323
          },
          {
            "name": "D#4",
            "midi": 63,
            "time": 3.3620665,
            "velocity": 0.5748031496062992,
            "duration": 0.2586204999999997
          },
          {
            "name": "B3",
            "midi": 59,
            "time": 3.3620665,
            "velocity": 0.4881889763779528,
            "duration": 0.2586204999999997
          },
          {
            "name": "G#3",
            "midi": 56,
            "time": 3.3620665,
            "velocity": 0.4881889763779528,
            "duration": 0.2586204999999997
          },
          {
            "name": "G#5",
            "midi": 80,
            "time": 3.4482733333333333,
            "velocity": 0.5433070866141733,
            "duration": 0.08620683333333323
          },
          {
            "name": "G#6",
            "midi": 92,
            "time": 3.5344801666666665,
            "velocity": 0.5275590551181102,
            "duration": 0.08620683333333323
          },
          {
            "name": "G#5",
            "midi": 80,
            "time": 3.6206869999999998,
            "velocity": 0.7007874015748031,
            "duration": 0.08620683333333323
          },
          {
            "name": "C#4",
            "midi": 61,
            "time": 3.6206869999999998,
            "velocity": 0.6141732283464567,
            "duration": 0.2586204999999997
          },
          {
            "name": "B3",
            "midi": 59,
            "time": 3.6206869999999998,
            "velocity": 0.5039370078740157,
            "duration": 0.2586204999999997
          },
          {
            "name": "G#3",
            "midi": 56,
            "time": 3.6206869999999998,
            "velocity": 0.5039370078740157,
            "duration": 0.2586204999999997
          },
          {
            "name": "G#6",
            "midi": 92,
            "time": 3.706893833333333,
            "velocity": 0.6062992125984252,
            "duration": 0.08620683333333323
          },
          {
            "name": "C#6",
            "midi": 85,
            "time": 3.7931006666666662,
            "velocity": 0.5905511811023622,
            "duration": 0.08620683333333323
          },
          {
            "name": "G#6",
            "midi": 92,
            "time": 3.8793074999999995,
            "velocity": 0.7244094488188977,
            "duration": 0.08620683333333323
          },
          {
            "name": "C#6",
            "midi": 85,
            "time": 3.9655143333333327,
            "velocity": 0.6535433070866141,
            "duration": 0.08620683333333323
          },
          {
            "name": "C#7",
            "midi": 97,
            "time": 4.051721166666666,
            "velocity": 0.6141732283464567,
            "duration": 0.08620683333333368
          },
          {
            "name": "F#6",
            "midi": 90,
            "time": 4.137928,
            "velocity": 0.7559055118110236,
            "duration": 0.08620683333333368
          },
          {
            "name": "A#3",
            "midi": 58,
            "time": 4.137928,
            "velocity": 0.5748031496062992,
            "duration": 0.09698268750000061
          },
          {
            "name": "F#4",
            "midi": 66,
            "time": 4.137928,
            "velocity": 0.6850393700787402,
            "duration": 0.09698268750000061
          },
          {
            "name": "C#4",
            "midi": 61,
            "time": 4.137928,
            "velocity": 0.5748031496062992,
            "duration": 0.09698268750000061
          },
          {
            "name": "F#3",
            "midi": 54,
            "time": 4.137928,
            "velocity": 0.5748031496062992,
            "duration": 0.09698268750000061
          },
          {
            "name": "A#6",
            "midi": 94,
            "time": 4.224134833333333,
            "velocity": 0.6141732283464567,
            "duration": 0.08620683333333368
          },
          {
            "name": "C#6",
            "midi": 85,
            "time": 4.310341666666667,
            "velocity": 0.5905511811023622,
            "duration": 0.08620683333333368
          },
          {
            "name": "F#6",
            "midi": 90,
            "time": 4.396548500000001,
            "velocity": 0.7480314960629921,
            "duration": 0.08620683333333368
          },
          {
            "name": "F#4",
            "midi": 66,
            "time": 4.396548500000001,
            "velocity": 0.6456692913385826,
            "duration": 0.09698268750000061
          },
          {
            "name": "D#4",
            "midi": 63,
            "time": 4.396548500000001,
            "velocity": 0.5433070866141733,
            "duration": 0.09698268750000061
          },
          {
            "name": "B3",
            "midi": 59,
            "time": 4.396548500000001,
            "velocity": 0.5433070866141733,
            "duration": 0.09698268750000061
          },
          {
            "name": "F#3",
            "midi": 54,
            "time": 4.396548500000001,
            "velocity": 0.5433070866141733,
            "duration": 0.09698268750000061
          },
          {
            "name": "D#6",
            "midi": 87,
            "time": 4.482755333333334,
            "velocity": 0.6062992125984252,
            "duration": 0.08620683333333368
          },
          {
            "name": "F#6",
            "midi": 90,
            "time": 4.568962166666668,
            "velocity": 0.5826771653543307,
            "duration": 0.08620683333333368
          },
          {
            "name": "C#6",
            "midi": 85,
            "time": 4.655169000000002,
            "velocity": 0.7480314960629921,
            "duration": 0.08620683333333368
          },
          {
            "name": "F#4",
            "midi": 66,
            "time": 4.655169000000002,
            "velocity": 0.6850393700787402,
            "duration": 0.09698268750000061
          },
          {
            "name": "C#4",
            "midi": 61,
            "time": 4.655169000000002,
            "velocity": 0.5748031496062992,
            "duration": 0.09698268750000061
          },
          {
            "name": "A#3",
            "midi": 58,
            "time": 4.655169000000002,
            "velocity": 0.5748031496062992,
            "duration": 0.09698268750000061
          },
          {
            "name": "F#3",
            "midi": 54,
            "time": 4.655169000000002,
            "velocity": 0.5748031496062992,
            "duration": 0.09698268750000061
          },
          {
            "name": "F#6",
            "midi": 90,
            "time": 4.741375833333335,
            "velocity": 0.5984251968503937,
            "duration": 0.08620683333333368
          },
          {
            "name": "A#5",
            "midi": 82,
            "time": 4.827582666666669,
            "velocity": 0.5826771653543307,
            "duration": 0.08620683333333368
          },
          {
            "name": "C#6",
            "midi": 85,
            "time": 4.913789500000003,
            "velocity": 0.6692913385826772,
            "duration": 0.08620683333333368
          },
          {
            "name": "F#5",
            "midi": 78,
            "time": 4.999996333333336,
            "velocity": 0.5905511811023622,
            "duration": 0.08620683333333368
          },
          {
            "name": "A#5",
            "midi": 82,
            "time": 5.08620316666667,
            "velocity": 0.5511811023622047,
            "duration": 0.08620683333333368
          },
          {
            "name": "F#5",
            "midi": 78,
            "time": 5.172410000000004,
            "velocity": 0.5826771653543307,
            "duration": 0.08620683333333368
          },
          {
            "name": "F#2",
            "midi": 42,
            "time": 5.172410000000004,
            "velocity": 0.3700787401574803,
            "duration": 0.09698268750000061
          },
          {
            "name": "F#3",
            "midi": 54,
            "time": 5.172410000000004,
            "velocity": 0.4409448818897638,
            "duration": 0.09698268750000061
          },
          {
            "name": "A#5",
            "midi": 82,
            "time": 5.258616833333337,
            "velocity": 0.5433070866141733,
            "duration": 0.08620683333333368
          },
          {
            "name": "C#5",
            "midi": 73,
            "time": 5.344823666666671,
            "velocity": 0.5118110236220472,
            "duration": 0.08620683333333368
          },
          {
            "name": "F#5",
            "midi": 78,
            "time": 5.431030500000005,
            "velocity": 0.5826771653543307,
            "duration": 0.08620683333333368
          },
          {
            "name": "F#4",
            "midi": 66,
            "time": 5.431030500000005,
            "velocity": 0.3779527559055118,
            "duration": 0.09698268750000061
          },
          {
            "name": "D#4",
            "midi": 63,
            "time": 5.431030500000005,
            "velocity": 0.31496062992125984,
            "duration": 0.09698268750000061
          },
          {
            "name": "B3",
            "midi": 59,
            "time": 5.431030500000005,
            "velocity": 0.31496062992125984,
            "duration": 0.09698268750000061
          },
          {
            "name": "D#5",
            "midi": 75,
            "time": 5.517237333333338,
            "velocity": 0.5433070866141733,
            "duration": 0.08620683333333368
          },
          {
            "name": "F#5",
            "midi": 78,
            "time": 5.603444166666672,
            "velocity": 0.5196850393700787,
            "duration": 0.08620683333333368
          },
          {
            "name": "C#5",
            "midi": 73,
            "time": 5.689651000000006,
            "velocity": 0.5826771653543307,
            "duration": 0.08620683333333368
          },
          {
            "name": "F#4",
            "midi": 66,
            "time": 5.689651000000006,
            "velocity": 0.44881889763779526,
            "duration": 0.09698268750000061
          },
          {
            "name": "C#4",
            "midi": 61,
            "time": 5.689651000000006,
            "velocity": 0.3779527559055118,
            "duration": 0.09698268750000061
          },
          {
            "name": "A#3",
            "midi": 58,
            "time": 5.689651000000006,
            "velocity": 0.3779527559055118,
            "duration": 0.09698268750000061
          },
          {
            "name": "F#5",
            "midi": 78,
            "time": 5.7758578333333395,
            "velocity": 0.5275590551181102,
            "duration": 0.08620683333333368
          },
          {
            "name": "A#4",
            "midi": 70,
            "time": 5.862064666666673,
            "velocity": 0.5511811023622047,
            "duration": 0.08620683333333368
          },
          {
            "name": "C#5",
            "midi": 73,
            "time": 5.948271500000007,
            "velocity": 0.5826771653543307,
            "duration": 0.08620683333333368
          },
          {
            "name": "F#4",
            "midi": 66,
            "time": 6.0344783333333405,
            "velocity": 0.5118110236220472,
            "duration": 0.08620683333333368
          },
          {
            "name": "A#4",
            "midi": 70,
            "time": 6.120685166666674,
            "velocity": 0.5354330708661418,
            "duration": 0.08620683333333368
          },
          {
            "name": "D#4",
            "midi": 63,
            "time": 6.206892000000008,
            "velocity": 0.6062992125984252,
            "duration": 0.08620683333333368
          },
          {
            "name": "B2",
            "midi": 47,
            "time": 6.206892000000008,
            "velocity": 0.5196850393700787,
            "duration": 0.25862050000000103
          },
          {
            "name": "D#5",
            "midi": 75,
            "time": 6.2930988333333415,
            "velocity": 0.5433070866141733,
            "duration": 0.08620683333333368
          },
          {
            "name": "G#4",
            "midi": 68,
            "time": 6.379305666666675,
            "velocity": 0.5196850393700787,
            "duration": 0.08620683333333368
          },
          {
            "name": "D#5",
            "midi": 75,
            "time": 6.465512500000009,
            "velocity": 0.6062992125984252,
            "duration": 0.08620683333333368
          },
          {
            "name": "D#4",
            "midi": 63,
            "time": 6.465512500000009,
            "velocity": 0.5590551181102362,
            "duration": 0.5172410000000021
          },
          {
            "name": "G#3",
            "midi": 56,
            "time": 6.465512500000009,
            "velocity": 0.47244094488188976,
            "duration": 0.5172410000000021
          },
          {
            "name": "G#4",
            "midi": 68,
            "time": 6.5517193333333426,
            "velocity": 0.5275590551181102,
            "duration": 0.08620683333333368
          },
          {
            "name": "G#5",
            "midi": 80,
            "time": 6.637926166666676,
            "velocity": 0.5590551181102362,
            "duration": 0.08620683333333368
          },
          {
            "name": "D#5",
            "midi": 75,
            "time": 6.72413300000001,
            "velocity": 0.6062992125984252,
            "duration": 0.08620683333333368
          },
          {
            "name": "G#5",
            "midi": 80,
            "time": 6.810339833333344,
            "velocity": 0.5826771653543307,
            "duration": 0.08620683333333368
          },
          {
            "name": "D#5",
            "midi": 75,
            "time": 6.896546666666677,
            "velocity": 0.5511811023622047,
            "duration": 0.08620683333333368
          },
          {
            "name": "D#6",
            "midi": 87,
            "time": 6.982753500000011,
            "velocity": 0.6456692913385826,
            "duration": 0.08620683333333368
          },
          {
            "name": "B2",
            "midi": 47,
            "time": 6.982753500000011,
            "velocity": 0.5039370078740157,
            "duration": 0.22629293750000112
          },
          {
            "name": "G#5",
            "midi": 80,
            "time": 7.068960333333345,
            "velocity": 0.5748031496062992,
            "duration": 0.08620683333333368
          },
          {
            "name": "G#6",
            "midi": 92,
            "time": 7.155167166666678,
            "velocity": 0.5905511811023622,
            "duration": 0.08620683333333456
          },
          {
            "name": "A#2",
            "midi": 46,
            "time": 7.209046437500012,
            "velocity": 0.44881889763779526,
            "duration": 0.2586205000000019
          },
          {
            "name": "F3",
            "midi": 53,
            "time": 7.2252102187500125,
            "velocity": 0.4645669291338583,
            "duration": 0.24245671875000152
          },
          {
            "name": "A#5",
            "midi": 82,
            "time": 7.241374000000013,
            "velocity": 0.6929133858267716,
            "duration": 0.08620683333333368
          },
          {
            "name": "D4",
            "midi": 62,
            "time": 7.241374000000013,
            "velocity": 0.6062992125984252,
            "duration": 0.22629293750000112
          },
          {
            "name": "A#6",
            "midi": 94,
            "time": 7.3275808333333465,
            "velocity": 0.6141732283464567,
            "duration": 0.08620683333333368
          },
          {
            "name": "A#5",
            "midi": 82,
            "time": 7.41378766666668,
            "velocity": 0.5511811023622047,
            "duration": 0.08620683333333456
          },
          {
            "name": "A#3",
            "midi": 58,
            "time": 7.467666937500014,
            "velocity": 0.4409448818897638,
            "duration": 0.2909480625000018
          },
          {
            "name": "F4",
            "midi": 65,
            "time": 7.483830718750014,
            "velocity": 0.4409448818897638,
            "duration": 0.2747842812500014
          },
          {
            "name": "A#6",
            "midi": 94,
            "time": 7.499994500000015,
            "velocity": 0.6377952755905512,
            "duration": 0.08620683333333368
          },
          {
            "name": "D5",
            "midi": 74,
            "time": 7.499994500000015,
            "velocity": 0.5590551181102362,
            "duration": 0.25862050000000103
          },
          {
            "name": "A#5",
            "midi": 82,
            "time": 7.5862013333333485,
            "velocity": 0.5905511811023622,
            "duration": 0.08620683333333368
          },
          {
            "name": "A#6",
            "midi": 94,
            "time": 7.672408166666682,
            "velocity": 0.5511811023622047,
            "duration": 0.08620683333333368
          },
          {
            "name": "A#5",
            "midi": 82,
            "time": 7.758615000000016,
            "velocity": 0.5354330708661418,
            "duration": 0.08620683333333368
          },
          {
            "name": "A#6",
            "midi": 94,
            "time": 7.8448218333333495,
            "velocity": 0.4881889763779528,
            "duration": 0.08620683333333368
          },
          {
            "name": "A#5",
            "midi": 82,
            "time": 7.931028666666683,
            "velocity": 0.41732283464566927,
            "duration": 0.08620683333333279
          },
          {
            "name": "A#6",
            "midi": 94,
            "time": 8.017235500000016,
            "velocity": 0.4645669291338583,
            "duration": 0.08620683333333368
          },
          {
            "name": "A#5",
            "midi": 82,
            "time": 8.10344233333335,
            "velocity": 0.41732283464566927,
            "duration": 0.08620683333333368
          },
          {
            "name": "A#6",
            "midi": 94,
            "time": 8.189649166666683,
            "velocity": 0.3543307086614173,
            "duration": 0.08620683333333368
          },
          {
            "name": "F#6",
            "midi": 90,
            "time": 8.276933585416684,
            "velocity": 0.7559055118110236,
            "duration": 0.08620683333333368
          },
          {
            "name": "F#4",
            "midi": 66,
            "time": 8.276933585416684,
            "velocity": 0.6771653543307087,
            "duration": 0.09698268750000061
          },
          {
            "name": "C#4",
            "midi": 61,
            "time": 8.276933585416684,
            "velocity": 0.5669291338582677,
            "duration": 0.09698268750000061
          },
          {
            "name": "A#3",
            "midi": 58,
            "time": 8.276933585416684,
            "velocity": 0.5669291338582677,
            "duration": 0.09698268750000061
          },
          {
            "name": "F#3",
            "midi": 54,
            "time": 8.276933585416684,
            "velocity": 0.5669291338582677,
            "duration": 0.09698268750000061
          },
          {
            "name": "A#6",
            "midi": 94,
            "time": 8.36206283333335,
            "velocity": 0.5748031496062992,
            "duration": 0.08620683333333368
          },
          {
            "name": "C#6",
            "midi": 85,
            "time": 8.448269666666684,
            "velocity": 0.5275590551181102,
            "duration": 0.08620683333333368
          },
          {
            "name": "F#6",
            "midi": 90,
            "time": 8.534476500000018,
            "velocity": 0.7086614173228346,
            "duration": 0.08620683333333368
          },
          {
            "name": "F#4",
            "midi": 66,
            "time": 8.534476500000018,
            "velocity": 0.6062992125984252,
            "duration": 0.09698268750000061
          },
          {
            "name": "D#4",
            "midi": 63,
            "time": 8.534476500000018,
            "velocity": 0.5039370078740157,
            "duration": 0.09698268750000061
          },
          {
            "name": "B3",
            "midi": 59,
            "time": 8.534476500000018,
            "velocity": 0.5039370078740157,
            "duration": 0.09698268750000061
          },
          {
            "name": "F#3",
            "midi": 54,
            "time": 8.534476500000018,
            "velocity": 0.5039370078740157,
            "duration": 0.09698268750000061
          },
          {
            "name": "D#6",
            "midi": 87,
            "time": 8.620683333333352,
            "velocity": 0.5275590551181102,
            "duration": 0.08620683333333368
          },
          {
            "name": "F#6",
            "midi": 90,
            "time": 8.706890166666685,
            "velocity": 0.4645669291338583,
            "duration": 0.08620683333333368
          },
          {
            "name": "C#6",
            "midi": 85,
            "time": 8.793097000000019,
            "velocity": 0.7322834645669292,
            "duration": 0.08620683333333368
          },
          {
            "name": "F#4",
            "midi": 66,
            "time": 8.793097000000019,
            "velocity": 0.6771653543307087,
            "duration": 0.09698268750000061
          },
          {
            "name": "C#4",
            "midi": 61,
            "time": 8.793097000000019,
            "velocity": 0.5669291338582677,
            "duration": 0.09698268750000061
          },
          {
            "name": "A#3",
            "midi": 58,
            "time": 8.793097000000019,
            "velocity": 0.5669291338582677,
            "duration": 0.09698268750000061
          },
          {
            "name": "F#3",
            "midi": 54,
            "time": 8.793097000000019,
            "velocity": 0.5669291338582677,
            "duration": 0.09698268750000061
          },
          {
            "name": "F#6",
            "midi": 90,
            "time": 8.879303833333353,
            "velocity": 0.5354330708661418,
            "duration": 0.08620683333333368
          },
          {
            "name": "A#5",
            "midi": 82,
            "time": 8.965510666666686,
            "velocity": 0.5196850393700787,
            "duration": 0.08620683333333368
          },
          {
            "name": "C#6",
            "midi": 85,
            "time": 9.05171750000002,
            "velocity": 0.6614173228346457,
            "duration": 0.08620683333333368
          },
          {
            "name": "F#5",
            "midi": 78,
            "time": 9.137924333333354,
            "velocity": 0.5196850393700787,
            "duration": 0.08620683333333368
          },
          {
            "name": "A#5",
            "midi": 82,
            "time": 9.224131166666687,
            "velocity": 0.49606299212598426,
            "duration": 0.08620683333333368
          },
          {
            "name": "F#5",
            "midi": 78,
            "time": 9.310338000000021,
            "velocity": 0.5826771653543307,
            "duration": 0.0862068333333319
          },
          {
            "name": "F#3",
            "midi": 54,
            "time": 9.310338000000021,
            "velocity": 0.4409448818897638,
            "duration": 0.09698268749999883
          },
          {
            "name": "F#2",
            "midi": 42,
            "time": 9.310338000000021,
            "velocity": 0.4409448818897638,
            "duration": 0.09698268749999883
          },
          {
            "name": "A#5",
            "midi": 82,
            "time": 9.396544833333353,
            "velocity": 0.5196850393700787,
            "duration": 0.08620683333333368
          },
          {
            "name": "C#5",
            "midi": 73,
            "time": 9.482751666666687,
            "velocity": 0.49606299212598426,
            "duration": 0.08620683333333368
          },
          {
            "name": "F#5",
            "midi": 78,
            "time": 9.56895850000002,
            "velocity": 0.5354330708661418,
            "duration": 0.08620683333333368
          },
          {
            "name": "F#4",
            "midi": 66,
            "time": 9.56895850000002,
            "velocity": 0.3779527559055118,
            "duration": 0.09698268750000061
          },
          {
            "name": "D#4",
            "midi": 63,
            "time": 9.56895850000002,
            "velocity": 0.31496062992125984,
            "duration": 0.09698268750000061
          },
          {
            "name": "B3",
            "midi": 59,
            "time": 9.56895850000002,
            "velocity": 0.31496062992125984,
            "duration": 0.09698268750000061
          },
          {
            "name": "D#5",
            "midi": 75,
            "time": 9.655165333333354,
            "velocity": 0.5118110236220472,
            "duration": 0.08620683333333368
          },
          {
            "name": "F#5",
            "midi": 78,
            "time": 9.741372166666688,
            "velocity": 0.4881889763779528,
            "duration": 0.08620683333333368
          },
          {
            "name": "C#5",
            "midi": 73,
            "time": 9.827579000000021,
            "velocity": 0.5826771653543307,
            "duration": 0.08620683333333368
          },
          {
            "name": "F#4",
            "midi": 66,
            "time": 9.827579000000021,
            "velocity": 0.4409448818897638,
            "duration": 0.09698268750000061
          },
          {
            "name": "C#4",
            "midi": 61,
            "time": 9.827579000000021,
            "velocity": 0.3700787401574803,
            "duration": 0.09698268750000061
          },
          {
            "name": "A#3",
            "midi": 58,
            "time": 9.827579000000021,
            "velocity": 0.3700787401574803,
            "duration": 0.09698268750000061
          },
          {
            "name": "F#5",
            "midi": 78,
            "time": 9.913785833333355,
            "velocity": 0.5118110236220472,
            "duration": 0.08620683333333368
          },
          {
            "name": "A#4",
            "midi": 70,
            "time": 9.999992666666689,
            "velocity": 0.48031496062992124,
            "duration": 0.08620683333333368
          },
          {
            "name": "C#5",
            "midi": 73,
            "time": 10.086199500000022,
            "velocity": 0.5826771653543307,
            "duration": 0.08620683333333368
          },
          {
            "name": "F#4",
            "midi": 66,
            "time": 10.172406333333356,
            "velocity": 0.5275590551181102,
            "duration": 0.08620683333333368
          },
          {
            "name": "A#4",
            "midi": 70,
            "time": 10.25861316666669,
            "velocity": 0.5118110236220472,
            "duration": 0.08620683333333368
          },
          {
            "name": "C#4",
            "midi": 61,
            "time": 10.344820000000023,
            "velocity": 0.5826771653543307,
            "duration": 0.08620683333333368
          },
          {
            "name": "C#2",
            "midi": 37,
            "time": 10.344820000000023,
            "velocity": 0.4015748031496063,
            "duration": 0.09698268750000061
          },
          {
            "name": "C#3",
            "midi": 49,
            "time": 10.344820000000023,
            "velocity": 0.48031496062992124,
            "duration": 0.09698268750000061
          },
          {
            "name": "C#5",
            "midi": 73,
            "time": 10.431026833333357,
            "velocity": 0.5590551181102362,
            "duration": 0.08620683333333368
          },
          {
            "name": "G#4",
            "midi": 68,
            "time": 10.51723366666669,
            "velocity": 0.5275590551181102,
            "duration": 0.08620683333333368
          },
          {
            "name": "C#5",
            "midi": 73,
            "time": 10.603440500000024,
            "velocity": 0.5905511811023622,
            "duration": 0.08620683333333368
          },
          {
            "name": "F4",
            "midi": 65,
            "time": 10.603440500000024,
            "velocity": 0.48031496062992124,
            "duration": 0.09698268750000061
          },
          {
            "name": "C#4",
            "midi": 61,
            "time": 10.603440500000024,
            "velocity": 0.4015748031496063,
            "duration": 0.09698268750000061
          },
          {
            "name": "G#3",
            "midi": 56,
            "time": 10.603440500000024,
            "velocity": 0.4015748031496063,
            "duration": 0.09698268750000061
          },
          {
            "name": "G#4",
            "midi": 68,
            "time": 10.689647333333358,
            "velocity": 0.5511811023622047,
            "duration": 0.08620683333333368
          },
          {
            "name": "G#5",
            "midi": 80,
            "time": 10.775854166666692,
            "velocity": 0.5118110236220472,
            "duration": 0.08620683333333368
          },
          {
            "name": "G#4",
            "midi": 68,
            "time": 10.862061000000026,
            "velocity": 0.5669291338582677,
            "duration": 0.08620683333333368
          },
          {
            "name": "D#4",
            "midi": 63,
            "time": 10.862061000000026,
            "velocity": 0.4881889763779528,
            "duration": 0.09698268750000061
          },
          {
            "name": "B3",
            "midi": 59,
            "time": 10.862061000000026,
            "velocity": 0.4094488188976378,
            "duration": 0.09698268750000061
          },
          {
            "name": "G#3",
            "midi": 56,
            "time": 10.862061000000026,
            "velocity": 0.4094488188976378,
            "duration": 0.09698268750000061
          },
          {
            "name": "G#5",
            "midi": 80,
            "time": 10.94826783333336,
            "velocity": 0.5511811023622047,
            "duration": 0.08620683333333368
          },
          {
            "name": "D#5",
            "midi": 75,
            "time": 11.034474666666693,
            "velocity": 0.5275590551181102,
            "duration": 0.08620683333333368
          },
          {
            "name": "G#5",
            "midi": 80,
            "time": 11.120681500000027,
            "velocity": 0.6141732283464567,
            "duration": 0.08620683333333368
          },
          {
            "name": "G#2",
            "midi": 44,
            "time": 11.120681500000027,
            "velocity": 0.5196850393700787,
            "duration": 0.09698268750000061
          },
          {
            "name": "D#5",
            "midi": 75,
            "time": 11.20688833333336,
            "velocity": 0.5826771653543307,
            "duration": 0.08620683333333368
          },
          {
            "name": "D#6",
            "midi": 87,
            "time": 11.293095166666694,
            "velocity": 0.5669291338582677,
            "duration": 0.08620683333333368
          },
          {
            "name": "D#5",
            "midi": 75,
            "time": 11.379302000000028,
            "velocity": 0.6456692913385826,
            "duration": 0.08620683333333368
          },
          {
            "name": "C#3",
            "midi": 49,
            "time": 11.379302000000028,
            "velocity": 0.5511811023622047,
            "duration": 0.7758615000000013
          },
          {
            "name": "D#6",
            "midi": 87,
            "time": 11.465508833333361,
            "velocity": 0.6141732283464567,
            "duration": 0.08620683333333368
          },
          {
            "name": "G#5",
            "midi": 80,
            "time": 11.551715666666695,
            "velocity": 0.6141732283464567,
            "duration": 0.08620683333333368
          },
          {
            "name": "D#6",
            "midi": 87,
            "time": 11.637922500000029,
            "velocity": 0.6299212598425197,
            "duration": 0.08620683333333368
          },
          {
            "name": "D#4",
            "midi": 63,
            "time": 11.637922500000029,
            "velocity": 0.5748031496062992,
            "duration": 0.25862050000000103
          },
          {
            "name": "B3",
            "midi": 59,
            "time": 11.637922500000029,
            "velocity": 0.4881889763779528,
            "duration": 0.25862050000000103
          },
          {
            "name": "G#3",
            "midi": 56,
            "time": 11.637922500000029,
            "velocity": 0.4881889763779528,
            "duration": 0.25862050000000103
          },
          {
            "name": "G#5",
            "midi": 80,
            "time": 11.724129333333362,
            "velocity": 0.6062992125984252,
            "duration": 0.08620683333333368
          },
          {
            "name": "G#6",
            "midi": 92,
            "time": 11.810336166666696,
            "velocity": 0.5748031496062992,
            "duration": 0.08620683333333368
          },
          {
            "name": "G#5",
            "midi": 80,
            "time": 11.89654300000003,
            "velocity": 0.6929133858267716,
            "duration": 0.0862068333333319
          },
          {
            "name": "C#4",
            "midi": 61,
            "time": 11.89654300000003,
            "velocity": 0.6141732283464567,
            "duration": 0.25862049999999925
          },
          {
            "name": "B3",
            "midi": 59,
            "time": 11.89654300000003,
            "velocity": 0.5039370078740157,
            "duration": 0.25862049999999925
          },
          {
            "name": "G#3",
            "midi": 56,
            "time": 11.89654300000003,
            "velocity": 0.5039370078740157,
            "duration": 0.25862049999999925
          },
          {
            "name": "G#6",
            "midi": 92,
            "time": 11.982749833333362,
            "velocity": 0.6377952755905512,
            "duration": 0.08620683333333368
          },
          {
            "name": "C#6",
            "midi": 85,
            "time": 12.068956666666695,
            "velocity": 0.5748031496062992,
            "duration": 0.08620683333333368
          },
          {
            "name": "G#6",
            "midi": 92,
            "time": 12.155163500000029,
            "velocity": 0.7244094488188977,
            "duration": 0.08620683333333368
          },
          {
            "name": "C#6",
            "midi": 85,
            "time": 12.241370333333363,
            "velocity": 0.6535433070866141,
            "duration": 0.08620683333333368
          },
          {
            "name": "C#7",
            "midi": 97,
            "time": 12.327577166666696,
            "velocity": 0.6535433070866141,
            "duration": 0.08620683333333368
          },
          {
            "name": "F#6",
            "midi": 90,
            "time": 12.41378400000003,
            "velocity": 0.7716535433070866,
            "duration": 0.08620683333333368
          },
          {
            "name": "F#4",
            "midi": 66,
            "time": 12.41378400000003,
            "velocity": 0.6850393700787402,
            "duration": 0.09698268750000061
          },
          {
            "name": "A#3",
            "midi": 58,
            "time": 12.41378400000003,
            "velocity": 0.5748031496062992,
            "duration": 0.09698268750000061
          },
          {
            "name": "C#4",
            "midi": 61,
            "time": 12.41378400000003,
            "velocity": 0.5748031496062992,
            "duration": 0.09698268750000061
          },
          {
            "name": "F#3",
            "midi": 54,
            "time": 12.41378400000003,
            "velocity": 0.5748031496062992,
            "duration": 0.09698268750000061
          },
          {
            "name": "A#6",
            "midi": 94,
            "time": 12.499990833333364,
            "velocity": 0.5826771653543307,
            "duration": 0.08620683333333368
          },
          {
            "name": "C#6",
            "midi": 85,
            "time": 12.586197666666697,
            "velocity": 0.5511811023622047,
            "duration": 0.08620683333333368
          },
          {
            "name": "F#6",
            "midi": 90,
            "time": 12.672404500000031,
            "velocity": 0.7322834645669292,
            "duration": 0.08620683333333368
          },
          {
            "name": "F#3",
            "midi": 54,
            "time": 12.672404500000031,
            "velocity": 0.5433070866141733,
            "duration": 0.09698268750000061
          },
          {
            "name": "D#4",
            "midi": 63,
            "time": 12.672404500000031,
            "velocity": 0.5433070866141733,
            "duration": 0.09698268750000061
          },
          {
            "name": "B3",
            "midi": 59,
            "time": 12.672404500000031,
            "velocity": 0.5433070866141733,
            "duration": 0.09698268750000061
          },
          {
            "name": "F#4",
            "midi": 66,
            "time": 12.672404500000031,
            "velocity": 0.6377952755905512,
            "duration": 0.09698268750000061
          },
          {
            "name": "D#6",
            "midi": 87,
            "time": 12.758611333333365,
            "velocity": 0.5669291338582677,
            "duration": 0.08620683333333368
          },
          {
            "name": "F#6",
            "midi": 90,
            "time": 12.844818166666698,
            "velocity": 0.5748031496062992,
            "duration": 0.08620683333333368
          },
          {
            "name": "C#6",
            "midi": 85,
            "time": 12.931025000000032,
            "velocity": 0.7559055118110236,
            "duration": 0.08620683333333368
          },
          {
            "name": "F#3",
            "midi": 54,
            "time": 12.931025000000032,
            "velocity": 0.5748031496062992,
            "duration": 0.09698268750000061
          },
          {
            "name": "C#4",
            "midi": 61,
            "time": 12.931025000000032,
            "velocity": 0.5748031496062992,
            "duration": 0.09698268750000061
          },
          {
            "name": "A#3",
            "midi": 58,
            "time": 12.931025000000032,
            "velocity": 0.5748031496062992,
            "duration": 0.09698268750000061
          },
          {
            "name": "F#4",
            "midi": 66,
            "time": 12.931025000000032,
            "velocity": 0.6850393700787402,
            "duration": 0.09698268750000061
          },
          {
            "name": "F#6",
            "midi": 90,
            "time": 13.017231833333366,
            "velocity": 0.5905511811023622,
            "duration": 0.08620683333333368
          },
          {
            "name": "A#5",
            "midi": 82,
            "time": 13.1034386666667,
            "velocity": 0.5354330708661418,
            "duration": 0.08620683333333368
          },
          {
            "name": "C#6",
            "midi": 85,
            "time": 13.189645500000033,
            "velocity": 0.6614173228346457,
            "duration": 0.08620683333333368
          },
          {
            "name": "F#5",
            "midi": 78,
            "time": 13.275852333333367,
            "velocity": 0.5433070866141733,
            "duration": 0.08620683333333368
          },
          {
            "name": "A#5",
            "midi": 82,
            "time": 13.3620591666667,
            "velocity": 0.5039370078740157,
            "duration": 0.08620683333333368
          },
          {
            "name": "F#5",
            "midi": 78,
            "time": 13.448266000000034,
            "velocity": 0.5826771653543307,
            "duration": 0.08620683333333368
          },
          {
            "name": "F#2",
            "midi": 42,
            "time": 13.448266000000034,
            "velocity": 0.3700787401574803,
            "duration": 0.09698268750000061
          },
          {
            "name": "F#3",
            "midi": 54,
            "time": 13.448266000000034,
            "velocity": 0.4409448818897638,
            "duration": 0.09698268750000061
          },
          {
            "name": "A#5",
            "midi": 82,
            "time": 13.534472833333368,
            "velocity": 0.5354330708661418,
            "duration": 0.08620683333333368
          },
          {
            "name": "C#5",
            "midi": 73,
            "time": 13.620679666666701,
            "velocity": 0.4881889763779528,
            "duration": 0.08620683333333368
          },
          {
            "name": "F#5",
            "midi": 78,
            "time": 13.706886500000035,
            "velocity": 0.5590551181102362,
            "duration": 0.08620683333333368
          },
          {
            "name": "B3",
            "midi": 59,
            "time": 13.706886500000035,
            "velocity": 0.33070866141732286,
            "duration": 0.09698268750000061
          },
          {
            "name": "F#4",
            "midi": 66,
            "time": 13.706886500000035,
            "velocity": 0.3937007874015748,
            "duration": 0.09698268750000061
          },
          {
            "name": "D#4",
            "midi": 63,
            "time": 13.706886500000035,
            "velocity": 0.33070866141732286,
            "duration": 0.09698268750000061
          },
          {
            "name": "D#5",
            "midi": 75,
            "time": 13.793093333333369,
            "velocity": 0.5118110236220472,
            "duration": 0.08620683333333368
          },
          {
            "name": "F#5",
            "midi": 78,
            "time": 13.879300166666702,
            "velocity": 0.5275590551181102,
            "duration": 0.08620683333333368
          },
          {
            "name": "C#5",
            "midi": 73,
            "time": 13.965507000000036,
            "velocity": 0.5826771653543307,
            "duration": 0.08620683333333368
          },
          {
            "name": "F#4",
            "midi": 66,
            "time": 13.965507000000036,
            "velocity": 0.4409448818897638,
            "duration": 0.09698268750000061
          },
          {
            "name": "C#4",
            "midi": 61,
            "time": 13.965507000000036,
            "velocity": 0.3700787401574803,
            "duration": 0.09698268750000061
          },
          {
            "name": "A#3",
            "midi": 58,
            "time": 13.965507000000036,
            "velocity": 0.3700787401574803,
            "duration": 0.09698268750000061
          },
          {
            "name": "F#5",
            "midi": 78,
            "time": 14.05171383333337,
            "velocity": 0.5118110236220472,
            "duration": 0.08620683333333368
          },
          {
            "name": "A#4",
            "midi": 70,
            "time": 14.137920666666703,
            "velocity": 0.4645669291338583,
            "duration": 0.08620683333333368
          },
          {
            "name": "C#5",
            "midi": 73,
            "time": 14.224127500000037,
            "velocity": 0.5826771653543307,
            "duration": 0.08620683333333368
          },
          {
            "name": "F#4",
            "midi": 66,
            "time": 14.31033433333337,
            "velocity": 0.5118110236220472,
            "duration": 0.08620683333333368
          },
          {
            "name": "A#4",
            "midi": 70,
            "time": 14.396541166666704,
            "velocity": 0.4645669291338583,
            "duration": 0.08620683333333368
          },
          {
            "name": "D#4",
            "midi": 63,
            "time": 14.482748000000038,
            "velocity": 0.6062992125984252,
            "duration": 0.0862068333333319
          },
          {
            "name": "C3",
            "midi": 48,
            "time": 14.482748000000038,
            "velocity": 0.4881889763779528,
            "duration": 0.12931024999999785
          },
          {
            "name": "D#5",
            "midi": 75,
            "time": 14.56895483333337,
            "velocity": 0.5826771653543307,
            "duration": 0.0862068333333319
          },
          {
            "name": "G#4",
            "midi": 68,
            "time": 14.655161666666702,
            "velocity": 0.5275590551181102,
            "duration": 0.08620683333333368
          },
          {
            "name": "D#5",
            "midi": 75,
            "time": 14.741368500000036,
            "velocity": 0.6062992125984252,
            "duration": 0.08620683333333368
          },
          {
            "name": "F#4",
            "midi": 66,
            "time": 14.741368500000036,
            "velocity": 0.5354330708661418,
            "duration": 0.5172410000000021
          },
          {
            "name": "G#3",
            "midi": 56,
            "time": 14.741368500000036,
            "velocity": 0.4409448818897638,
            "duration": 0.5172410000000021
          },
          {
            "name": "G#4",
            "midi": 68,
            "time": 14.82757533333337,
            "velocity": 0.5275590551181102,
            "duration": 0.08620683333333368
          },
          {
            "name": "G#5",
            "midi": 80,
            "time": 14.913782166666703,
            "velocity": 0.5511811023622047,
            "duration": 0.08620683333333368
          },
          {
            "name": "D#5",
            "midi": 75,
            "time": 14.999989000000037,
            "velocity": 0.5905511811023622,
            "duration": 0.08620683333333368
          },
          {
            "name": "G#5",
            "midi": 80,
            "time": 15.08619583333337,
            "velocity": 0.5590551181102362,
            "duration": 0.08620683333333368
          },
          {
            "name": "D#5",
            "midi": 75,
            "time": 15.172402666666704,
            "velocity": 0.5275590551181102,
            "duration": 0.08620683333333368
          },
          {
            "name": "D#6",
            "midi": 87,
            "time": 15.258609500000038,
            "velocity": 0.6456692913385826,
            "duration": 0.08620683333333368
          },
          {
            "name": "G#2",
            "midi": 44,
            "time": 15.258609500000038,
            "velocity": 0.5039370078740157,
            "duration": 0.12931024999999963
          },
          {
            "name": "G#5",
            "midi": 80,
            "time": 15.344816333333371,
            "velocity": 0.6220472440944882,
            "duration": 0.0862068333333319
          },
          {
            "name": "D#6",
            "midi": 87,
            "time": 15.431023166666703,
            "velocity": 0.5826771653543307,
            "duration": 0.08620683333333368
          },
          {
            "name": "D#5",
            "midi": 75,
            "time": 15.517230000000037,
            "velocity": 0.6692913385826772,
            "duration": 0.08620683333333368
          },
          {
            "name": "C#3",
            "midi": 49,
            "time": 15.517230000000037,
            "velocity": 0.6141732283464567,
            "duration": 0.12931024999999963
          },
          {
            "name": "D#6",
            "midi": 87,
            "time": 15.60343683333337,
            "velocity": 0.5826771653543307,
            "duration": 0.0862068333333319
          },
          {
            "name": "G#5",
            "midi": 80,
            "time": 15.689643666666703,
            "velocity": 0.5590551181102362,
            "duration": 0.08620683333333368
          },
          {
            "name": "D#6",
            "midi": 87,
            "time": 15.775850500000036,
            "velocity": 0.6929133858267716,
            "duration": 0.08620683333333368
          },
          {
            "name": "F4",
            "midi": 65,
            "time": 15.775850500000036,
            "velocity": 0.5590551181102362,
            "duration": 0.12931024999999963
          },
          {
            "name": "G#3",
            "midi": 56,
            "time": 15.775850500000036,
            "velocity": 0.47244094488188976,
            "duration": 0.12931024999999963
          },
          {
            "name": "C#5",
            "midi": 73,
            "time": 15.86205733333337,
            "velocity": 0.5984251968503937,
            "duration": 0.0862068333333319
          },
          {
            "name": "C#6",
            "midi": 85,
            "time": 15.948264166666702,
            "velocity": 0.5669291338582677,
            "duration": 0.08620683333333368
          },
          {
            "name": "G#5",
            "midi": 80,
            "time": 16.034471000000035,
            "velocity": 0.6377952755905512,
            "duration": 0.0862068333333319
          },
          {
            "name": "C#6",
            "midi": 85,
            "time": 16.120677833333367,
            "velocity": 0.5748031496062992,
            "duration": 0.0862068333333319
          },
          {
            "name": "G#5",
            "midi": 80,
            "time": 16.2068846666667,
            "velocity": 0.5275590551181102,
            "duration": 0.0862068333333319
          },
          {
            "name": "G#6",
            "midi": 92,
            "time": 16.29309150000003,
            "velocity": 0.5511811023622047,
            "duration": 0.0862068333333319
          },
          {
            "name": "C#6",
            "midi": 85,
            "time": 16.379298333333363,
            "velocity": 0.5196850393700787,
            "duration": 0.0862068333333319
          },
          {
            "name": "C#7",
            "midi": 97,
            "time": 16.465505166666695,
            "velocity": 0.5039370078740157,
            "duration": 0.0862068333333319
          },
          {
            "name": "G#6",
            "midi": 92,
            "time": 16.551712000000027,
            "velocity": 0.5669291338582677,
            "duration": 0.0862068333333319
          },
          {
            "name": "C4",
            "midi": 60,
            "time": 16.551712000000027,
            "velocity": 0.4094488188976378,
            "duration": 0.2586204999999957
          },
          {
            "name": "G#4",
            "midi": 68,
            "time": 16.551712000000027,
            "velocity": 0.4881889763779528,
            "duration": 0.2586204999999957
          },
          {
            "name": "F#4",
            "midi": 66,
            "time": 16.551712000000027,
            "velocity": 0.4094488188976378,
            "duration": 0.2586204999999957
          },
          {
            "name": "A#6",
            "midi": 94,
            "time": 16.63791883333336,
            "velocity": 0.5275590551181102,
            "duration": 0.0862068333333319
          },
          {
            "name": "G#6",
            "midi": 92,
            "time": 16.72412566666669,
            "velocity": 0.48031496062992124,
            "duration": 0.0862068333333319
          },
          {
            "name": "D#6",
            "midi": 87,
            "time": 16.810332500000023,
            "velocity": 0.5669291338582677,
            "duration": 0.0862068333333319
          },
          {
            "name": "G#3",
            "midi": 56,
            "time": 16.810332500000023,
            "velocity": 0.3937007874015748,
            "duration": 0.2586204999999957
          },
          {
            "name": "G#4",
            "midi": 68,
            "time": 16.810332500000023,
            "velocity": 0.47244094488188976,
            "duration": 0.2586204999999957
          },
          {
            "name": "F#4",
            "midi": 66,
            "time": 16.810332500000023,
            "velocity": 0.3937007874015748,
            "duration": 0.2586204999999957
          },
          {
            "name": "D#7",
            "midi": 99,
            "time": 16.896539333333354,
            "velocity": 0.5275590551181102,
            "duration": 0.0862068333333319
          },
          {
            "name": "D#6",
            "midi": 87,
            "time": 16.982746166666686,
            "velocity": 0.4566929133858268,
            "duration": 0.0862068333333319
          },
          {
            "name": "C#6",
            "midi": 85,
            "time": 17.06895300000002,
            "velocity": 0.6141732283464567,
            "duration": 0.0862068333333319
          },
          {
            "name": "C#4",
            "midi": 61,
            "time": 17.06895300000002,
            "velocity": 0.4409448818897638,
            "duration": 0.2586204999999957
          },
          {
            "name": "F4",
            "midi": 65,
            "time": 17.06895300000002,
            "velocity": 0.4409448818897638,
            "duration": 0.2586204999999957
          },
          {
            "name": "A#4",
            "midi": 70,
            "time": 17.06895300000002,
            "velocity": 0.5354330708661418,
            "duration": 0.2586204999999957
          },
          {
            "name": "D#6",
            "midi": 87,
            "time": 17.15515983333335,
            "velocity": 0.5826771653543307,
            "duration": 0.0862068333333319
          },
          {
            "name": "C#6",
            "midi": 85,
            "time": 17.241366666666682,
            "velocity": 0.5354330708661418,
            "duration": 0.0862068333333319
          },
          {
            "name": "G#5",
            "midi": 80,
            "time": 17.327573500000014,
            "velocity": 0.5905511811023622,
            "duration": 0.0862068333333319
          },
          {
            "name": "G#3",
            "midi": 56,
            "time": 17.327573500000014,
            "velocity": 0.3779527559055118,
            "duration": 0.2586204999999957
          },
          {
            "name": "F4",
            "midi": 65,
            "time": 17.327573500000014,
            "velocity": 0.3779527559055118,
            "duration": 0.2586204999999957
          },
          {
            "name": "G#4",
            "midi": 68,
            "time": 17.327573500000014,
            "velocity": 0.4645669291338583,
            "duration": 0.2586204999999957
          },
          {
            "name": "G#6",
            "midi": 92,
            "time": 17.413780333333346,
            "velocity": 0.5590551181102362,
            "duration": 0.0862068333333319
          },
          {
            "name": "G#5",
            "midi": 80,
            "time": 17.499987166666678,
            "velocity": 0.5196850393700787,
            "duration": 0.0862068333333319
          },
          {
            "name": "G#5",
            "midi": 80,
            "time": 17.58619400000001,
            "velocity": 0.5669291338582677,
            "duration": 0.0862068333333319
          },
          {
            "name": "C4",
            "midi": 60,
            "time": 17.58619400000001,
            "velocity": 0.4094488188976378,
            "duration": 0.2586204999999957
          },
          {
            "name": "F#4",
            "midi": 66,
            "time": 17.58619400000001,
            "velocity": 0.4094488188976378,
            "duration": 0.2586204999999957
          },
          {
            "name": "A#4",
            "midi": 70,
            "time": 17.58619400000001,
            "velocity": 0.4881889763779528,
            "duration": 0.2586204999999957
          },
          {
            "name": "A#5",
            "midi": 82,
            "time": 17.67240083333334,
            "velocity": 0.5275590551181102,
            "duration": 0.0862068333333319
          },
          {
            "name": "G#5",
            "midi": 80,
            "time": 17.758607666666673,
            "velocity": 0.5118110236220472,
            "duration": 0.0862068333333319
          },
          {
            "name": "D#5",
            "midi": 75,
            "time": 17.844814500000005,
            "velocity": 0.5669291338582677,
            "duration": 0.0862068333333319
          },
          {
            "name": "G#3",
            "midi": 56,
            "time": 17.844814500000005,
            "velocity": 0.3779527559055118,
            "duration": 0.2586204999999957
          },
          {
            "name": "G#4",
            "midi": 68,
            "time": 17.844814500000005,
            "velocity": 0.4645669291338583,
            "duration": 0.2586204999999957
          },
          {
            "name": "F#4",
            "midi": 66,
            "time": 17.844814500000005,
            "velocity": 0.4645669291338583,
            "duration": 0.2586204999999957
          },
          {
            "name": "D#6",
            "midi": 87,
            "time": 17.931021333333337,
            "velocity": 0.5275590551181102,
            "duration": 0.0862068333333319
          },
          {
            "name": "D#5",
            "midi": 75,
            "time": 18.01722816666667,
            "velocity": 0.5275590551181102,
            "duration": 0.0862068333333319
          },
          {
            "name": "C#5",
            "midi": 73,
            "time": 18.103435,
            "velocity": 0.5905511811023622,
            "duration": 0.0862068333333319
          },
          {
            "name": "C#4",
            "midi": 61,
            "time": 18.103435,
            "velocity": 0.4409448818897638,
            "duration": 0.2586204999999957
          },
          {
            "name": "F4",
            "midi": 65,
            "time": 18.103435,
            "velocity": 0.5354330708661418,
            "duration": 0.2586204999999957
          },
          {
            "name": "D#5",
            "midi": 75,
            "time": 18.189641833333333,
            "velocity": 0.5354330708661418,
            "duration": 0.0862068333333319
          },
          {
            "name": "C#5",
            "midi": 73,
            "time": 18.275848666666665,
            "velocity": 0.5275590551181102,
            "duration": 0.0862068333333319
          },
          {
            "name": "G#4",
            "midi": 68,
            "time": 18.362055499999997,
            "velocity": 0.5669291338582677,
            "duration": 0.3448273333333347
          },
          {
            "name": "G#3",
            "midi": 56,
            "time": 18.362055499999997,
            "velocity": 0.47244094488188976,
            "duration": 0.25862049999999925
          },
          {
            "name": "C3",
            "midi": 48,
            "time": 18.620675999999996,
            "velocity": 0.4881889763779528,
            "duration": 0.12931025000000318
          },
          {
            "name": "D#5",
            "midi": 75,
            "time": 18.70688283333333,
            "velocity": 0.5511811023622047,
            "duration": 0.08620683333333545
          },
          {
            "name": "G#5",
            "midi": 80,
            "time": 18.793089666666667,
            "velocity": 0.5275590551181102,
            "duration": 0.0862068333333319
          },
          {
            "name": "A#5",
            "midi": 82,
            "time": 18.8792965,
            "velocity": 0.5826771653543307,
            "duration": 0.0862068333333319
          },
          {
            "name": "F#4",
            "midi": 66,
            "time": 18.8792965,
            "velocity": 0.5354330708661418,
            "duration": 0.12931024999999963
          },
          {
            "name": "D#4",
            "midi": 63,
            "time": 18.8792965,
            "velocity": 0.4409448818897638,
            "duration": 0.12931024999999963
          },
          {
            "name": "G#3",
            "midi": 56,
            "time": 18.8792965,
            "velocity": 0.4409448818897638,
            "duration": 0.12931024999999963
          },
          {
            "name": "G#5",
            "midi": 80,
            "time": 18.96550333333333,
            "velocity": 0.5511811023622047,
            "duration": 0.08620683333333545
          },
          {
            "name": "D#5",
            "midi": 75,
            "time": 19.051710166666666,
            "velocity": 0.5275590551181102,
            "duration": 0.0862068333333319
          },
          {
            "name": "C#5",
            "midi": 73,
            "time": 19.137916999999998,
            "velocity": 0.5590551181102362,
            "duration": 0.08620683333333545
          },
          {
            "name": "F4",
            "midi": 65,
            "time": 19.137916999999998,
            "velocity": 0.49606299212598426,
            "duration": 0.12931025000000318
          },
          {
            "name": "C#4",
            "midi": 61,
            "time": 19.137916999999998,
            "velocity": 0.41732283464566927,
            "duration": 0.12931025000000318
          },
          {
            "name": "G#3",
            "midi": 56,
            "time": 19.137916999999998,
            "velocity": 0.41732283464566927,
            "duration": 0.12931025000000318
          },
          {
            "name": "G#5",
            "midi": 80,
            "time": 19.224123833333334,
            "velocity": 0.5748031496062992,
            "duration": 0.08620683333333545
          },
          {
            "name": "C#6",
            "midi": 85,
            "time": 19.31033066666667,
            "velocity": 0.5669291338582677,
            "duration": 0.0862068333333319
          },
          {
            "name": "D#6",
            "midi": 87,
            "time": 19.3965375,
            "velocity": 0.5826771653543307,
            "duration": 0.0862068333333319
          },
          {
            "name": "C#3",
            "midi": 49,
            "time": 19.3965375,
            "velocity": 0.4881889763779528,
            "duration": 0.12931024999999963
          },
          {
            "name": "C#6",
            "midi": 85,
            "time": 19.482744333333333,
            "velocity": 0.5433070866141733,
            "duration": 0.08620683333333545
          },
          {
            "name": "A#5",
            "midi": 82,
            "time": 19.56895116666667,
            "velocity": 0.5275590551181102,
            "duration": 0.08620683333333545
          },
          {
            "name": "G#5",
            "midi": 80,
            "time": 19.655158000000004,
            "velocity": 0.5669291338582677,
            "duration": 0.08620683333333545
          },
          {
            "name": "G#2",
            "midi": 44,
            "time": 19.655158000000004,
            "velocity": 0.4881889763779528,
            "duration": 0.12931025000000318
          },
          {
            "name": "D#6",
            "midi": 87,
            "time": 19.74136483333334,
            "velocity": 0.5433070866141733,
            "duration": 0.08620683333333545
          },
          {
            "name": "G#6",
            "midi": 92,
            "time": 19.827571666666675,
            "velocity": 0.5275590551181102,
            "duration": 0.0862068333333319
          },
          {
            "name": "A#6",
            "midi": 94,
            "time": 19.913778500000006,
            "velocity": 0.5669291338582677,
            "duration": 0.08620683333333545
          },
          {
            "name": "F#4",
            "midi": 66,
            "time": 19.913778500000006,
            "velocity": 0.44881889763779526,
            "duration": 0.12931025000000318
          },
          {
            "name": "C4",
            "midi": 60,
            "time": 19.913778500000006,
            "velocity": 0.3779527559055118,
            "duration": 0.12931025000000318
          },
          {
            "name": "G#3",
            "midi": 56,
            "time": 19.913778500000006,
            "velocity": 0.3779527559055118,
            "duration": 0.12931025000000318
          },
          {
            "name": "G#6",
            "midi": 92,
            "time": 19.999985333333342,
            "velocity": 0.5039370078740157,
            "duration": 0.08620683333333545
          },
          {
            "name": "D#6",
            "midi": 87,
            "time": 20.086192166666677,
            "velocity": 0.4645669291338583,
            "duration": 0.0862068333333319
          },
          {
            "name": "C#6",
            "midi": 85,
            "time": 20.17239900000001,
            "velocity": 0.6062992125984252,
            "duration": 0.08620683333333545
          },
          {
            "name": "C#2",
            "midi": 37,
            "time": 20.17239900000001,
            "velocity": 0.4881889763779528,
            "duration": 0.12931025000000318
          },
          {
            "name": "G#6",
            "midi": 92,
            "time": 20.258605833333345,
            "velocity": 0.5748031496062992,
            "duration": 0.08620683333333545
          },
          {
            "name": "C#7",
            "midi": 97,
            "time": 20.34481266666668,
            "velocity": 0.5354330708661418,
            "duration": 0.0862068333333319
          },
          {
            "name": "D#7",
            "midi": 99,
            "time": 20.431019500000012,
            "velocity": 0.5669291338582677,
            "duration": 0.0862068333333319
          },
          {
            "name": "F4",
            "midi": 65,
            "time": 20.431019500000012,
            "velocity": 0.47244094488188976,
            "duration": 0.12931024999999963
          },
          {
            "name": "C#4",
            "midi": 61,
            "time": 20.431019500000012,
            "velocity": 0.3937007874015748,
            "duration": 0.12931024999999963
          },
          {
            "name": "G#3",
            "midi": 56,
            "time": 20.431019500000012,
            "velocity": 0.3937007874015748,
            "duration": 0.12931024999999963
          },
          {
            "name": "C#7",
            "midi": 97,
            "time": 20.517226333333344,
            "velocity": 0.5354330708661418,
            "duration": 0.08620683333333545
          },
          {
            "name": "A#6",
            "midi": 94,
            "time": 20.60343316666668,
            "velocity": 0.5354330708661418,
            "duration": 0.0862068333333319
          },
          {
            "name": "G#6",
            "midi": 92,
            "time": 20.68964000000001,
            "velocity": 0.5669291338582677,
            "duration": 0.08620683333333545
          },
          {
            "name": "G#2",
            "midi": 44,
            "time": 20.68964000000001,
            "velocity": 0.4881889763779528,
            "duration": 0.25862049999999925
          },
          {
            "name": "A#6",
            "midi": 94,
            "time": 20.775846833333347,
            "velocity": 0.5433070866141733,
            "duration": 0.0862068333333319
          },
          {
            "name": "G#6",
            "midi": 92,
            "time": 20.86205366666668,
            "velocity": 0.49606299212598426,
            "duration": 0.0862068333333319
          },
          {
            "name": "D#6",
            "midi": 87,
            "time": 20.94826050000001,
            "velocity": 0.5669291338582677,
            "duration": 0.0862068333333319
          },
          {
            "name": "C4",
            "midi": 60,
            "time": 20.94826050000001,
            "velocity": 0.3937007874015748,
            "duration": 0.2586204999999957
          },
          {
            "name": "G#4",
            "midi": 68,
            "time": 20.94826050000001,
            "velocity": 0.47244094488188976,
            "duration": 0.2586204999999957
          },
          {
            "name": "F#4",
            "midi": 66,
            "time": 20.94826050000001,
            "velocity": 0.3937007874015748,
            "duration": 0.2586204999999957
          },
          {
            "name": "D#7",
            "midi": 99,
            "time": 21.034467333333343,
            "velocity": 0.5275590551181102,
            "duration": 0.0862068333333319
          },
          {
            "name": "D#6",
            "midi": 87,
            "time": 21.120674166666674,
            "velocity": 0.5669291338582677,
            "duration": 0.0862068333333319
          },
          {
            "name": "C#6",
            "midi": 85,
            "time": 21.206881000000006,
            "velocity": 0.6377952755905512,
            "duration": 0.0862068333333319
          },
          {
            "name": "C#4",
            "midi": 61,
            "time": 21.206881000000006,
            "velocity": 0.4409448818897638,
            "duration": 0.2586204999999957
          },
          {
            "name": "F4",
            "midi": 65,
            "time": 21.206881000000006,
            "velocity": 0.4409448818897638,
            "duration": 0.2586204999999957
          },
          {
            "name": "A#4",
            "midi": 70,
            "time": 21.206881000000006,
            "velocity": 0.5354330708661418,
            "duration": 0.2586204999999957
          },
          {
            "name": "D#6",
            "midi": 87,
            "time": 21.293087833333338,
            "velocity": 0.5748031496062992,
            "duration": 0.0862068333333319
          },
          {
            "name": "C#6",
            "midi": 85,
            "time": 21.37929466666667,
            "velocity": 0.5275590551181102,
            "duration": 0.0862068333333319
          },
          {
            "name": "G#5",
            "midi": 80,
            "time": 21.465501500000002,
            "velocity": 0.6062992125984252,
            "duration": 0.0862068333333319
          },
          {
            "name": "G#3",
            "midi": 56,
            "time": 21.465501500000002,
            "velocity": 0.3937007874015748,
            "duration": 0.2586204999999957
          },
          {
            "name": "F4",
            "midi": 65,
            "time": 21.465501500000002,
            "velocity": 0.3937007874015748,
            "duration": 0.2586204999999957
          },
          {
            "name": "G#4",
            "midi": 68,
            "time": 21.465501500000002,
            "velocity": 0.47244094488188976,
            "duration": 0.2586204999999957
          },
          {
            "name": "G#6",
            "midi": 92,
            "time": 21.551708333333334,
            "velocity": 0.5905511811023622,
            "duration": 0.0862068333333319
          },
          {
            "name": "G#5",
            "midi": 80,
            "time": 21.637915166666666,
            "velocity": 0.5275590551181102,
            "duration": 0.0862068333333319
          },
          {
            "name": "G#5",
            "midi": 80,
            "time": 21.724121999999998,
            "velocity": 0.6220472440944882,
            "duration": 0.0862068333333319
          },
          {
            "name": "C4",
            "midi": 60,
            "time": 21.724121999999998,
            "velocity": 0.4409448818897638,
            "duration": 0.2586204999999957
          },
          {
            "name": "F#4",
            "midi": 66,
            "time": 21.724121999999998,
            "velocity": 0.4409448818897638,
            "duration": 0.2586204999999957
          },
          {
            "name": "A#4",
            "midi": 70,
            "time": 21.724121999999998,
            "velocity": 0.5354330708661418,
            "duration": 0.2586204999999957
          },
          {
            "name": "A#5",
            "midi": 82,
            "time": 21.81032883333333,
            "velocity": 0.5511811023622047,
            "duration": 0.0862068333333319
          },
          {
            "name": "G#5",
            "midi": 80,
            "time": 21.89653566666666,
            "velocity": 0.5118110236220472,
            "duration": 0.0862068333333319
          },
          {
            "name": "D#5",
            "midi": 75,
            "time": 21.982742499999993,
            "velocity": 0.5748031496062992,
            "duration": 0.0862068333333319
          },
          {
            "name": "G#3",
            "midi": 56,
            "time": 21.982742499999993,
            "velocity": 0.4094488188976378,
            "duration": 0.2586204999999957
          },
          {
            "name": "G#4",
            "midi": 68,
            "time": 21.982742499999993,
            "velocity": 0.4881889763779528,
            "duration": 0.2586204999999957
          },
          {
            "name": "F#4",
            "midi": 66,
            "time": 21.982742499999993,
            "velocity": 0.4094488188976378,
            "duration": 0.2586204999999957
          },
          {
            "name": "D#6",
            "midi": 87,
            "time": 22.068949333333325,
            "velocity": 0.5354330708661418,
            "duration": 0.0862068333333319
          },
          {
            "name": "D#5",
            "midi": 75,
            "time": 22.155156166666657,
            "velocity": 0.5118110236220472,
            "duration": 0.0862068333333319
          },
          {
            "name": "C#5",
            "midi": 73,
            "time": 22.24136299999999,
            "velocity": 0.5905511811023622,
            "duration": 0.0862068333333319
          },
          {
            "name": "C#4",
            "midi": 61,
            "time": 22.24136299999999,
            "velocity": 0.4330708661417323,
            "duration": 0.2586204999999957
          },
          {
            "name": "F4",
            "midi": 65,
            "time": 22.24136299999999,
            "velocity": 0.5039370078740157,
            "duration": 0.2586204999999957
          },
          {
            "name": "D#5",
            "midi": 75,
            "time": 22.32756983333332,
            "velocity": 0.5433070866141733,
            "duration": 0.0862068333333319
          },
          {
            "name": "C#5",
            "midi": 73,
            "time": 22.413776666666653,
            "velocity": 0.49606299212598426,
            "duration": 0.0862068333333319
          },
          {
            "name": "G#4",
            "midi": 68,
            "time": 22.499983499999985,
            "velocity": 0.5905511811023622,
            "duration": 0.3448273333333347
          },
          {
            "name": "G#3",
            "midi": 56,
            "time": 22.499983499999985,
            "velocity": 0.4881889763779528,
            "duration": 0.25862049999999925
          },
          {
            "name": "C3",
            "midi": 48,
            "time": 22.758603999999984,
            "velocity": 0.5354330708661418,
            "duration": 0.12931025000000318
          },
          {
            "name": "G#5",
            "midi": 80,
            "time": 22.84481083333332,
            "velocity": 0.5275590551181102,
            "duration": 0.08620683333333545
          },
          {
            "name": "F#5",
            "midi": 78,
            "time": 22.931017666666655,
            "velocity": 0.5039370078740157,
            "duration": 0.0862068333333319
          },
          {
            "name": "G#5",
            "midi": 80,
            "time": 23.017224499999987,
            "velocity": 0.5905511811023622,
            "duration": 0.0862068333333319
          },
          {
            "name": "F#4",
            "midi": 66,
            "time": 23.017224499999987,
            "velocity": 0.4881889763779528,
            "duration": 0.12931024999999963
          },
          {
            "name": "D#4",
            "midi": 63,
            "time": 23.017224499999987,
            "velocity": 0.4094488188976378,
            "duration": 0.12931024999999963
          },
          {
            "name": "G#3",
            "midi": 56,
            "time": 23.023690012499987,
            "velocity": 0.4094488188976378,
            "duration": 0.12931024999999963
          },
          {
            "name": "F#5",
            "midi": 78,
            "time": 23.10343133333332,
            "velocity": 0.5354330708661418,
            "duration": 0.08620683333333545
          },
          {
            "name": "G#5",
            "midi": 80,
            "time": 23.189638166666654,
            "velocity": 0.5118110236220472,
            "duration": 0.0862068333333319
          },
          {
            "name": "F#6",
            "midi": 90,
            "time": 23.275844999999986,
            "velocity": 0.6456692913385826,
            "duration": 0.0862068333333319
          },
          {
            "name": "G#5",
            "midi": 80,
            "time": 23.362051833333318,
            "velocity": 0.5590551181102362,
            "duration": 0.0862068333333319
          },
          {
            "name": "F#5",
            "midi": 78,
            "time": 23.44825866666665,
            "velocity": 0.5118110236220472,
            "duration": 0.0862068333333319
          },
          {
            "name": "G#5",
            "midi": 80,
            "time": 23.534465499999982,
            "velocity": 0.5826771653543307,
            "duration": 0.0862068333333319
          },
          {
            "name": "C2",
            "midi": 36,
            "time": 23.534465499999982,
            "velocity": 0.5511811023622047,
            "duration": 0.2586204999999957
          },
          {
            "name": "F#5",
            "midi": 78,
            "time": 23.620672333333314,
            "velocity": 0.5275590551181102,
            "duration": 0.0862068333333319
          },
          {
            "name": "G#5",
            "midi": 80,
            "time": 23.706879166666646,
            "velocity": 0.5039370078740157,
            "duration": 0.0862068333333319
          },
          {
            "name": "G#4",
            "midi": 68,
            "time": 23.793085999999978,
            "velocity": 0.5039370078740157,
            "duration": 0.0862068333333319
          },
          {
            "name": "C3",
            "midi": 48,
            "time": 23.793085999999978,
            "velocity": 0.5669291338582677,
            "duration": 0.12931024999999963
          },
          {
            "name": "G#5",
            "midi": 80,
            "time": 23.87929283333331,
            "velocity": 0.5354330708661418,
            "duration": 0.08620683333333545
          },
          {
            "name": "F#5",
            "midi": 78,
            "time": 23.965499666666645,
            "velocity": 0.49606299212598426,
            "duration": 0.0862068333333319
          },
          {
            "name": "G#5",
            "midi": 80,
            "time": 24.051706499999977,
            "velocity": 0.5590551181102362,
            "duration": 0.0862068333333319
          },
          {
            "name": "D#4",
            "midi": 63,
            "time": 24.051706499999977,
            "velocity": 0.44881889763779526,
            "duration": 0.12931024999999963
          },
          {
            "name": "G#3",
            "midi": 56,
            "time": 24.051706499999977,
            "velocity": 0.44881889763779526,
            "duration": 0.12931024999999963
          },
          {
            "name": "F#4",
            "midi": 66,
            "time": 24.051706499999977,
            "velocity": 0.5433070866141733,
            "duration": 0.12931024999999963
          },
          {
            "name": "F#5",
            "midi": 78,
            "time": 24.13791333333331,
            "velocity": 0.5118110236220472,
            "duration": 0.08620683333333545
          },
          {
            "name": "G#5",
            "midi": 80,
            "time": 24.224120166666644,
            "velocity": 0.4881889763779528,
            "duration": 0.0862068333333319
          },
          {
            "name": "F#6",
            "midi": 90,
            "time": 24.310326999999976,
            "velocity": 0.6377952755905512,
            "duration": 0.0862068333333319
          },
          {
            "name": "G#5",
            "midi": 80,
            "time": 24.396533833333308,
            "velocity": 0.5275590551181102,
            "duration": 0.0862068333333319
          },
          {
            "name": "F#5",
            "midi": 78,
            "time": 24.48274066666664,
            "velocity": 0.49606299212598426,
            "duration": 0.0862068333333319
          },
          {
            "name": "G#5",
            "midi": 80,
            "time": 24.56894749999997,
            "velocity": 0.5433070866141733,
            "duration": 0.0862068333333319
          },
          {
            "name": "C2",
            "midi": 36,
            "time": 24.56894749999997,
            "velocity": 0.4645669291338583,
            "duration": 0.2586204999999957
          },
          {
            "name": "C3",
            "midi": 48,
            "time": 24.56894749999997,
            "velocity": 0.5511811023622047,
            "duration": 0.2586204999999957
          },
          {
            "name": "F#5",
            "midi": 78,
            "time": 24.655154333333304,
            "velocity": 0.5275590551181102,
            "duration": 0.0862068333333319
          },
          {
            "name": "G#5",
            "midi": 80,
            "time": 24.741361166666636,
            "velocity": 0.5039370078740157,
            "duration": 0.0862068333333319
          },
          {
            "name": "A#4",
            "midi": 70,
            "time": 24.827567999999967,
            "velocity": 0.5511811023622047,
            "duration": 0.08620683333333545
          },
          {
            "name": "C#2",
            "midi": 37,
            "time": 24.827567999999967,
            "velocity": 0.49606299212598426,
            "duration": 0.12931025000000318
          },
          {
            "name": "C#3",
            "midi": 49,
            "time": 24.827567999999967,
            "velocity": 0.6062992125984252,
            "duration": 0.12931025000000318
          },
          {
            "name": "A#5",
            "midi": 82,
            "time": 24.913774833333303,
            "velocity": 0.5826771653543307,
            "duration": 0.08620683333333545
          },
          {
            "name": "F#5",
            "midi": 78,
            "time": 24.99998166666664,
            "velocity": 0.5196850393700787,
            "duration": 0.0862068333333319
          },
          {
            "name": "A#5",
            "midi": 82,
            "time": 25.08618849999997,
            "velocity": 0.5826771653543307,
            "duration": 0.0862068333333319
          },
          {
            "name": "F#4",
            "midi": 66,
            "time": 25.08618849999997,
            "velocity": 0.5748031496062992,
            "duration": 0.2586204999999957
          },
          {
            "name": "C#4",
            "midi": 61,
            "time": 25.08618849999997,
            "velocity": 0.4881889763779528,
            "duration": 0.2586204999999957
          },
          {
            "name": "A#3",
            "midi": 58,
            "time": 25.08618849999997,
            "velocity": 0.4881889763779528,
            "duration": 0.2586204999999957
          },
          {
            "name": "F#5",
            "midi": 78,
            "time": 25.172395333333302,
            "velocity": 0.5511811023622047,
            "duration": 0.0862068333333319
          },
          {
            "name": "A#5",
            "midi": 82,
            "time": 25.258602166666634,
            "velocity": 0.5196850393700787,
            "duration": 0.0862068333333319
          },
          {
            "name": "F#6",
            "midi": 90,
            "time": 25.344808999999966,
            "velocity": 0.6535433070866141,
            "duration": 0.0862068333333319
          },
          {
            "name": "C2",
            "midi": 36,
            "time": 25.344808999999966,
            "velocity": 0.4881889763779528,
            "duration": 0.2586204999999957
          },
          {
            "name": "C3",
            "midi": 48,
            "time": 25.344808999999966,
            "velocity": 0.5748031496062992,
            "duration": 0.2586204999999957
          },
          {
            "name": "A#5",
            "midi": 82,
            "time": 25.431015833333298,
            "velocity": 0.5590551181102362,
            "duration": 0.0862068333333319
          },
          {
            "name": "F#5",
            "midi": 78,
            "time": 25.51722266666663,
            "velocity": 0.5354330708661418,
            "duration": 0.0862068333333319
          },
          {
            "name": "A#5",
            "midi": 82,
            "time": 25.60342949999996,
            "velocity": 0.6062992125984252,
            "duration": 0.0862068333333319
          },
          {
            "name": "C#2",
            "midi": 37,
            "time": 25.60342949999996,
            "velocity": 0.48031496062992124,
            "duration": 0.2586204999999957
          },
          {
            "name": "C#3",
            "midi": 49,
            "time": 25.60342949999996,
            "velocity": 0.5669291338582677,
            "duration": 0.2586204999999957
          },
          {
            "name": "F#5",
            "midi": 78,
            "time": 25.689636333333294,
            "velocity": 0.5669291338582677,
            "duration": 0.0862068333333319
          },
          {
            "name": "A#5",
            "midi": 82,
            "time": 25.775843166666625,
            "velocity": 0.5275590551181102,
            "duration": 0.0862068333333319
          },
          {
            "name": "A#4",
            "midi": 70,
            "time": 25.862049999999957,
            "velocity": 0.5748031496062992,
            "duration": 0.08620683333333545
          },
          {
            "name": "D2",
            "midi": 38,
            "time": 25.862049999999957,
            "velocity": 0.5433070866141733,
            "duration": 0.25862049999999925
          },
          {
            "name": "D3",
            "midi": 50,
            "time": 25.862049999999957,
            "velocity": 0.6377952755905512,
            "duration": 0.25862049999999925
          },
          {
            "name": "A#5",
            "midi": 82,
            "time": 25.948256833333293,
            "velocity": 0.5905511811023622,
            "duration": 0.0862068333333319
          },
          {
            "name": "F#5",
            "midi": 78,
            "time": 26.034463666666625,
            "velocity": 0.5669291338582677,
            "duration": 0.0862068333333319
          },
          {
            "name": "A#5",
            "midi": 82,
            "time": 26.120670499999957,
            "velocity": 0.6141732283464567,
            "duration": 0.0862068333333319
          },
          {
            "name": "F#4",
            "midi": 66,
            "time": 26.120670499999957,
            "velocity": 0.6062992125984252,
            "duration": 0.2586204999999957
          },
          {
            "name": "A#3",
            "midi": 58,
            "time": 26.120670499999957,
            "velocity": 0.49606299212598426,
            "duration": 0.2586204999999957
          },
          {
            "name": "F#5",
            "midi": 78,
            "time": 26.20687733333329,
            "velocity": 0.5669291338582677,
            "duration": 0.0862068333333319
          },
          {
            "name": "A#5",
            "midi": 82,
            "time": 26.29308416666662,
            "velocity": 0.5275590551181102,
            "duration": 0.0862068333333319
          },
          {
            "name": "F#6",
            "midi": 90,
            "time": 26.379290999999952,
            "velocity": 0.6692913385826772,
            "duration": 0.08620683333333545
          },
          {
            "name": "C#2",
            "midi": 37,
            "time": 26.379290999999952,
            "velocity": 0.5039370078740157,
            "duration": 0.25862049999999925
          },
          {
            "name": "C#3",
            "midi": 49,
            "time": 26.379290999999952,
            "velocity": 0.6141732283464567,
            "duration": 0.25862049999999925
          },
          {
            "name": "A#5",
            "midi": 82,
            "time": 26.465497833333288,
            "velocity": 0.5826771653543307,
            "duration": 0.0862068333333319
          },
          {
            "name": "F#5",
            "midi": 78,
            "time": 26.55170466666662,
            "velocity": 0.5590551181102362,
            "duration": 0.0862068333333319
          },
          {
            "name": "A#5",
            "midi": 82,
            "time": 26.63791149999995,
            "velocity": 0.6299212598425197,
            "duration": 0.0862068333333319
          },
          {
            "name": "D2",
            "midi": 38,
            "time": 26.63791149999995,
            "velocity": 0.49606299212598426,
            "duration": 0.2586204999999957
          },
          {
            "name": "D3",
            "midi": 50,
            "time": 26.63791149999995,
            "velocity": 0.5905511811023622,
            "duration": 0.2586204999999957
          },
          {
            "name": "F#5",
            "midi": 78,
            "time": 26.724118333333283,
            "velocity": 0.6062992125984252,
            "duration": 0.0862068333333319
          },
          {
            "name": "A#5",
            "midi": 82,
            "time": 26.810325166666615,
            "velocity": 0.5826771653543307,
            "duration": 0.0862068333333319
          },
          {
            "name": "F#5",
            "midi": 78,
            "time": 26.896531999999947,
            "velocity": 0.6299212598425197,
            "duration": 0.08620683333333545
          },
          {
            "name": "D#2",
            "midi": 39,
            "time": 26.896531999999947,
            "velocity": 0.5511811023622047,
            "duration": 0.25862049999999925
          },
          {
            "name": "D#3",
            "midi": 51,
            "time": 26.896531999999947,
            "velocity": 0.6456692913385826,
            "duration": 0.25862049999999925
          },
          {
            "name": "A#5",
            "midi": 82,
            "time": 26.982738833333283,
            "velocity": 0.6062992125984252,
            "duration": 0.0862068333333319
          },
          {
            "name": "F#5",
            "midi": 78,
            "time": 27.068945666666615,
            "velocity": 0.6141732283464567,
            "duration": 0.0862068333333319
          },
          {
            "name": "A#6",
            "midi": 94,
            "time": 27.155152499999947,
            "velocity": 0.6850393700787402,
            "duration": 0.06465512500000159
          },
          {
            "name": "F#4",
            "midi": 66,
            "time": 27.155152499999947,
            "velocity": 0.6299212598425197,
            "duration": 0.5172409999999985
          },
          {
            "name": "A#3",
            "midi": 58,
            "time": 27.155152499999947,
            "velocity": 0.5354330708661418,
            "duration": 0.5172409999999985
          },
          {
            "name": "A#5",
            "midi": 82,
            "time": 27.241359333333282,
            "velocity": 0.5984251968503937,
            "duration": 0.0862068333333319
          },
          {
            "name": "F#5",
            "midi": 78,
            "time": 27.327566166666614,
            "velocity": 0.5511811023622047,
            "duration": 0.0862068333333319
          },
          {
            "name": "G#6",
            "midi": 92,
            "time": 27.413772999999946,
            "velocity": 0.7007874015748031,
            "duration": 0.06465512500000159
          },
          {
            "name": "A#5",
            "midi": 82,
            "time": 27.49997983333328,
            "velocity": 0.5511811023622047,
            "duration": 0.0862068333333319
          },
          {
            "name": "F#5",
            "midi": 78,
            "time": 27.586186666666613,
            "velocity": 0.5748031496062992,
            "duration": 0.0862068333333319
          },
          {
            "name": "F#6",
            "midi": 90,
            "time": 27.672393499999945,
            "velocity": 0.7007874015748031,
            "duration": 0.06465512500000159
          },
          {
            "name": "D#2",
            "midi": 39,
            "time": 27.672393499999945,
            "velocity": 0.5433070866141733,
            "duration": 0.25862049999999925
          },
          {
            "name": "D#3",
            "midi": 51,
            "time": 27.672393499999945,
            "velocity": 0.6377952755905512,
            "duration": 0.25862049999999925
          },
          {
            "name": "A#5",
            "midi": 82,
            "time": 27.75860033333328,
            "velocity": 0.6141732283464567,
            "duration": 0.0862068333333319
          },
          {
            "name": "F#5",
            "midi": 78,
            "time": 27.844807166666612,
            "velocity": 0.5748031496062992,
            "duration": 0.0862068333333319
          },
          {
            "name": "C#6",
            "midi": 85,
            "time": 27.931013999999944,
            "velocity": 0.6299212598425197,
            "duration": 0.08620683333333545
          },
          {
            "name": "E2",
            "midi": 40,
            "time": 27.931013999999944,
            "velocity": 0.5748031496062992,
            "duration": 0.25862049999999925
          },
          {
            "name": "E3",
            "midi": 52,
            "time": 27.931013999999944,
            "velocity": 0.6929133858267716,
            "duration": 0.25862049999999925
          },
          {
            "name": "A#5",
            "midi": 82,
            "time": 28.01722083333328,
            "velocity": 0.5748031496062992,
            "duration": 0.0862068333333319
          },
          {
            "name": "F#5",
            "midi": 78,
            "time": 28.10342766666661,
            "velocity": 0.5984251968503937,
            "duration": 0.0862068333333319
          },
          {
            "name": "A#6",
            "midi": 94,
            "time": 28.189634499999944,
            "velocity": 0.7086614173228346,
            "duration": 0.06465512500000159
          },
          {
            "name": "F#4",
            "midi": 66,
            "time": 28.189634499999944,
            "velocity": 0.6614173228346457,
            "duration": 0.5172409999999985
          },
          {
            "name": "A#3",
            "midi": 58,
            "time": 28.189634499999944,
            "velocity": 0.5511811023622047,
            "duration": 0.5172409999999985
          },
          {
            "name": "A#5",
            "midi": 82,
            "time": 28.27584133333328,
            "velocity": 0.5984251968503937,
            "duration": 0.0862068333333319
          },
          {
            "name": "F#5",
            "midi": 78,
            "time": 28.36204816666661,
            "velocity": 0.6220472440944882,
            "duration": 0.0862068333333319
          },
          {
            "name": "G#6",
            "midi": 92,
            "time": 28.448254999999943,
            "velocity": 0.7401574803149606,
            "duration": 0.06465512500000159
          },
          {
            "name": "A#5",
            "midi": 82,
            "time": 28.53446183333328,
            "velocity": 0.6062992125984252,
            "duration": 0.0862068333333319
          },
          {
            "name": "F#5",
            "midi": 78,
            "time": 28.62066866666661,
            "velocity": 0.5984251968503937,
            "duration": 0.0862068333333319
          },
          {
            "name": "F#6",
            "midi": 90,
            "time": 28.706875499999942,
            "velocity": 0.7480314960629921,
            "duration": 0.06465512500000159
          },
          {
            "name": "E2",
            "midi": 40,
            "time": 28.706875499999942,
            "velocity": 0.5590551181102362,
            "duration": 0.25862049999999925
          },
          {
            "name": "E3",
            "midi": 52,
            "time": 28.706875499999942,
            "velocity": 0.6692913385826772,
            "duration": 0.25862049999999925
          },
          {
            "name": "A#5",
            "midi": 82,
            "time": 28.793082333333277,
            "velocity": 0.5984251968503937,
            "duration": 0.0862068333333319
          },
          {
            "name": "F#5",
            "midi": 78,
            "time": 28.87928916666661,
            "velocity": 0.6220472440944882,
            "duration": 0.0862068333333319
          },
          {
            "name": "C#5",
            "midi": 73,
            "time": 28.96549599999994,
            "velocity": 0.6850393700787402,
            "duration": 0.08620683333333545
          },
          {
            "name": "F2",
            "midi": 41,
            "time": 28.96549599999994,
            "velocity": 0.6141732283464567,
            "duration": 0.12931025000000318
          },
          {
            "name": "F3",
            "midi": 53,
            "time": 28.96549599999994,
            "velocity": 0.7165354330708661,
            "duration": 0.12931025000000318
          },
          {
            "name": "C#6",
            "midi": 85,
            "time": 29.051702833333277,
            "velocity": 0.6141732283464567,
            "duration": 0.08620683333333545
          },
          {
            "name": "A#5",
            "midi": 82,
            "time": 29.137909666666612,
            "velocity": 0.5905511811023622,
            "duration": 0.0862068333333319
          },
          {
            "name": "C#6",
            "midi": 85,
            "time": 29.224116499999944,
            "velocity": 0.6929133858267716,
            "duration": 0.0862068333333319
          },
          {
            "name": "F4",
            "midi": 65,
            "time": 29.224116499999944,
            "velocity": 0.6929133858267716,
            "duration": 0.2586204999999957
          },
          {
            "name": "C#4",
            "midi": 61,
            "time": 29.224116499999944,
            "velocity": 0.5748031496062992,
            "duration": 0.2586204999999957
          },
          {
            "name": "A#3",
            "midi": 58,
            "time": 29.224116499999944,
            "velocity": 0.5748031496062992,
            "duration": 0.2586204999999957
          },
          {
            "name": "C#6",
            "midi": 85,
            "time": 29.310323333333276,
            "velocity": 0.5905511811023622,
            "duration": 0.0862068333333319
          },
          {
            "name": "C#7",
            "midi": 97,
            "time": 29.396530166666608,
            "velocity": 0.6299212598425197,
            "duration": 0.0862068333333319
          },
          {
            "name": "A#6",
            "midi": 94,
            "time": 29.48273699999994,
            "velocity": 0.7401574803149606,
            "duration": 0.0862068333333319
          },
          {
            "name": "E2",
            "midi": 40,
            "time": 29.48273699999994,
            "velocity": 0.6062992125984252,
            "duration": 0.2586204999999957
          },
          {
            "name": "E3",
            "midi": 52,
            "time": 29.48273699999994,
            "velocity": 0.7086614173228346,
            "duration": 0.2586204999999957
          },
          {
            "name": "C#7",
            "midi": 97,
            "time": 29.56894383333327,
            "velocity": 0.6062992125984252,
            "duration": 0.0862068333333319
          },
          {
            "name": "C#6",
            "midi": 85,
            "time": 29.655150666666604,
            "velocity": 0.5984251968503937,
            "duration": 0.0862068333333319
          },
          {
            "name": "C#6",
            "midi": 85,
            "time": 29.741357499999935,
            "velocity": 0.7007874015748031,
            "duration": 0.0862068333333319
          },
          {
            "name": "F2",
            "midi": 41,
            "time": 29.741357499999935,
            "velocity": 0.6062992125984252,
            "duration": 0.2586204999999957
          },
          {
            "name": "F3",
            "midi": 53,
            "time": 29.741357499999935,
            "velocity": 0.7086614173228346,
            "duration": 0.2586204999999957
          },
          {
            "name": "A#5",
            "midi": 82,
            "time": 29.827564333333267,
            "velocity": 0.6062992125984252,
            "duration": 0.0862068333333319
          },
          {
            "name": "C#6",
            "midi": 85,
            "time": 29.9137711666666,
            "velocity": 0.6456692913385826,
            "duration": 0.0862068333333319
          },
          {
            "name": "C#5",
            "midi": 73,
            "time": 29.99997799999993,
            "velocity": 0.7007874015748031,
            "duration": 0.08620683333333545
          },
          {
            "name": "F#2",
            "midi": 42,
            "time": 29.99997799999993,
            "velocity": 0.6456692913385826,
            "duration": 0.12931025000000318
          },
          {
            "name": "F#3",
            "midi": 54,
            "time": 29.99997799999993,
            "velocity": 0.7637795275590551,
            "duration": 0.12931025000000318
          },
          {
            "name": "C#6",
            "midi": 85,
            "time": 30.086184833333267,
            "velocity": 0.6692913385826772,
            "duration": 0.08620683333333545
          },
          {
            "name": "A#5",
            "midi": 82,
            "time": 30.172391666666602,
            "velocity": 0.6377952755905512,
            "duration": 0.0862068333333319
          },
          {
            "name": "C#6",
            "midi": 85,
            "time": 30.258598499999934,
            "velocity": 0.7086614173228346,
            "duration": 0.0862068333333319
          },
          {
            "name": "C#4",
            "midi": 61,
            "time": 30.258598499999934,
            "velocity": 0.6220472440944882,
            "duration": 0.12931024999999963
          },
          {
            "name": "E4",
            "midi": 64,
            "time": 30.258598499999934,
            "velocity": 0.7401574803149606,
            "duration": 0.12931024999999963
          },
          {
            "name": "A#3",
            "midi": 58,
            "time": 30.258598499999934,
            "velocity": 0.6220472440944882,
            "duration": 0.12931024999999963
          },
          {
            "name": "C#6",
            "midi": 85,
            "time": 30.344805333333266,
            "velocity": 0.6692913385826772,
            "duration": 0.08620683333333545
          },
          {
            "name": "C#7",
            "midi": 97,
            "time": 30.4310121666666,
            "velocity": 0.6692913385826772,
            "duration": 0.0862068333333319
          },
          {
            "name": "A#6",
            "midi": 94,
            "time": 30.517218999999933,
            "velocity": 0.7952755905511811,
            "duration": 0.08620683333333545
          },
          {
            "name": "F2",
            "midi": 41,
            "time": 30.517218999999933,
            "velocity": 0.6299212598425197,
            "duration": 0.25862049999999925
          },
          {
            "name": "F3",
            "midi": 53,
            "time": 30.517218999999933,
            "velocity": 0.7480314960629921,
            "duration": 0.25862049999999925
          },
          {
            "name": "C#7",
            "midi": 97,
            "time": 30.60342583333327,
            "velocity": 0.6771653543307087,
            "duration": 0.0862068333333319
          },
          {
            "name": "C#6",
            "midi": 85,
            "time": 30.6896326666666,
            "velocity": 0.6614173228346457,
            "duration": 0.0862068333333319
          },
          {
            "name": "C#6",
            "midi": 85,
            "time": 30.775839499999933,
            "velocity": 0.7322834645669292,
            "duration": 0.0862068333333319
          },
          {
            "name": "F#2",
            "midi": 42,
            "time": 30.775839499999933,
            "velocity": 0.6141732283464567,
            "duration": 0.2586204999999957
          },
          {
            "name": "F#3",
            "midi": 54,
            "time": 30.775839499999933,
            "velocity": 0.7165354330708661,
            "duration": 0.2586204999999957
          },
          {
            "name": "A#5",
            "midi": 82,
            "time": 30.862046333333264,
            "velocity": 0.6692913385826772,
            "duration": 0.0862068333333319
          },
          {
            "name": "C#6",
            "midi": 85,
            "time": 30.948253166666596,
            "velocity": 0.6299212598425197,
            "duration": 0.0862068333333319
          },
          {
            "name": "C#5",
            "midi": 73,
            "time": 31.034459999999928,
            "velocity": 0.7401574803149606,
            "duration": 0.08620683333333545
          },
          {
            "name": "G2",
            "midi": 43,
            "time": 31.034459999999928,
            "velocity": 0.7007874015748031,
            "duration": 0.25862049999999925
          },
          {
            "name": "G3",
            "midi": 55,
            "time": 31.034459999999928,
            "velocity": 0.8267716535433071,
            "duration": 0.25862049999999925
          },
          {
            "name": "C#6",
            "midi": 85,
            "time": 31.120666833333264,
            "velocity": 0.6692913385826772,
            "duration": 0.0862068333333319
          },
          {
            "name": "A#5",
            "midi": 82,
            "time": 31.206873666666596,
            "velocity": 0.6377952755905512,
            "duration": 0.0862068333333319
          },
          {
            "name": "C#6",
            "midi": 85,
            "time": 31.293080499999927,
            "velocity": 0.7401574803149606,
            "duration": 0.0862068333333319
          },
          {
            "name": "E4",
            "midi": 64,
            "time": 31.293080499999927,
            "velocity": 0.7559055118110236,
            "duration": 0.2586204999999957
          },
          {
            "name": "C#4",
            "midi": 61,
            "time": 31.293080499999927,
            "velocity": 0.6377952755905512,
            "duration": 0.2586204999999957
          },
          {
            "name": "G3",
            "midi": 55,
            "time": 31.293080499999927,
            "velocity": 0.6377952755905512,
            "duration": 0.2586204999999957
          },
          {
            "name": "C#6",
            "midi": 85,
            "time": 31.37928733333326,
            "velocity": 0.6614173228346457,
            "duration": 0.0862068333333319
          },
          {
            "name": "C#7",
            "midi": 97,
            "time": 31.46549416666659,
            "velocity": 0.6299212598425197,
            "duration": 0.0862068333333319
          },
          {
            "name": "G#6",
            "midi": 92,
            "time": 31.551700999999923,
            "velocity": 0.7480314960629921,
            "duration": 0.08620683333333545
          },
          {
            "name": "G#2",
            "midi": 44,
            "time": 31.551700999999923,
            "velocity": 0.6377952755905512,
            "duration": 0.25862049999999925
          },
          {
            "name": "G#3",
            "midi": 56,
            "time": 31.551700999999923,
            "velocity": 0.7559055118110236,
            "duration": 0.25862049999999925
          },
          {
            "name": "C#7",
            "midi": 97,
            "time": 31.63790783333326,
            "velocity": 0.6692913385826772,
            "duration": 0.0862068333333319
          },
          {
            "name": "C#6",
            "midi": 85,
            "time": 31.72411466666659,
            "velocity": 0.6535433070866141,
            "duration": 0.0862068333333319
          },
          {
            "name": "C#6",
            "midi": 85,
            "time": 31.810321499999922,
            "velocity": 0.7480314960629921,
            "duration": 0.0862068333333319
          },
          {
            "name": "F4",
            "midi": 65,
            "time": 31.810321499999922,
            "velocity": 0.7559055118110236,
            "duration": 0.25862049999999925
          },
          {
            "name": "C#4",
            "midi": 61,
            "time": 31.810321499999922,
            "velocity": 0.6377952755905512,
            "duration": 0.25862049999999925
          },
          {
            "name": "G#3",
            "midi": 56,
            "time": 31.810321499999922,
            "velocity": 0.6377952755905512,
            "duration": 0.25862049999999925
          },
          {
            "name": "G#5",
            "midi": 80,
            "time": 31.896528333333254,
            "velocity": 0.7086614173228346,
            "duration": 0.0862068333333319
          },
          {
            "name": "C#6",
            "midi": 85,
            "time": 31.982735166666586,
            "velocity": 0.6771653543307087,
            "duration": 0.08620683333333545
          },
          {
            "name": "C#5",
            "midi": 73,
            "time": 32.06894199999992,
            "velocity": 0.7637795275590551,
            "duration": 0.08620683333333545
          },
          {
            "name": "A2",
            "midi": 45,
            "time": 32.06894199999992,
            "velocity": 0.6771653543307087,
            "duration": 0.25862050000000636
          },
          {
            "name": "A3",
            "midi": 57,
            "time": 32.06894199999992,
            "velocity": 0.8110236220472441,
            "duration": 0.25862050000000636
          },
          {
            "name": "C#6",
            "midi": 85,
            "time": 32.15514883333326,
            "velocity": 0.7086614173228346,
            "duration": 0.08620683333333545
          },
          {
            "name": "F#5",
            "midi": 78,
            "time": 32.24135566666659,
            "velocity": 0.6692913385826772,
            "duration": 0.08620683333333545
          },
          {
            "name": "C#6",
            "midi": 85,
            "time": 32.32756249999993,
            "velocity": 0.7322834645669292,
            "duration": 0.08620683333333545
          },
          {
            "name": "F#4",
            "midi": 66,
            "time": 32.32756249999993,
            "velocity": 0.7401574803149606,
            "duration": 0.25862050000000636
          },
          {
            "name": "D#4",
            "midi": 63,
            "time": 32.32756249999993,
            "velocity": 0.6220472440944882,
            "duration": 0.25862050000000636
          },
          {
            "name": "A3",
            "midi": 57,
            "time": 32.32756249999993,
            "velocity": 0.6220472440944882,
            "duration": 0.25862050000000636
          },
          {
            "name": "C#5",
            "midi": 73,
            "time": 32.41376933333326,
            "velocity": 0.6850393700787402,
            "duration": 0.08620683333333545
          },
          {
            "name": "C#5",
            "midi": 73,
            "time": 32.4999761666666,
            "velocity": 0.6614173228346457,
            "duration": 0.08620683333333545
          },
          {
            "name": "F#4",
            "midi": 66,
            "time": 32.586182999999934,
            "velocity": 0.7480314960629921,
            "duration": 0.08620683333333545
          },
          {
            "name": "C#5",
            "midi": 73,
            "time": 32.67238983333327,
            "velocity": 0.7086614173228346,
            "duration": 0.08620683333333545
          },
          {
            "name": "C#4",
            "midi": 61,
            "time": 32.758596666666605,
            "velocity": 0.6692913385826772,
            "duration": 0.08620683333333545
          },
          {
            "name": "C#4",
            "midi": 61,
            "time": 32.84480349999994,
            "velocity": 0.7874015748031497,
            "duration": 0.08620683333333545
          },
          {
            "name": "A1",
            "midi": 33,
            "time": 32.84480349999994,
            "velocity": 0.7007874015748031,
            "duration": 0.25862050000000636
          },
          {
            "name": "A2",
            "midi": 45,
            "time": 32.84480349999994,
            "velocity": 0.8346456692913385,
            "duration": 0.25862050000000636
          },
          {
            "name": "F#3",
            "midi": 54,
            "time": 32.931010333333276,
            "velocity": 0.7007874015748031,
            "duration": 0.08620683333333545
          },
          {
            "name": "C#4",
            "midi": 61,
            "time": 33.01721716666661,
            "velocity": 0.6692913385826772,
            "duration": 0.08620683333333545
          },
          {
            "name": "D#3",
            "midi": 51,
            "time": 33.10342399999995,
            "velocity": 0.5826771653543307,
            "duration": 0.08620683333333545
          },
          {
            "name": "G#1",
            "midi": 32,
            "time": 33.10342399999995,
            "velocity": 0.7007874015748031,
            "duration": 1.0344820000000254
          },
          {
            "name": "G#2",
            "midi": 44,
            "time": 33.10342399999995,
            "velocity": 0.8346456692913385,
            "duration": 1.0344820000000254
          },
          {
            "name": "F#3",
            "midi": 54,
            "time": 33.18963083333328,
            "velocity": 0.5590551181102362,
            "duration": 0.08620683333333545
          },
          {
            "name": "C#4",
            "midi": 61,
            "time": 33.27583766666662,
            "velocity": 0.5669291338582677,
            "duration": 0.08620683333333545
          },
          {
            "name": "D#4",
            "midi": 63,
            "time": 33.36204449999995,
            "velocity": 0.6062992125984252,
            "duration": 0.08620683333333545
          },
          {
            "name": "F#3",
            "midi": 54,
            "time": 33.44825133333329,
            "velocity": 0.5511811023622047,
            "duration": 0.08620683333333545
          },
          {
            "name": "C#4",
            "midi": 61,
            "time": 33.534458166666624,
            "velocity": 0.5669291338582677,
            "duration": 0.08620683333333545
          },
          {
            "name": "D#4",
            "midi": 63,
            "time": 33.62066499999996,
            "velocity": 0.6377952755905512,
            "duration": 0.08620683333333545
          },
          {
            "name": "F#4",
            "midi": 66,
            "time": 33.706871833333295,
            "velocity": 0.6141732283464567,
            "duration": 0.08620683333333545
          },
          {
            "name": "C#4",
            "midi": 61,
            "time": 33.79307866666663,
            "velocity": 0.5905511811023622,
            "duration": 0.08620683333333545
          },
          {
            "name": "D#4",
            "midi": 63,
            "time": 33.879285499999966,
            "velocity": 0.6535433070866141,
            "duration": 0.08620683333333545
          },
          {
            "name": "F#4",
            "midi": 66,
            "time": 33.9654923333333,
            "velocity": 0.6062992125984252,
            "duration": 0.08620683333333545
          },
          {
            "name": "C#5",
            "midi": 73,
            "time": 34.05169916666664,
            "velocity": 0.5748031496062992,
            "duration": 0.08620683333333545
          },
          {
            "name": "D#4",
            "midi": 63,
            "time": 34.13790599999997,
            "velocity": 0.6850393700787402,
            "duration": 0.08620683333333545
          },
          {
            "name": "F#4",
            "midi": 66,
            "time": 34.22411283333331,
            "velocity": 0.6299212598425197,
            "duration": 0.08620683333333545
          },
          {
            "name": "C#5",
            "midi": 73,
            "time": 34.31031966666664,
            "velocity": 0.6062992125984252,
            "duration": 0.08620683333333545
          },
          {
            "name": "D#5",
            "midi": 75,
            "time": 34.39652649999998,
            "velocity": 0.7007874015748031,
            "duration": 0.08620683333333545
          },
          {
            "name": "F#4",
            "midi": 66,
            "time": 34.482733333333314,
            "velocity": 0.6141732283464567,
            "duration": 0.08620683333333545
          },
          {
            "name": "C#5",
            "midi": 73,
            "time": 34.56894016666665,
            "velocity": 0.5905511811023622,
            "duration": 0.08620683333333545
          },
          {
            "name": "D#5",
            "midi": 75,
            "time": 34.655146999999985,
            "velocity": 0.7007874015748031,
            "duration": 0.08620683333333545
          },
          {
            "name": "F#4",
            "midi": 66,
            "time": 34.655146999999985,
            "velocity": 0.7874015748031497,
            "duration": 0.38793075000000954
          },
          {
            "name": "C#4",
            "midi": 61,
            "time": 34.655146999999985,
            "velocity": 0.6535433070866141,
            "duration": 0.38793075000000954
          },
          {
            "name": "G#3",
            "midi": 56,
            "time": 34.655146999999985,
            "velocity": 0.6535433070866141,
            "duration": 0.38793075000000954
          },
          {
            "name": "F#5",
            "midi": 78,
            "time": 34.74135383333332,
            "velocity": 0.6141732283464567,
            "duration": 0.08620683333333545
          },
          {
            "name": "C#5",
            "midi": 73,
            "time": 34.827560666666656,
            "velocity": 0.5984251968503937,
            "duration": 0.08620683333333545
          },
          {
            "name": "D#5",
            "midi": 75,
            "time": 34.91376749999999,
            "velocity": 0.7007874015748031,
            "duration": 0.08620683333333545
          },
          {
            "name": "C#6",
            "midi": 85,
            "time": 34.99997433333333,
            "velocity": 0.6141732283464567,
            "duration": 0.08620683333333545
          },
          {
            "name": "F#4",
            "midi": 66,
            "time": 35.043077749999995,
            "velocity": 0.7244094488188977,
            "duration": 0.12931025000000318
          },
          {
            "name": "C#4",
            "midi": 61,
            "time": 35.043077749999995,
            "velocity": 0.6062992125984252,
            "duration": 0.12931025000000318
          },
          {
            "name": "G#3",
            "midi": 56,
            "time": 35.043077749999995,
            "velocity": 0.6062992125984252,
            "duration": 0.12931025000000318
          },
          {
            "name": "F#5",
            "midi": 78,
            "time": 35.08618116666666,
            "velocity": 0.5905511811023622,
            "duration": 0.08620683333333545
          },
          {
            "name": "D#5",
            "midi": 75,
            "time": 35.172388,
            "velocity": 0.7007874015748031,
            "duration": 0.08620683333333545
          },
          {
            "name": "G#3",
            "midi": 56,
            "time": 35.172388,
            "velocity": 0.6535433070866141,
            "duration": 1.0344820000000254
          },
          {
            "name": "F#4",
            "midi": 66,
            "time": 35.172388,
            "velocity": 0.7874015748031497,
            "duration": 1.0344820000000254
          },
          {
            "name": "C#4",
            "midi": 61,
            "time": 35.172388,
            "velocity": 0.6535433070866141,
            "duration": 1.0344820000000254
          },
          {
            "name": "F#5",
            "midi": 78,
            "time": 35.25859483333333,
            "velocity": 0.6377952755905512,
            "duration": 0.08620683333333545
          },
          {
            "name": "D#6",
            "midi": 87,
            "time": 35.34480166666667,
            "velocity": 0.6771653543307087,
            "duration": 0.08620683333333545
          },
          {
            "name": "C#6",
            "midi": 85,
            "time": 35.431008500000004,
            "velocity": 0.6692913385826772,
            "duration": 0.08620683333333545
          },
          {
            "name": "F#5",
            "midi": 78,
            "time": 35.51721533333334,
            "velocity": 0.6141732283464567,
            "duration": 0.08620683333333545
          },
          {
            "name": "D#5",
            "midi": 75,
            "time": 35.603422166666675,
            "velocity": 0.6614173228346457,
            "duration": 0.08620683333333545
          },
          {
            "name": "C#6",
            "midi": 85,
            "time": 35.68962900000001,
            "velocity": 0.6377952755905512,
            "duration": 0.08620683333333545
          },
          {
            "name": "F#5",
            "midi": 78,
            "time": 35.775835833333346,
            "velocity": 0.5984251968503937,
            "duration": 0.08620683333333545
          },
          {
            "name": "D#5",
            "midi": 75,
            "time": 35.86204266666668,
            "velocity": 0.5590551181102362,
            "duration": 0.08620683333333545
          },
          {
            "name": "C#5",
            "midi": 73,
            "time": 35.94824950000002,
            "velocity": 0.6141732283464567,
            "duration": 0.08620683333333545
          },
          {
            "name": "F#5",
            "midi": 78,
            "time": 36.03445633333335,
            "velocity": 0.5590551181102362,
            "duration": 0.08620683333333545
          },
          {
            "name": "D#5",
            "midi": 75,
            "time": 36.12066316666669,
            "velocity": 0.5905511811023622,
            "duration": 0.08620683333333545
          },
          {
            "name": "C#5",
            "midi": 73,
            "time": 36.20687000000002,
            "velocity": 0.5826771653543307,
            "duration": 0.08620683333333545
          },
          {
            "name": "F#4",
            "midi": 66,
            "time": 36.29307683333336,
            "velocity": 0.5433070866141733,
            "duration": 0.08620683333333545
          },
          {
            "name": "D#5",
            "midi": 75,
            "time": 36.379283666666694,
            "velocity": 0.5669291338582677,
            "duration": 0.08620683333333545
          },
          {
            "name": "C#5",
            "midi": 73,
            "time": 36.46549050000003,
            "velocity": 0.5590551181102362,
            "duration": 0.08620683333333545
          },
          {
            "name": "F#4",
            "midi": 66,
            "time": 36.551697333333365,
            "velocity": 0.5196850393700787,
            "duration": 0.08620683333333545
          },
          {
            "name": "D#4",
            "midi": 63,
            "time": 36.6379041666667,
            "velocity": 0.5433070866141733,
            "duration": 0.08620683333333545
          },
          {
            "name": "C#5",
            "midi": 73,
            "time": 36.724111000000036,
            "velocity": 0.5275590551181102,
            "duration": 0.08620683333333545
          },
          {
            "name": "F#4",
            "midi": 66,
            "time": 36.81031783333337,
            "velocity": 0.48031496062992124,
            "duration": 0.08620683333333545
          },
          {
            "name": "D#4",
            "midi": 63,
            "time": 36.89652466666671,
            "velocity": 0.5118110236220472,
            "duration": 0.08620683333333545
          },
          {
            "name": "C#4",
            "midi": 61,
            "time": 36.98273150000004,
            "velocity": 0.5039370078740157,
            "duration": 0.08620683333333545
          },
          {
            "name": "F#4",
            "midi": 66,
            "time": 37.06893833333338,
            "velocity": 0.4645669291338583,
            "duration": 0.08620683333333545
          },
          {
            "name": "D#4",
            "midi": 63,
            "time": 37.15514516666671,
            "velocity": 0.4881889763779528,
            "duration": 0.08620683333333545
          },
          {
            "name": "G#3",
            "midi": 56,
            "time": 37.24135200000005,
            "velocity": 0.4094488188976378,
            "duration": 0.08620683333333545
          },
          {
            "name": "G#1",
            "midi": 32,
            "time": 37.24135200000005,
            "velocity": 0.4094488188976378,
            "duration": 1.0344820000000254
          },
          {
            "name": "G#2",
            "midi": 44,
            "time": 37.24135200000005,
            "velocity": 0.4881889763779528,
            "duration": 1.0344820000000254
          },
          {
            "name": "D#4",
            "midi": 63,
            "time": 37.327558833333384,
            "velocity": 0.4251968503937008,
            "duration": 0.08620683333333545
          },
          {
            "name": "F#4",
            "midi": 66,
            "time": 37.41376566666672,
            "velocity": 0.4251968503937008,
            "duration": 0.08620683333333545
          },
          {
            "name": "G#4",
            "midi": 68,
            "time": 37.499972500000055,
            "velocity": 0.4409448818897638,
            "duration": 0.08620683333333545
          },
          {
            "name": "D#4",
            "midi": 63,
            "time": 37.58617933333339,
            "velocity": 0.4409448818897638,
            "duration": 0.08620683333333545
          },
          {
            "name": "F#4",
            "midi": 66,
            "time": 37.672386166666726,
            "velocity": 0.4251968503937008,
            "duration": 0.08620683333333545
          },
          {
            "name": "G#4",
            "midi": 68,
            "time": 37.75859300000006,
            "velocity": 0.4566929133858268,
            "duration": 0.08620683333333545
          },
          {
            "name": "D#5",
            "midi": 75,
            "time": 37.8447998333334,
            "velocity": 0.4566929133858268,
            "duration": 0.08620683333333545
          },
          {
            "name": "F#4",
            "midi": 66,
            "time": 37.93100666666673,
            "velocity": 0.4409448818897638,
            "duration": 0.08620683333333545
          },
          {
            "name": "G#4",
            "midi": 68,
            "time": 38.01721350000007,
            "velocity": 0.47244094488188976,
            "duration": 0.08620683333333545
          },
          {
            "name": "D#5",
            "midi": 75,
            "time": 38.1034203333334,
            "velocity": 0.47244094488188976,
            "duration": 0.08620683333333545
          },
          {
            "name": "F#5",
            "midi": 78,
            "time": 38.18962716666674,
            "velocity": 0.4566929133858268,
            "duration": 0.08620683333333545
          },
          {
            "name": "G#4",
            "midi": 68,
            "time": 38.275834000000074,
            "velocity": 0.4881889763779528,
            "duration": 0.08620683333333545
          },
          {
            "name": "D#5",
            "midi": 75,
            "time": 38.36204083333341,
            "velocity": 0.4566929133858268,
            "duration": 0.08620683333333545
          },
          {
            "name": "F#5",
            "midi": 78,
            "time": 38.448247666666745,
            "velocity": 0.4881889763779528,
            "duration": 0.08620683333333545
          },
          {
            "name": "G#5",
            "midi": 80,
            "time": 38.53445450000008,
            "velocity": 0.4881889763779528,
            "duration": 0.08620683333333545
          },
          {
            "name": "D#5",
            "midi": 75,
            "time": 38.620661333333416,
            "velocity": 0.4251968503937008,
            "duration": 0.08620683333333545
          },
          {
            "name": "F#5",
            "midi": 78,
            "time": 38.70686816666675,
            "velocity": 0.4566929133858268,
            "duration": 0.08620683333333545
          },
          {
            "name": "G#5",
            "midi": 80,
            "time": 38.79307500000009,
            "velocity": 0.4881889763779528,
            "duration": 0.08620683333333545
          },
          {
            "name": "G#3",
            "midi": 56,
            "time": 38.79307500000009,
            "velocity": 0.4094488188976378,
            "duration": 0.38793075000000954
          },
          {
            "name": "F#4",
            "midi": 66,
            "time": 38.79307500000009,
            "velocity": 0.4094488188976378,
            "duration": 0.38793075000000954
          },
          {
            "name": "C4",
            "midi": 60,
            "time": 38.79307500000009,
            "velocity": 0.4094488188976378,
            "duration": 0.38793075000000954
          },
          {
            "name": "G#4",
            "midi": 68,
            "time": 38.79307500000009,
            "velocity": 0.4881889763779528,
            "duration": 0.38793075000000954
          },
          {
            "name": "D#6",
            "midi": 87,
            "time": 38.87928183333342,
            "velocity": 0.5118110236220472,
            "duration": 0.08620683333333545
          },
          {
            "name": "F#5",
            "midi": 78,
            "time": 38.96548866666676,
            "velocity": 0.47244094488188976,
            "duration": 0.08620683333333545
          },
          {
            "name": "G#5",
            "midi": 80,
            "time": 39.05169550000009,
            "velocity": 0.4881889763779528,
            "duration": 0.08620683333333545
          },
          {
            "name": "F#6",
            "midi": 90,
            "time": 39.13790233333343,
            "velocity": 0.4566929133858268,
            "duration": 0.08620683333333545
          },
          {
            "name": "G#4",
            "midi": 68,
            "time": 39.1810057500001,
            "velocity": 0.44881889763779526,
            "duration": 0.12931025000000318
          },
          {
            "name": "F#4",
            "midi": 66,
            "time": 39.1810057500001,
            "velocity": 0.3779527559055118,
            "duration": 0.12931025000000318
          },
          {
            "name": "C4",
            "midi": 60,
            "time": 39.1810057500001,
            "velocity": 0.3779527559055118,
            "duration": 0.12931025000000318
          },
          {
            "name": "G#3",
            "midi": 56,
            "time": 39.1810057500001,
            "velocity": 0.3779527559055118,
            "duration": 0.12931025000000318
          },
          {
            "name": "D#6",
            "midi": 87,
            "time": 39.224109166666764,
            "velocity": 0.4645669291338583,
            "duration": 0.08620683333333545
          },
          {
            "name": "G#5",
            "midi": 80,
            "time": 39.3103160000001,
            "velocity": 0.4645669291338583,
            "duration": 0.08620683333333545
          },
          {
            "name": "G#4",
            "midi": 68,
            "time": 39.3103160000001,
            "velocity": 0.4881889763779528,
            "duration": 0.8620683333333545
          },
          {
            "name": "F#4",
            "midi": 66,
            "time": 39.3103160000001,
            "velocity": 0.4094488188976378,
            "duration": 1.0344820000000254
          },
          {
            "name": "C4",
            "midi": 60,
            "time": 39.3103160000001,
            "velocity": 0.4094488188976378,
            "duration": 1.0344820000000254
          },
          {
            "name": "G#3",
            "midi": 56,
            "time": 39.3103160000001,
            "velocity": 0.4094488188976378,
            "duration": 1.0344820000000254
          },
          {
            "name": "F#5",
            "midi": 78,
            "time": 39.396522833333435,
            "velocity": 0.4645669291338583,
            "duration": 0.08620683333333545
          },
          {
            "name": "D#6",
            "midi": 87,
            "time": 39.48272966666677,
            "velocity": 0.4566929133858268,
            "duration": 0.08620683333333545
          },
          {
            "name": "G#5",
            "midi": 80,
            "time": 39.568936500000106,
            "velocity": 0.4566929133858268,
            "duration": 0.08620683333333545
          },
          {
            "name": "F#5",
            "midi": 78,
            "time": 39.65514333333344,
            "velocity": 0.44881889763779526,
            "duration": 0.08620683333333545
          },
          {
            "name": "D#5",
            "midi": 75,
            "time": 39.74135016666678,
            "velocity": 0.4409448818897638,
            "duration": 0.08620683333333545
          },
          {
            "name": "G#5",
            "midi": 80,
            "time": 39.82755700000011,
            "velocity": 0.4409448818897638,
            "duration": 0.08620683333333545
          },
          {
            "name": "F#5",
            "midi": 78,
            "time": 39.91376383333345,
            "velocity": 0.4409448818897638,
            "duration": 0.08620683333333545
          },
          {
            "name": "D#5",
            "midi": 75,
            "time": 39.99997066666678,
            "velocity": 0.4251968503937008,
            "duration": 0.08620683333333545
          },
          {
            "name": "G#4",
            "midi": 68,
            "time": 40.08617750000012,
            "velocity": 0.4251968503937008,
            "duration": 0.25862050000000636
          },
          {
            "name": "F#5",
            "midi": 78,
            "time": 40.172384333333454,
            "velocity": 0.4094488188976378,
            "duration": 0.08620683333333545
          },
          {
            "name": "D#5",
            "midi": 75,
            "time": 40.25859116666679,
            "velocity": 0.4094488188976378,
            "duration": 0.08620683333333545
          },
          {
            "name": "G#4",
            "midi": 68,
            "time": 40.344798000000125,
            "velocity": 0.4094488188976378,
            "duration": 0.08620683333333545
          },
          {
            "name": "F#4",
            "midi": 66,
            "time": 40.43100483333346,
            "velocity": 0.4015748031496063,
            "duration": 0.08620683333333545
          },
          {
            "name": "D#5",
            "midi": 75,
            "time": 40.517211666666796,
            "velocity": 0.4015748031496063,
            "duration": 0.08620683333333545
          },
          {
            "name": "G#4",
            "midi": 68,
            "time": 40.60341850000013,
            "velocity": 0.3937007874015748,
            "duration": 0.08620683333333545
          },
          {
            "name": "F#4",
            "midi": 66,
            "time": 40.68962533333347,
            "velocity": 0.3858267716535433,
            "duration": 0.08620683333333545
          },
          {
            "name": "D#4",
            "midi": 63,
            "time": 40.7758321666668,
            "velocity": 0.3858267716535433,
            "duration": 0.08620683333333545
          },
          {
            "name": "G#4",
            "midi": 68,
            "time": 40.86203900000014,
            "velocity": 0.3779527559055118,
            "duration": 0.08620683333333545
          },
          {
            "name": "F#4",
            "midi": 66,
            "time": 40.94824583333347,
            "velocity": 0.3779527559055118,
            "duration": 0.08620683333333545
          },
          {
            "name": "D#4",
            "midi": 63,
            "time": 41.03445266666681,
            "velocity": 0.3779527559055118,
            "duration": 0.08620683333333545
          },
          {
            "name": "G#3",
            "midi": 56,
            "time": 41.120659500000144,
            "velocity": 0.36220472440944884,
            "duration": 0.08620683333333545
          },
          {
            "name": "F#4",
            "midi": 66,
            "time": 41.20686633333348,
            "velocity": 0.36220472440944884,
            "duration": 0.08620683333333545
          },
          {
            "name": "D#4",
            "midi": 63,
            "time": 41.293073166666815,
            "velocity": 0.3464566929133858,
            "duration": 0.08620683333333545
          },
          {
            "name": "C#4",
            "midi": 61,
            "time": 41.37928000000015,
            "velocity": 0.5118110236220472,
            "duration": 0.08620683333333545
          },
          {
            "name": "C#2",
            "midi": 37,
            "time": 41.37928000000015,
            "velocity": 0.49606299212598426,
            "duration": 0.12931025000000318
          },
          {
            "name": "C#5",
            "midi": 73,
            "time": 41.465486833333486,
            "velocity": 0.4645669291338583,
            "duration": 0.08620683333333545
          },
          {
            "name": "G#4",
            "midi": 68,
            "time": 41.55169366666682,
            "velocity": 0.4330708661417323,
            "duration": 0.08620683333333545
          },
          {
            "name": "C#5",
            "midi": 73,
            "time": 41.63790050000016,
            "velocity": 0.5118110236220472,
            "duration": 0.08620683333333545
          },
          {
            "name": "F4",
            "midi": 65,
            "time": 41.72410733333349,
            "velocity": 0.4645669291338583,
            "duration": 0.08620683333333545
          },
          {
            "name": "G#5",
            "midi": 80,
            "time": 41.81031416666683,
            "velocity": 0.4566929133858268,
            "duration": 0.08620683333333545
          },
          {
            "name": "C#5",
            "midi": 73,
            "time": 41.89652100000016,
            "velocity": 0.5511811023622047,
            "duration": 0.08620683333333545
          },
          {
            "name": "F4",
            "midi": 65,
            "time": 41.89652100000016,
            "velocity": 0.5511811023622047,
            "duration": 1.0344820000000254
          },
          {
            "name": "G#3",
            "midi": 56,
            "time": 41.89652100000016,
            "velocity": 0.4645669291338583,
            "duration": 1.0344820000000254
          },
          {
            "name": "G#5",
            "midi": 80,
            "time": 41.9827278333335,
            "velocity": 0.5196850393700787,
            "duration": 0.08620683333333545
          },
          {
            "name": "G#4",
            "midi": 68,
            "time": 42.068934666666834,
            "velocity": 0.5196850393700787,
            "duration": 0.08620683333333545
          },
          {
            "name": "C#5",
            "midi": 73,
            "time": 42.15514150000017,
            "velocity": 0.5511811023622047,
            "duration": 0.08620683333333545
          },
          {
            "name": "G#4",
            "midi": 68,
            "time": 42.241348333333505,
            "velocity": 0.5196850393700787,
            "duration": 0.08620683333333545
          },
          {
            "name": "C#5",
            "midi": 73,
            "time": 42.32755516666684,
            "velocity": 0.4881889763779528,
            "duration": 0.08620683333333545
          },
          {
            "name": "C#4",
            "midi": 61,
            "time": 42.413762000000176,
            "velocity": 0.5118110236220472,
            "duration": 0.08620683333333545
          },
          {
            "name": "C#5",
            "midi": 73,
            "time": 42.49996883333351,
            "velocity": 0.49606299212598426,
            "duration": 0.08620683333333545
          },
          {
            "name": "G#4",
            "midi": 68,
            "time": 42.58617566666685,
            "velocity": 0.4566929133858268,
            "duration": 0.08620683333333545
          },
          {
            "name": "C#5",
            "midi": 73,
            "time": 42.67238250000018,
            "velocity": 0.5118110236220472,
            "duration": 0.08620683333333545
          },
          {
            "name": "G#4",
            "midi": 68,
            "time": 42.75858933333352,
            "velocity": 0.49606299212598426,
            "duration": 0.08620683333333545
          },
          {
            "name": "G#5",
            "midi": 80,
            "time": 42.84479616666685,
            "velocity": 0.44881889763779526,
            "duration": 0.08620683333333545
          },
          {
            "name": "C#5",
            "midi": 73,
            "time": 42.93100300000019,
            "velocity": 0.5118110236220472,
            "duration": 0.08620683333333545
          },
          {
            "name": "E4",
            "midi": 64,
            "time": 42.93100300000019,
            "velocity": 0.49606299212598426,
            "duration": 0.38793075000000954
          },
          {
            "name": "G3",
            "midi": 55,
            "time": 42.93100300000019,
            "velocity": 0.41732283464566927,
            "duration": 0.38793075000000954
          },
          {
            "name": "G#5",
            "midi": 80,
            "time": 43.017209833333524,
            "velocity": 0.4645669291338583,
            "duration": 0.08620683333333545
          },
          {
            "name": "G#4",
            "midi": 68,
            "time": 43.10341666666686,
            "velocity": 0.4330708661417323,
            "duration": 0.08620683333333545
          },
          {
            "name": "C#5",
            "midi": 73,
            "time": 43.189623500000195,
            "velocity": 0.5118110236220472,
            "duration": 0.08620683333333545
          },
          {
            "name": "G#4",
            "midi": 68,
            "time": 43.27583033333353,
            "velocity": 0.49606299212598426,
            "duration": 0.08620683333333545
          },
          {
            "name": "F4",
            "midi": 65,
            "time": 43.3189337500002,
            "velocity": 0.49606299212598426,
            "duration": 0.12931025000000318
          },
          {
            "name": "G#3",
            "midi": 56,
            "time": 43.3189337500002,
            "velocity": 0.41732283464566927,
            "duration": 0.12931025000000318
          },
          {
            "name": "C#5",
            "midi": 73,
            "time": 43.362037166666866,
            "velocity": 0.4566929133858268,
            "duration": 0.08620683333333545
          },
          {
            "name": "C#4",
            "midi": 61,
            "time": 43.4482440000002,
            "velocity": 0.5118110236220472,
            "duration": 0.08620683333333545
          },
          {
            "name": "C#3",
            "midi": 49,
            "time": 43.4482440000002,
            "velocity": 0.49606299212598426,
            "duration": 0.12931025000000318
          },
          {
            "name": "C#5",
            "midi": 73,
            "time": 43.53445083333354,
            "velocity": 0.4566929133858268,
            "duration": 0.08620683333333545
          },
          {
            "name": "G#4",
            "midi": 68,
            "time": 43.62065766666687,
            "velocity": 0.4409448818897638,
            "duration": 0.08620683333333545
          },
          {
            "name": "C#5",
            "midi": 73,
            "time": 43.70686450000021,
            "velocity": 0.5118110236220472,
            "duration": 0.08620683333333545
          },
          {
            "name": "C#5",
            "midi": 73,
            "time": 43.79307133333354,
            "velocity": 0.4566929133858268,
            "duration": 0.08620683333333545
          },
          {
            "name": "C#6",
            "midi": 85,
            "time": 43.87927816666688,
            "velocity": 0.4330708661417323,
            "duration": 0.08620683333333545
          },
          {
            "name": "G#5",
            "midi": 80,
            "time": 43.965485000000214,
            "velocity": 0.5590551181102362,
            "duration": 0.08620683333333545
          },
          {
            "name": "F4",
            "midi": 65,
            "time": 43.965485000000214,
            "velocity": 0.5669291338582677,
            "duration": 1.0344820000000254
          },
          {
            "name": "G#3",
            "midi": 56,
            "time": 43.965485000000214,
            "velocity": 0.48031496062992124,
            "duration": 1.0344820000000254
          },
          {
            "name": "C#6",
            "midi": 85,
            "time": 44.05169183333355,
            "velocity": 0.5039370078740157,
            "duration": 0.08620683333333545
          },
          {
            "name": "C#5",
            "midi": 73,
            "time": 44.137898666666885,
            "velocity": 0.4881889763779528,
            "duration": 0.08620683333333545
          },
          {
            "name": "C#5",
            "midi": 73,
            "time": 44.22410550000022,
            "velocity": 0.5590551181102362,
            "duration": 0.08620683333333545
          },
          {
            "name": "G#4",
            "midi": 68,
            "time": 44.310312333333556,
            "velocity": 0.5275590551181102,
            "duration": 0.08620683333333545
          },
          {
            "name": "C#5",
            "midi": 73,
            "time": 44.39651916666689,
            "velocity": 0.4881889763779528,
            "duration": 0.08620683333333545
          },
          {
            "name": "G#4",
            "midi": 68,
            "time": 44.48272600000023,
            "velocity": 0.5118110236220472,
            "duration": 0.08620683333333545
          },
          {
            "name": "G#5",
            "midi": 80,
            "time": 44.56893283333356,
            "velocity": 0.4645669291338583,
            "duration": 0.08620683333333545
          },
          {
            "name": "C#5",
            "midi": 73,
            "time": 44.6551396666669,
            "velocity": 0.4251968503937008,
            "duration": 0.08620683333333545
          },
          {
            "name": "G#5",
            "midi": 80,
            "time": 44.74134650000023,
            "velocity": 0.5118110236220472,
            "duration": 0.08620683333333545
          },
          {
            "name": "G#5",
            "midi": 80,
            "time": 44.82755333333357,
            "velocity": 0.4566929133858268,
            "duration": 0.08620683333333545
          },
          {
            "name": "G#6",
            "midi": 92,
            "time": 44.913760166666904,
            "velocity": 0.4645669291338583,
            "duration": 0.08620683333333545
          },
          {
            "name": "C#6",
            "midi": 85,
            "time": 44.99996700000024,
            "velocity": 0.5118110236220472,
            "duration": 0.08620683333333545
          },
          {
            "name": "E4",
            "midi": 64,
            "time": 44.99996700000024,
            "velocity": 0.5905511811023622,
            "duration": 0.38793075000000954
          },
          {
            "name": "G3",
            "midi": 55,
            "time": 44.99996700000024,
            "velocity": 0.49606299212598426,
            "duration": 0.38793075000000954
          },
          {
            "name": "G#6",
            "midi": 92,
            "time": 45.086173833333575,
            "velocity": 0.44881889763779526,
            "duration": 0.08620683333333545
          },
          {
            "name": "G#5",
            "midi": 80,
            "time": 45.17238066666691,
            "velocity": 0.47244094488188976,
            "duration": 0.08620683333333545
          },
          {
            "name": "G#5",
            "midi": 80,
            "time": 45.258587500000246,
            "velocity": 0.5118110236220472,
            "duration": 0.08620683333333545
          },
          {
            "name": "C#5",
            "midi": 73,
            "time": 45.34479433333358,
            "velocity": 0.49606299212598426,
            "duration": 0.08620683333333545
          },
          {
            "name": "G#3",
            "midi": 56,
            "time": 45.38789775000025,
            "velocity": 0.44881889763779526,
            "duration": 0.12931025000000318
          },
          {
            "name": "F4",
            "midi": 65,
            "time": 45.38789775000025,
            "velocity": 0.5433070866141733,
            "duration": 0.12931025000000318
          },
          {
            "name": "G#5",
            "midi": 80,
            "time": 45.43100116666692,
            "velocity": 0.4409448818897638,
            "duration": 0.08620683333333545
          },
          {
            "name": "C#5",
            "midi": 73,
            "time": 45.51720800000025,
            "velocity": 0.5118110236220472,
            "duration": 0.08620683333333545
          },
          {
            "name": "F3",
            "midi": 53,
            "time": 45.51720800000025,
            "velocity": 0.6062992125984252,
            "duration": 0.12931025000000318
          },
          {
            "name": "D#5",
            "midi": 75,
            "time": 45.60341483333359,
            "velocity": 0.4881889763779528,
            "duration": 0.08620683333333545
          },
          {
            "name": "C#5",
            "midi": 73,
            "time": 45.68962166666692,
            "velocity": 0.44881889763779526,
            "duration": 0.08620683333333545
          },
          {
            "name": "D#6",
            "midi": 87,
            "time": 45.77582850000026,
            "velocity": 0.5039370078740157,
            "duration": 0.08620683333333545
          },
          {
            "name": "F4",
            "midi": 65,
            "time": 45.77582850000026,
            "velocity": 0.49606299212598426,
            "duration": 0.25862050000000636
          },
          {
            "name": "G#3",
            "midi": 56,
            "time": 45.77582850000026,
            "velocity": 0.41732283464566927,
            "duration": 0.25862050000000636
          },
          {
            "name": "C#4",
            "midi": 61,
            "time": 45.77582850000026,
            "velocity": 0.41732283464566927,
            "duration": 0.25862050000000636
          },
          {
            "name": "C#6",
            "midi": 85,
            "time": 45.862035333333594,
            "velocity": 0.48031496062992124,
            "duration": 0.08620683333333545
          },
          {
            "name": "D#7",
            "midi": 99,
            "time": 45.94824216666693,
            "velocity": 0.48031496062992124,
            "duration": 0.08620683333333545
          },
          {
            "name": "C#7",
            "midi": 97,
            "time": 46.034449000000265,
            "velocity": 0.5748031496062992,
            "duration": 0.08620683333333545
          },
          {
            "name": "A3",
            "midi": 57,
            "time": 46.034449000000265,
            "velocity": 0.4645669291338583,
            "duration": 0.25862050000000636
          },
          {
            "name": "C#4",
            "midi": 61,
            "time": 46.034449000000265,
            "velocity": 0.4645669291338583,
            "duration": 0.25862050000000636
          },
          {
            "name": "F#4",
            "midi": 66,
            "time": 46.034449000000265,
            "velocity": 0.5511811023622047,
            "duration": 0.25862050000000636
          },
          {
            "name": "D#7",
            "midi": 99,
            "time": 46.1206558333336,
            "velocity": 0.5118110236220472,
            "duration": 0.08620683333333545
          },
          {
            "name": "C#7",
            "midi": 97,
            "time": 46.206862666666936,
            "velocity": 0.5196850393700787,
            "duration": 0.08620683333333545
          },
          {
            "name": "C#6",
            "midi": 85,
            "time": 46.29306950000027,
            "velocity": 0.6299212598425197,
            "duration": 0.08620683333333545
          },
          {
            "name": "A#3",
            "midi": 58,
            "time": 46.29306950000027,
            "velocity": 0.4881889763779528,
            "duration": 0.25862050000000636
          },
          {
            "name": "C#4",
            "midi": 61,
            "time": 46.29306950000027,
            "velocity": 0.4881889763779528,
            "duration": 0.25862050000000636
          },
          {
            "name": "G4",
            "midi": 67,
            "time": 46.29306950000027,
            "velocity": 0.5905511811023622,
            "duration": 0.25862050000000636
          },
          {
            "name": "D#6",
            "midi": 87,
            "time": 46.37927633333361,
            "velocity": 0.5905511811023622,
            "duration": 0.08620683333333545
          },
          {
            "name": "C#6",
            "midi": 85,
            "time": 46.46548316666694,
            "velocity": 0.5511811023622047,
            "duration": 0.08620683333333545
          },
          {
            "name": "C#5",
            "midi": 73,
            "time": 46.55169000000028,
            "velocity": 0.6377952755905512,
            "duration": 0.08620683333333545
          },
          {
            "name": "B3",
            "midi": 59,
            "time": 46.55169000000028,
            "velocity": 0.5511811023622047,
            "duration": 0.5172410000000127
          },
          {
            "name": "C#4",
            "midi": 61,
            "time": 46.55169000000028,
            "velocity": 0.5511811023622047,
            "duration": 0.5172410000000127
          },
          {
            "name": "G#4",
            "midi": 68,
            "time": 46.55169000000028,
            "velocity": 0.6614173228346457,
            "duration": 0.5172410000000127
          },
          {
            "name": "D#5",
            "midi": 75,
            "time": 46.63789683333361,
            "velocity": 0.6062992125984252,
            "duration": 0.08620683333333545
          },
          {
            "name": "C#5",
            "midi": 73,
            "time": 46.72410366666695,
            "velocity": 0.5748031496062992,
            "duration": 0.08620683333333545
          },
          {
            "name": "D#6",
            "midi": 87,
            "time": 46.810310500000284,
            "velocity": 0.6141732283464567,
            "duration": 0.08620683333333545
          },
          {
            "name": "C#6",
            "midi": 85,
            "time": 46.89651733333362,
            "velocity": 0.5511811023622047,
            "duration": 0.08620683333333545
          },
          {
            "name": "D#7",
            "midi": 99,
            "time": 46.982724166666955,
            "velocity": 0.5826771653543307,
            "duration": 0.08620683333333545
          },
          {
            "name": "C#7",
            "midi": 97,
            "time": 47.06893100000029,
            "velocity": 0.5748031496062992,
            "duration": 0.08620683333333545
          },
          {
            "name": "A#3",
            "midi": 58,
            "time": 47.06893100000029,
            "velocity": 0.5039370078740157,
            "duration": 0.25862050000000636
          },
          {
            "name": "C#4",
            "midi": 61,
            "time": 47.06893100000029,
            "velocity": 0.5039370078740157,
            "duration": 0.25862050000000636
          },
          {
            "name": "G4",
            "midi": 67,
            "time": 47.06893100000029,
            "velocity": 0.6062992125984252,
            "duration": 0.25862050000000636
          },
          {
            "name": "D#7",
            "midi": 99,
            "time": 47.155137833333626,
            "velocity": 0.5511811023622047,
            "duration": 0.08620683333333545
          },
          {
            "name": "C#7",
            "midi": 97,
            "time": 47.24134466666696,
            "velocity": 0.5196850393700787,
            "duration": 0.08620683333333545
          },
          {
            "name": "C#6",
            "midi": 85,
            "time": 47.3275515000003,
            "velocity": 0.5511811023622047,
            "duration": 0.08620683333333545
          },
          {
            "name": "A3",
            "midi": 57,
            "time": 47.3275515000003,
            "velocity": 0.48031496062992124,
            "duration": 0.25862050000000636
          },
          {
            "name": "C#4",
            "midi": 61,
            "time": 47.3275515000003,
            "velocity": 0.48031496062992124,
            "duration": 0.25862050000000636
          },
          {
            "name": "F#4",
            "midi": 66,
            "time": 47.3275515000003,
            "velocity": 0.5669291338582677,
            "duration": 0.25862050000000636
          },
          {
            "name": "D#6",
            "midi": 87,
            "time": 47.41375833333363,
            "velocity": 0.5275590551181102,
            "duration": 0.08620683333333545
          },
          {
            "name": "C#6",
            "midi": 85,
            "time": 47.49996516666697,
            "velocity": 0.5196850393700787,
            "duration": 0.08620683333333545
          },
          {
            "name": "C#7",
            "midi": 97,
            "time": 47.5861720000003,
            "velocity": 0.5118110236220472,
            "duration": 0.08620683333333545
          },
          {
            "name": "G#3",
            "midi": 56,
            "time": 47.5861720000003,
            "velocity": 0.44881889763779526,
            "duration": 0.12931025000000318
          },
          {
            "name": "C#4",
            "midi": 61,
            "time": 47.5861720000003,
            "velocity": 0.44881889763779526,
            "duration": 0.12931025000000318
          },
          {
            "name": "F4",
            "midi": 65,
            "time": 47.5861720000003,
            "velocity": 0.5433070866141733,
            "duration": 0.12931025000000318
          },
          {
            "name": "D#7",
            "midi": 99,
            "time": 47.67237883333364,
            "velocity": 0.5118110236220472,
            "duration": 0.08620683333333545
          },
          {
            "name": "C#7",
            "midi": 97,
            "time": 47.758585666666974,
            "velocity": 0.4881889763779528,
            "duration": 0.08620683333333545
          },
          {
            "name": "C#6",
            "midi": 85,
            "time": 47.84479250000031,
            "velocity": 0.5196850393700787,
            "duration": 0.08620683333333545
          },
          {
            "name": "C#3",
            "midi": 49,
            "time": 47.84479250000031,
            "velocity": 0.49606299212598426,
            "duration": 0.12931025000000318
          },
          {
            "name": "D#6",
            "midi": 87,
            "time": 47.930999333333645,
            "velocity": 0.5433070866141733,
            "duration": 0.08620683333333545
          },
          {
            "name": "C#6",
            "midi": 85,
            "time": 48.01720616666698,
            "velocity": 0.5118110236220472,
            "duration": 0.08620683333333545
          },
          {
            "name": "C#7",
            "midi": 97,
            "time": 48.103413000000316,
            "velocity": 0.5590551181102362,
            "duration": 0.08620683333333545
          },
          {
            "name": "B3",
            "midi": 59,
            "time": 48.103413000000316,
            "velocity": 0.4409448818897638,
            "duration": 0.5172410000000127
          },
          {
            "name": "C#4",
            "midi": 61,
            "time": 48.103413000000316,
            "velocity": 0.4409448818897638,
            "duration": 0.5172410000000127
          },
          {
            "name": "F4",
            "midi": 65,
            "time": 48.103413000000316,
            "velocity": 0.4409448818897638,
            "duration": 0.5172410000000127
          },
          {
            "name": "G#4",
            "midi": 68,
            "time": 48.103413000000316,
            "velocity": 0.5196850393700787,
            "duration": 0.25862050000000636
          },
          {
            "name": "D#7",
            "midi": 99,
            "time": 48.18961983333365,
            "velocity": 0.5354330708661418,
            "duration": 0.08620683333333545
          },
          {
            "name": "C#7",
            "midi": 97,
            "time": 48.27582666666699,
            "velocity": 0.5669291338582677,
            "duration": 0.08620683333333545
          },
          {
            "name": "C#6",
            "midi": 85,
            "time": 48.36203350000032,
            "velocity": 0.5905511811023622,
            "duration": 0.08620683333333545
          },
          {
            "name": "A#4",
            "midi": 70,
            "time": 48.36203350000032,
            "velocity": 0.5590551181102362,
            "duration": 0.25862050000000636
          },
          {
            "name": "D#6",
            "midi": 87,
            "time": 48.44824033333366,
            "velocity": 0.5669291338582677,
            "duration": 0.08620683333333545
          },
          {
            "name": "C#6",
            "midi": 85,
            "time": 48.53444716666699,
            "velocity": 0.5354330708661418,
            "duration": 0.08620683333333545
          },
          {
            "name": "C#7",
            "midi": 97,
            "time": 48.62065400000033,
            "velocity": 0.6220472440944882,
            "duration": 0.08620683333333545
          },
          {
            "name": "B3",
            "midi": 59,
            "time": 48.62065400000033,
            "velocity": 0.5039370078740157,
            "duration": 1.0344820000000254
          },
          {
            "name": "C#4",
            "midi": 61,
            "time": 48.62065400000033,
            "velocity": 0.5039370078740157,
            "duration": 1.0344820000000254
          },
          {
            "name": "F4",
            "midi": 65,
            "time": 48.62065400000033,
            "velocity": 0.5039370078740157,
            "duration": 1.0344820000000254
          },
          {
            "name": "B4",
            "midi": 71,
            "time": 48.62065400000033,
            "velocity": 0.6062992125984252,
            "duration": 0.5172410000000127
          },
          {
            "name": "D#7",
            "midi": 99,
            "time": 48.706860833333664,
            "velocity": 0.5905511811023622,
            "duration": 0.08620683333333545
          },
          {
            "name": "C#7",
            "midi": 97,
            "time": 48.793067666667,
            "velocity": 0.5511811023622047,
            "duration": 0.08620683333333545
          },
          {
            "name": "C#6",
            "midi": 85,
            "time": 48.879274500000335,
            "velocity": 0.5826771653543307,
            "duration": 0.08620683333333545
          },
          {
            "name": "D#6",
            "midi": 87,
            "time": 48.96548133333367,
            "velocity": 0.5433070866141733,
            "duration": 0.08620683333333545
          },
          {
            "name": "C#6",
            "midi": 85,
            "time": 49.051688166667006,
            "velocity": 0.5354330708661418,
            "duration": 0.08620683333333545
          },
          {
            "name": "C#7",
            "midi": 97,
            "time": 49.13789500000034,
            "velocity": 0.5590551181102362,
            "duration": 0.08620683333333545
          },
          {
            "name": "A#4",
            "midi": 70,
            "time": 49.13789500000034,
            "velocity": 0.5669291338582677,
            "duration": 0.25862050000000636
          },
          {
            "name": "D#7",
            "midi": 99,
            "time": 49.22410183333368,
            "velocity": 0.5275590551181102,
            "duration": 0.08620683333333545
          },
          {
            "name": "C#7",
            "midi": 97,
            "time": 49.31030866666701,
            "velocity": 0.5039370078740157,
            "duration": 0.08620683333333545
          },
          {
            "name": "C#6",
            "midi": 85,
            "time": 49.39651550000035,
            "velocity": 0.5275590551181102,
            "duration": 0.08620683333333545
          },
          {
            "name": "G#4",
            "midi": 68,
            "time": 49.39651550000035,
            "velocity": 0.5590551181102362,
            "duration": 0.25862050000000636
          },
          {
            "name": "D#6",
            "midi": 87,
            "time": 49.48272233333368,
            "velocity": 0.5196850393700787,
            "duration": 0.08620683333333545
          },
          {
            "name": "C#6",
            "midi": 85,
            "time": 49.56892916666702,
            "velocity": 0.5118110236220472,
            "duration": 0.08620683333333545
          },
          {
            "name": "F#6",
            "midi": 90,
            "time": 49.65621358541702,
            "velocity": 0.7559055118110236,
            "duration": 0.08620683333333545
          },
          {
            "name": "F#3",
            "midi": 54,
            "time": 49.65621358541702,
            "velocity": 0.5748031496062992,
            "duration": 0.09698268750000238
          },
          {
            "name": "F#4",
            "midi": 66,
            "time": 49.65621358541702,
            "velocity": 0.6850393700787402,
            "duration": 0.09698268750000238
          },
          {
            "name": "C#4",
            "midi": 61,
            "time": 49.65621358541702,
            "velocity": 0.5748031496062992,
            "duration": 0.09698268750000238
          },
          {
            "name": "A#3",
            "midi": 58,
            "time": 49.65621358541702,
            "velocity": 0.5748031496062992,
            "duration": 0.09698268750000238
          },
          {
            "name": "A#6",
            "midi": 94,
            "time": 49.74134283333369,
            "velocity": 0.5511811023622047,
            "duration": 0.08620683333333545
          },
          {
            "name": "C#6",
            "midi": 85,
            "time": 49.827549666667025,
            "velocity": 0.5511811023622047,
            "duration": 0.08620683333333545
          },
          {
            "name": "F#6",
            "midi": 90,
            "time": 49.91375650000036,
            "velocity": 0.7244094488188977,
            "duration": 0.08620683333333545
          },
          {
            "name": "D#4",
            "midi": 63,
            "time": 49.91375650000036,
            "velocity": 0.5511811023622047,
            "duration": 0.09698268750000238
          },
          {
            "name": "B3",
            "midi": 59,
            "time": 49.91375650000036,
            "velocity": 0.5511811023622047,
            "duration": 0.09698268750000238
          },
          {
            "name": "F#3",
            "midi": 54,
            "time": 49.91375650000036,
            "velocity": 0.5511811023622047,
            "duration": 0.09698268750000238
          },
          {
            "name": "F#4",
            "midi": 66,
            "time": 49.91375650000036,
            "velocity": 0.6535433070866141,
            "duration": 0.09698268750000238
          },
          {
            "name": "D#6",
            "midi": 87,
            "time": 49.999963333333696,
            "velocity": 0.5826771653543307,
            "duration": 0.08620683333333545
          },
          {
            "name": "F#6",
            "midi": 90,
            "time": 50.08617016666703,
            "velocity": 0.5511811023622047,
            "duration": 0.08620683333333545
          },
          {
            "name": "C#6",
            "midi": 85,
            "time": 50.17237700000037,
            "velocity": 0.7637795275590551,
            "duration": 0.08620683333333545
          },
          {
            "name": "C#4",
            "midi": 61,
            "time": 50.17237700000037,
            "velocity": 0.5748031496062992,
            "duration": 0.09698268750000238
          },
          {
            "name": "F#4",
            "midi": 66,
            "time": 50.17237700000037,
            "velocity": 0.6850393700787402,
            "duration": 0.09698268750000238
          },
          {
            "name": "A#3",
            "midi": 58,
            "time": 50.17237700000037,
            "velocity": 0.5748031496062992,
            "duration": 0.09698268750000238
          },
          {
            "name": "F#3",
            "midi": 54,
            "time": 50.17237700000037,
            "velocity": 0.5748031496062992,
            "duration": 0.09698268750000238
          },
          {
            "name": "F#6",
            "midi": 90,
            "time": 50.2585838333337,
            "velocity": 0.5826771653543307,
            "duration": 0.08620683333333545
          },
          {
            "name": "A#5",
            "midi": 82,
            "time": 50.34479066666704,
            "velocity": 0.5590551181102362,
            "duration": 0.08620683333333545
          },
          {
            "name": "C#6",
            "midi": 85,
            "time": 50.43099750000037,
            "velocity": 0.6614173228346457,
            "duration": 0.08620683333333545
          },
          {
            "name": "F#5",
            "midi": 78,
            "time": 50.51720433333371,
            "velocity": 0.5748031496062992,
            "duration": 0.08620683333333545
          },
          {
            "name": "A#5",
            "midi": 82,
            "time": 50.603411166667044,
            "velocity": 0.5511811023622047,
            "duration": 0.08620683333333545
          },
          {
            "name": "F#5",
            "midi": 78,
            "time": 50.68961800000038,
            "velocity": 0.5826771653543307,
            "duration": 0.08620683333333545
          },
          {
            "name": "F#2",
            "midi": 42,
            "time": 50.68961800000038,
            "velocity": 0.3700787401574803,
            "duration": 0.09698268750000238
          },
          {
            "name": "F#3",
            "midi": 54,
            "time": 50.68961800000038,
            "velocity": 0.4409448818897638,
            "duration": 0.09698268750000238
          },
          {
            "name": "A#5",
            "midi": 82,
            "time": 50.775824833333715,
            "velocity": 0.5433070866141733,
            "duration": 0.08620683333333545
          },
          {
            "name": "C#5",
            "midi": 73,
            "time": 50.86203166666705,
            "velocity": 0.5196850393700787,
            "duration": 0.08620683333333545
          },
          {
            "name": "F#5",
            "midi": 78,
            "time": 50.948238500000386,
            "velocity": 0.5433070866141733,
            "duration": 0.08620683333333545
          },
          {
            "name": "F#4",
            "midi": 66,
            "time": 50.948238500000386,
            "velocity": 0.4015748031496063,
            "duration": 0.09698268750000238
          },
          {
            "name": "D#4",
            "midi": 63,
            "time": 50.948238500000386,
            "velocity": 0.33070866141732286,
            "duration": 0.09698268750000238
          },
          {
            "name": "B3",
            "midi": 59,
            "time": 50.948238500000386,
            "velocity": 0.33070866141732286,
            "duration": 0.09698268750000238
          },
          {
            "name": "D#5",
            "midi": 75,
            "time": 51.03444533333372,
            "velocity": 0.5196850393700787,
            "duration": 0.08620683333333545
          },
          {
            "name": "F#5",
            "midi": 78,
            "time": 51.12065216666706,
            "velocity": 0.49606299212598426,
            "duration": 0.08620683333333545
          },
          {
            "name": "C#5",
            "midi": 73,
            "time": 51.20685900000039,
            "velocity": 0.5826771653543307,
            "duration": 0.08620683333333545
          },
          {
            "name": "F#4",
            "midi": 66,
            "time": 51.20685900000039,
            "velocity": 0.4409448818897638,
            "duration": 0.09698268750000238
          },
          {
            "name": "C#4",
            "midi": 61,
            "time": 51.20685900000039,
            "velocity": 0.3700787401574803,
            "duration": 0.09698268750000238
          },
          {
            "name": "A#3",
            "midi": 58,
            "time": 51.20685900000039,
            "velocity": 0.3700787401574803,
            "duration": 0.09698268750000238
          },
          {
            "name": "F#5",
            "midi": 78,
            "time": 51.29306583333373,
            "velocity": 0.5354330708661418,
            "duration": 0.08620683333333545
          },
          {
            "name": "A#4",
            "midi": 70,
            "time": 51.37927266666706,
            "velocity": 0.49606299212598426,
            "duration": 0.08620683333333545
          },
          {
            "name": "C#5",
            "midi": 73,
            "time": 51.4654795000004,
            "velocity": 0.5826771653543307,
            "duration": 0.08620683333333545
          },
          {
            "name": "F#4",
            "midi": 66,
            "time": 51.551686333333734,
            "velocity": 0.5039370078740157,
            "duration": 0.08620683333333545
          },
          {
            "name": "A#4",
            "midi": 70,
            "time": 51.63789316666707,
            "velocity": 0.48031496062992124,
            "duration": 0.08620683333333545
          },
          {
            "name": "C#4",
            "midi": 61,
            "time": 51.724100000000405,
            "velocity": 0.5826771653543307,
            "duration": 0.08620683333333545
          },
          {
            "name": "C#2",
            "midi": 37,
            "time": 51.724100000000405,
            "velocity": 0.3779527559055118,
            "duration": 0.09698268750000238
          },
          {
            "name": "C#3",
            "midi": 49,
            "time": 51.724100000000405,
            "velocity": 0.4645669291338583,
            "duration": 0.09698268750000238
          },
          {
            "name": "C#5",
            "midi": 73,
            "time": 51.81030683333374,
            "velocity": 0.5669291338582677,
            "duration": 0.08620683333333545
          },
          {
            "name": "G#4",
            "midi": 68,
            "time": 51.896513666667076,
            "velocity": 0.5275590551181102,
            "duration": 0.08620683333333545
          },
          {
            "name": "C#5",
            "midi": 73,
            "time": 51.98272050000041,
            "velocity": 0.5905511811023622,
            "duration": 0.08620683333333545
          },
          {
            "name": "C#4",
            "midi": 61,
            "time": 51.98272050000041,
            "velocity": 0.3779527559055118,
            "duration": 0.09698268750000238
          },
          {
            "name": "F4",
            "midi": 65,
            "time": 51.98272050000041,
            "velocity": 0.4645669291338583,
            "duration": 0.09698268750000238
          },
          {
            "name": "G#3",
            "midi": 56,
            "time": 51.98272050000041,
            "velocity": 0.3779527559055118,
            "duration": 0.09698268750000238
          },
          {
            "name": "G#4",
            "midi": 68,
            "time": 52.06892733333375,
            "velocity": 0.5196850393700787,
            "duration": 0.08620683333333545
          },
          {
            "name": "G#5",
            "midi": 80,
            "time": 52.15513416666708,
            "velocity": 0.5275590551181102,
            "duration": 0.08620683333333545
          },
          {
            "name": "G#4",
            "midi": 68,
            "time": 52.24134100000042,
            "velocity": 0.5669291338582677,
            "duration": 0.08620683333333545
          },
          {
            "name": "B3",
            "midi": 59,
            "time": 52.24134100000042,
            "velocity": 0.3937007874015748,
            "duration": 0.09698268750000238
          },
          {
            "name": "D#4",
            "midi": 63,
            "time": 52.24134100000042,
            "velocity": 0.47244094488188976,
            "duration": 0.09698268750000238
          },
          {
            "name": "G#3",
            "midi": 56,
            "time": 52.24134100000042,
            "velocity": 0.3937007874015748,
            "duration": 0.09698268750000238
          },
          {
            "name": "G#5",
            "midi": 80,
            "time": 52.32754783333375,
            "velocity": 0.5748031496062992,
            "duration": 0.08620683333333545
          },
          {
            "name": "D#5",
            "midi": 75,
            "time": 52.41375466666709,
            "velocity": 0.5590551181102362,
            "duration": 0.08620683333333545
          },
          {
            "name": "G#5",
            "midi": 80,
            "time": 52.499961500000424,
            "velocity": 0.6141732283464567,
            "duration": 0.08620683333333545
          },
          {
            "name": "G#2",
            "midi": 44,
            "time": 52.499961500000424,
            "velocity": 0.4881889763779528,
            "duration": 0.09698268750000238
          },
          {
            "name": "D#5",
            "midi": 75,
            "time": 52.58616833333376,
            "velocity": 0.5984251968503937,
            "duration": 0.08620683333333545
          },
          {
            "name": "D#6",
            "midi": 87,
            "time": 52.672375166667095,
            "velocity": 0.5669291338582677,
            "duration": 0.08620683333333545
          },
          {
            "name": "D#5",
            "midi": 75,
            "time": 52.75858200000043,
            "velocity": 0.6456692913385826,
            "duration": 0.08620683333333545
          },
          {
            "name": "C#3",
            "midi": 49,
            "time": 52.75858200000043,
            "velocity": 0.5196850393700787,
            "duration": 0.7758615000000191
          },
          {
            "name": "D#6",
            "midi": 87,
            "time": 52.844788833333766,
            "velocity": 0.6062992125984252,
            "duration": 0.08620683333333545
          },
          {
            "name": "G#5",
            "midi": 80,
            "time": 52.9309956666671,
            "velocity": 0.5669291338582677,
            "duration": 0.08620683333333545
          },
          {
            "name": "D#6",
            "midi": 87,
            "time": 53.01720250000044,
            "velocity": 0.6771653543307087,
            "duration": 0.08620683333333545
          },
          {
            "name": "D#4",
            "midi": 63,
            "time": 53.01720250000044,
            "velocity": 0.5511811023622047,
            "duration": 0.25862050000000636
          },
          {
            "name": "B3",
            "midi": 59,
            "time": 53.01720250000044,
            "velocity": 0.4645669291338583,
            "duration": 0.25862050000000636
          },
          {
            "name": "G#3",
            "midi": 56,
            "time": 53.01720250000044,
            "velocity": 0.4645669291338583,
            "duration": 0.25862050000000636
          },
          {
            "name": "G#5",
            "midi": 80,
            "time": 53.10340933333377,
            "velocity": 0.5826771653543307,
            "duration": 0.08620683333333545
          },
          {
            "name": "G#6",
            "midi": 92,
            "time": 53.18961616666711,
            "velocity": 0.5905511811023622,
            "duration": 0.08620683333333545
          },
          {
            "name": "G#5",
            "midi": 80,
            "time": 53.27582300000044,
            "velocity": 0.6929133858267716,
            "duration": 0.08620683333333545
          },
          {
            "name": "C#4",
            "midi": 61,
            "time": 53.27582300000044,
            "velocity": 0.5748031496062992,
            "duration": 0.25862050000000636
          },
          {
            "name": "B3",
            "midi": 59,
            "time": 53.27582300000044,
            "velocity": 0.4881889763779528,
            "duration": 0.25862050000000636
          },
          {
            "name": "G#3",
            "midi": 56,
            "time": 53.27582300000044,
            "velocity": 0.4881889763779528,
            "duration": 0.25862050000000636
          },
          {
            "name": "G#6",
            "midi": 92,
            "time": 53.36202983333378,
            "velocity": 0.6377952755905512,
            "duration": 0.08620683333333545
          },
          {
            "name": "C#6",
            "midi": 85,
            "time": 53.448236666667114,
            "velocity": 0.6062992125984252,
            "duration": 0.08620683333333545
          },
          {
            "name": "G#6",
            "midi": 92,
            "time": 53.53444350000045,
            "velocity": 0.7007874015748031,
            "duration": 0.08620683333333545
          },
          {
            "name": "C#6",
            "midi": 85,
            "time": 53.620650333333785,
            "velocity": 0.6692913385826772,
            "duration": 0.08620683333333545
          },
          {
            "name": "C#7",
            "midi": 97,
            "time": 53.70685716666712,
            "velocity": 0.6535433070866141,
            "duration": 0.08620683333333545
          },
          {
            "name": "F#6",
            "midi": 90,
            "time": 53.793064000000456,
            "velocity": 0.7637795275590551,
            "duration": 0.08620683333333545
          },
          {
            "name": "F#3",
            "midi": 54,
            "time": 53.793064000000456,
            "velocity": 0.5748031496062992,
            "duration": 0.09698268750000238
          },
          {
            "name": "A#3",
            "midi": 58,
            "time": 53.793064000000456,
            "velocity": 0.5748031496062992,
            "duration": 0.09698268750000238
          },
          {
            "name": "C#4",
            "midi": 61,
            "time": 53.793064000000456,
            "velocity": 0.5748031496062992,
            "duration": 0.09698268750000238
          },
          {
            "name": "F#4",
            "midi": 66,
            "time": 53.793064000000456,
            "velocity": 0.6850393700787402,
            "duration": 0.09698268750000238
          },
          {
            "name": "A#6",
            "midi": 94,
            "time": 53.87927083333379,
            "velocity": 0.5826771653543307,
            "duration": 0.08620683333333545
          },
          {
            "name": "C#6",
            "midi": 85,
            "time": 53.96547766666713,
            "velocity": 0.5590551181102362,
            "duration": 0.08620683333333545
          },
          {
            "name": "F#6",
            "midi": 90,
            "time": 54.05168450000046,
            "velocity": 0.7401574803149606,
            "duration": 0.08620683333333545
          },
          {
            "name": "F#4",
            "midi": 66,
            "time": 54.05168450000046,
            "velocity": 0.6456692913385826,
            "duration": 0.09698268750000238
          },
          {
            "name": "D#4",
            "midi": 63,
            "time": 54.05168450000046,
            "velocity": 0.5433070866141733,
            "duration": 0.09698268750000238
          },
          {
            "name": "B3",
            "midi": 59,
            "time": 54.05168450000046,
            "velocity": 0.5433070866141733,
            "duration": 0.09698268750000238
          },
          {
            "name": "F#3",
            "midi": 54,
            "time": 54.05168450000046,
            "velocity": 0.5433070866141733,
            "duration": 0.09698268750000238
          },
          {
            "name": "D#6",
            "midi": 87,
            "time": 54.1378913333338,
            "velocity": 0.5905511811023622,
            "duration": 0.08620683333333545
          },
          {
            "name": "F#6",
            "midi": 90,
            "time": 54.22409816666713,
            "velocity": 0.5748031496062992,
            "duration": 0.08620683333333545
          },
          {
            "name": "C#6",
            "midi": 85,
            "time": 54.31030500000047,
            "velocity": 0.7480314960629921,
            "duration": 0.08620683333333545
          },
          {
            "name": "C#4",
            "midi": 61,
            "time": 54.31030500000047,
            "velocity": 0.5748031496062992,
            "duration": 0.09698268750000238
          },
          {
            "name": "F#4",
            "midi": 66,
            "time": 54.31030500000047,
            "velocity": 0.6850393700787402,
            "duration": 0.09698268750000238
          },
          {
            "name": "A#3",
            "midi": 58,
            "time": 54.31030500000047,
            "velocity": 0.5748031496062992,
            "duration": 0.09698268750000238
          },
          {
            "name": "F#3",
            "midi": 54,
            "time": 54.31030500000047,
            "velocity": 0.5748031496062992,
            "duration": 0.09698268750000238
          },
          {
            "name": "F#6",
            "midi": 90,
            "time": 54.396511833333804,
            "velocity": 0.5984251968503937,
            "duration": 0.08620683333333545
          },
          {
            "name": "A#5",
            "midi": 82,
            "time": 54.48271866666714,
            "velocity": 0.5748031496062992,
            "duration": 0.08620683333333545
          },
          {
            "name": "C#6",
            "midi": 85,
            "time": 54.568925500000475,
            "velocity": 0.6771653543307087,
            "duration": 0.08620683333333545
          },
          {
            "name": "F#5",
            "midi": 78,
            "time": 54.65513233333381,
            "velocity": 0.6062992125984252,
            "duration": 0.08620683333333545
          },
          {
            "name": "A#5",
            "midi": 82,
            "time": 54.741339166667146,
            "velocity": 0.5748031496062992,
            "duration": 0.08620683333333545
          },
          {
            "name": "F#5",
            "midi": 78,
            "time": 54.82754600000048,
            "velocity": 0.5826771653543307,
            "duration": 0.08620683333333545
          },
          {
            "name": "F#2",
            "midi": 42,
            "time": 54.82754600000048,
            "velocity": 0.3779527559055118,
            "duration": 0.09698268750000238
          },
          {
            "name": "F#3",
            "midi": 54,
            "time": 54.82754600000048,
            "velocity": 0.4645669291338583,
            "duration": 0.09698268750000238
          },
          {
            "name": "A#5",
            "midi": 82,
            "time": 54.91375283333382,
            "velocity": 0.5196850393700787,
            "duration": 0.08620683333333545
          },
          {
            "name": "C#5",
            "midi": 73,
            "time": 54.99995966666715,
            "velocity": 0.5039370078740157,
            "duration": 0.08620683333333545
          },
          {
            "name": "F#5",
            "midi": 78,
            "time": 55.08616650000049,
            "velocity": 0.5511811023622047,
            "duration": 0.08620683333333545
          },
          {
            "name": "F#4",
            "midi": 66,
            "time": 55.08616650000049,
            "velocity": 0.4330708661417323,
            "duration": 0.09698268750000238
          },
          {
            "name": "D#4",
            "midi": 63,
            "time": 55.08616650000049,
            "velocity": 0.36220472440944884,
            "duration": 0.09698268750000238
          },
          {
            "name": "B3",
            "midi": 59,
            "time": 55.08616650000049,
            "velocity": 0.36220472440944884,
            "duration": 0.09698268750000238
          },
          {
            "name": "D#5",
            "midi": 75,
            "time": 55.17237333333382,
            "velocity": 0.5275590551181102,
            "duration": 0.08620683333333545
          },
          {
            "name": "F#5",
            "midi": 78,
            "time": 55.25858016666716,
            "velocity": 0.5275590551181102,
            "duration": 0.08620683333333545
          },
          {
            "name": "C#5",
            "midi": 73,
            "time": 55.344787000000494,
            "velocity": 0.5826771653543307,
            "duration": 0.08620683333333545
          },
          {
            "name": "F#4",
            "midi": 66,
            "time": 55.344787000000494,
            "velocity": 0.4645669291338583,
            "duration": 0.09698268750000238
          },
          {
            "name": "C#4",
            "midi": 61,
            "time": 55.344787000000494,
            "velocity": 0.3779527559055118,
            "duration": 0.09698268750000238
          },
          {
            "name": "A#3",
            "midi": 58,
            "time": 55.344787000000494,
            "velocity": 0.3779527559055118,
            "duration": 0.09698268750000238
          },
          {
            "name": "F#5",
            "midi": 78,
            "time": 55.43099383333383,
            "velocity": 0.4881889763779528,
            "duration": 0.08620683333333545
          },
          {
            "name": "A#4",
            "midi": 70,
            "time": 55.517200666667165,
            "velocity": 0.4330708661417323,
            "duration": 0.08620683333333545
          },
          {
            "name": "C#5",
            "midi": 73,
            "time": 55.6034075000005,
            "velocity": 0.5826771653543307,
            "duration": 0.08620683333333545
          },
          {
            "name": "F#4",
            "midi": 66,
            "time": 55.689614333333836,
            "velocity": 0.5039370078740157,
            "duration": 0.08620683333333545
          },
          {
            "name": "A#4",
            "midi": 70,
            "time": 55.77582116666717,
            "velocity": 0.47244094488188976,
            "duration": 0.08620683333333545
          },
          {
            "name": "D#4",
            "midi": 63,
            "time": 55.86202800000051,
            "velocity": 0.5826771653543307,
            "duration": 0.08620683333333545
          },
          {
            "name": "B2",
            "midi": 47,
            "time": 55.86202800000051,
            "velocity": 0.5196850393700787,
            "duration": 0.12931025000000318
          },
          {
            "name": "D#5",
            "midi": 75,
            "time": 55.94823483333384,
            "velocity": 0.5590551181102362,
            "duration": 0.08620683333333545
          },
          {
            "name": "G#4",
            "midi": 68,
            "time": 56.03444166666718,
            "velocity": 0.5275590551181102,
            "duration": 0.08620683333333545
          },
          {
            "name": "D#5",
            "midi": 75,
            "time": 56.12064850000051,
            "velocity": 0.5826771653543307,
            "duration": 0.08620683333333545
          },
          {
            "name": "D#4",
            "midi": 63,
            "time": 56.12064850000051,
            "velocity": 0.5196850393700787,
            "duration": 0.25862050000000636
          },
          {
            "name": "G#3",
            "midi": 56,
            "time": 56.12064850000051,
            "velocity": 0.4409448818897638,
            "duration": 0.25862050000000636
          },
          {
            "name": "G#4",
            "midi": 68,
            "time": 56.20685533333385,
            "velocity": 0.5669291338582677,
            "duration": 0.08620683333333545
          },
          {
            "name": "G#5",
            "midi": 80,
            "time": 56.293062166667184,
            "velocity": 0.5275590551181102,
            "duration": 0.08620683333333545
          },
          {
            "name": "A#4",
            "midi": 70,
            "time": 56.37926900000052,
            "velocity": 0.5826771653543307,
            "duration": 0.08620683333333545
          },
          {
            "name": "F3",
            "midi": 53,
            "time": 56.37926900000052,
            "velocity": 0.4645669291338583,
            "duration": 0.25862050000000636
          },
          {
            "name": "A#3",
            "midi": 58,
            "time": 56.37926900000052,
            "velocity": 0.4645669291338583,
            "duration": 0.25862050000000636
          },
          {
            "name": "D4",
            "midi": 62,
            "time": 56.37926900000052,
            "velocity": 0.5511811023622047,
            "duration": 0.25862050000000636
          },
          {
            "name": "A#5",
            "midi": 82,
            "time": 56.465475833333855,
            "velocity": 0.6692913385826772,
            "duration": 0.08620683333333545
          },
          {
            "name": "A#4",
            "midi": 70,
            "time": 56.55168266666719,
            "velocity": 0.5669291338582677,
            "duration": 0.08620683333333545
          },
          {
            "name": "A#5",
            "midi": 82,
            "time": 56.637889500000526,
            "velocity": 0.5826771653543307,
            "duration": 0.08620683333333545
          },
          {
            "name": "A#2",
            "midi": 46,
            "time": 56.637889500000526,
            "velocity": 0.5196850393700787,
            "duration": 0.25862050000000636
          },
          {
            "name": "A#4",
            "midi": 70,
            "time": 56.72409633333386,
            "velocity": 0.5511811023622047,
            "duration": 0.08620683333333545
          },
          {
            "name": "A#5",
            "midi": 82,
            "time": 56.8103031666672,
            "velocity": 0.5196850393700787,
            "duration": 0.08620683333333545
          },
          {
            "name": "D#5",
            "midi": 75,
            "time": 56.89651000000053,
            "velocity": 0.5826771653543307,
            "duration": 0.08620683333333545
          },
          {
            "name": "B2",
            "midi": 47,
            "time": 56.89651000000053,
            "velocity": 0.5196850393700787,
            "duration": 0.12931025000000318
          },
          {
            "name": "D#6",
            "midi": 87,
            "time": 56.98271683333387,
            "velocity": 0.5511811023622047,
            "duration": 0.08620683333333545
          },
          {
            "name": "G#5",
            "midi": 80,
            "time": 57.0689236666672,
            "velocity": 0.5511811023622047,
            "duration": 0.08620683333333545
          },
          {
            "name": "D#6",
            "midi": 87,
            "time": 57.15513050000054,
            "velocity": 0.5590551181102362,
            "duration": 0.08620683333333545
          },
          {
            "name": "D#4",
            "midi": 63,
            "time": 57.15513050000054,
            "velocity": 0.5196850393700787,
            "duration": 0.25862050000000636
          },
          {
            "name": "G#3",
            "midi": 56,
            "time": 57.15513050000054,
            "velocity": 0.4409448818897638,
            "duration": 0.25862050000000636
          },
          {
            "name": "G#5",
            "midi": 80,
            "time": 57.241337333333874,
            "velocity": 0.5433070866141733,
            "duration": 0.08620683333333545
          },
          {
            "name": "G#6",
            "midi": 92,
            "time": 57.32754416666721,
            "velocity": 0.5433070866141733,
            "duration": 0.08620683333333545
          },
          {
            "name": "A#5",
            "midi": 82,
            "time": 57.413751000000545,
            "velocity": 0.5669291338582677,
            "duration": 0.08620683333333545
          },
          {
            "name": "F3",
            "midi": 53,
            "time": 57.413751000000545,
            "velocity": 0.4881889763779528,
            "duration": 0.25862050000000636
          },
          {
            "name": "A#3",
            "midi": 58,
            "time": 57.413751000000545,
            "velocity": 0.4881889763779528,
            "duration": 0.25862050000000636
          },
          {
            "name": "D4",
            "midi": 62,
            "time": 57.413751000000545,
            "velocity": 0.5748031496062992,
            "duration": 0.25862050000000636
          },
          {
            "name": "A#6",
            "midi": 94,
            "time": 57.49995783333388,
            "velocity": 0.6220472440944882,
            "duration": 0.08620683333333545
          },
          {
            "name": "A#5",
            "midi": 82,
            "time": 57.586164666667216,
            "velocity": 0.5433070866141733,
            "duration": 0.08620683333333545
          },
          {
            "name": "A#6",
            "midi": 94,
            "time": 57.67237150000055,
            "velocity": 0.5669291338582677,
            "duration": 0.08620683333333545
          },
          {
            "name": "A#2",
            "midi": 46,
            "time": 57.67237150000055,
            "velocity": 0.5433070866141733,
            "duration": 0.12931025000000318
          },
          {
            "name": "A#5",
            "midi": 82,
            "time": 57.75857833333389,
            "velocity": 0.5669291338582677,
            "duration": 0.08620683333333545
          },
          {
            "name": "A#6",
            "midi": 94,
            "time": 57.84478516666722,
            "velocity": 0.5511811023622047,
            "duration": 0.08620683333333545
          },
          {
            "name": "A#5",
            "midi": 82,
            "time": 57.93099200000056,
            "velocity": 0.5826771653543307,
            "duration": 0.08620683333333545
          },
          {
            "name": "B2",
            "midi": 47,
            "time": 57.93099200000056,
            "velocity": 0.6299212598425197,
            "duration": 0.12931025000000318
          },
          {
            "name": "A#6",
            "midi": 94,
            "time": 58.01719883333389,
            "velocity": 0.5669291338582677,
            "duration": 0.08620683333333545
          },
          {
            "name": "D#6",
            "midi": 87,
            "time": 58.10340566666723,
            "velocity": 0.5669291338582677,
            "duration": 0.08620683333333545
          },
          {
            "name": "A#6",
            "midi": 94,
            "time": 58.189612500000564,
            "velocity": 0.5826771653543307,
            "duration": 0.08620683333333545
          },
          {
            "name": "G#4",
            "midi": 68,
            "time": 58.189612500000564,
            "velocity": 0.5433070866141733,
            "duration": 0.12931025000000318
          },
          {
            "name": "B3",
            "midi": 59,
            "time": 58.189612500000564,
            "velocity": 0.44881889763779526,
            "duration": 0.12931025000000318
          },
          {
            "name": "D#4",
            "midi": 63,
            "time": 58.189612500000564,
            "velocity": 0.44881889763779526,
            "duration": 0.12931025000000318
          },
          {
            "name": "G#5",
            "midi": 80,
            "time": 58.2758193333339,
            "velocity": 0.5433070866141733,
            "duration": 0.08620683333333545
          },
          {
            "name": "G#6",
            "midi": 92,
            "time": 58.362026166667235,
            "velocity": 0.5275590551181102,
            "duration": 0.08620683333333545
          },
          {
            "name": "G#5",
            "midi": 80,
            "time": 58.44823300000057,
            "velocity": 0.5905511811023622,
            "duration": 0.08620683333333545
          },
          {
            "name": "C#3",
            "midi": 49,
            "time": 58.44823300000057,
            "velocity": 0.6456692913385826,
            "duration": 0.12931025000000318
          },
          {
            "name": "G#6",
            "midi": 92,
            "time": 58.534439833333906,
            "velocity": 0.5748031496062992,
            "duration": 0.08620683333333545
          },
          {
            "name": "C#6",
            "midi": 85,
            "time": 58.62064666666724,
            "velocity": 0.5511811023622047,
            "duration": 0.08620683333333545
          },
          {
            "name": "G#6",
            "midi": 92,
            "time": 58.70685350000058,
            "velocity": 0.6062992125984252,
            "duration": 0.08620683333333545
          },
          {
            "name": "F#4",
            "midi": 66,
            "time": 58.70685350000058,
            "velocity": 0.5196850393700787,
            "duration": 0.12931025000000318
          },
          {
            "name": "C#4",
            "midi": 61,
            "time": 58.70685350000058,
            "velocity": 0.4409448818897638,
            "duration": 0.12931025000000318
          },
          {
            "name": "A#3",
            "midi": 58,
            "time": 58.70685350000058,
            "velocity": 0.4409448818897638,
            "duration": 0.12931025000000318
          },
          {
            "name": "F#5",
            "midi": 78,
            "time": 58.79306033333391,
            "velocity": 0.5433070866141733,
            "duration": 0.08620683333333545
          },
          {
            "name": "F#6",
            "midi": 90,
            "time": 58.87926716666725,
            "velocity": 0.5511811023622047,
            "duration": 0.08620683333333545
          },
          {
            "name": "C#5",
            "midi": 73,
            "time": 58.96547400000058,
            "velocity": 0.6062992125984252,
            "duration": 0.08620683333333545
          },
          {
            "name": "B2",
            "midi": 47,
            "time": 58.96547400000058,
            "velocity": 0.6614173228346457,
            "duration": 0.12931025000000318
          },
          {
            "name": "C#6",
            "midi": 85,
            "time": 59.05168083333392,
            "velocity": 0.5669291338582677,
            "duration": 0.08620683333333545
          },
          {
            "name": "G#5",
            "midi": 80,
            "time": 59.137887666667254,
            "velocity": 0.5433070866141733,
            "duration": 0.08620683333333545
          },
          {
            "name": "C#6",
            "midi": 85,
            "time": 59.22409450000059,
            "velocity": 0.6141732283464567,
            "duration": 0.08620683333333545
          },
          {
            "name": "B3",
            "midi": 59,
            "time": 59.22409450000059,
            "velocity": 0.47244094488188976,
            "duration": 0.12931025000000318
          },
          {
            "name": "F4",
            "midi": 65,
            "time": 59.22409450000059,
            "velocity": 0.47244094488188976,
            "duration": 0.12931025000000318
          },
          {
            "name": "C#4",
            "midi": 61,
            "time": 59.22409450000059,
            "velocity": 0.47244094488188976,
            "duration": 0.12931025000000318
          },
          {
            "name": "G#4",
            "midi": 68,
            "time": 59.22409450000059,
            "velocity": 0.5590551181102362,
            "duration": 0.12931025000000318
          },
          {
            "name": "G#5",
            "midi": 80,
            "time": 59.310301333333925,
            "velocity": 0.5669291338582677,
            "duration": 0.08620683333333545
          },
          {
            "name": "G#6",
            "midi": 92,
            "time": 59.39650816666726,
            "velocity": 0.5905511811023622,
            "duration": 0.08620683333333545
          },
          {
            "name": "F#5",
            "midi": 78,
            "time": 59.482715000000596,
            "velocity": 0.6141732283464567,
            "duration": 0.08620683333333545
          },
          {
            "name": "A#2",
            "midi": 46,
            "time": 59.482715000000596,
            "velocity": 0.6771653543307087,
            "duration": 0.12931025000000318
          },
          {
            "name": "F#6",
            "midi": 90,
            "time": 59.56892183333393,
            "velocity": 0.5826771653543307,
            "duration": 0.08620683333333545
          },
          {
            "name": "C#6",
            "midi": 85,
            "time": 59.65512866666727,
            "velocity": 0.5669291338582677,
            "duration": 0.08620683333333545
          },
          {
            "name": "F#6",
            "midi": 90,
            "time": 59.7413355000006,
            "velocity": 0.6299212598425197,
            "duration": 0.08620683333333545
          },
          {
            "name": "C#4",
            "midi": 61,
            "time": 59.7413355000006,
            "velocity": 0.47244094488188976,
            "duration": 0.12931025000000318
          },
          {
            "name": "A#4",
            "midi": 70,
            "time": 59.7413355000006,
            "velocity": 0.5590551181102362,
            "duration": 0.12931025000000318
          },
          {
            "name": "A#3",
            "midi": 58,
            "time": 59.7413355000006,
            "velocity": 0.47244094488188976,
            "duration": 0.12931025000000318
          },
          {
            "name": "F#4",
            "midi": 66,
            "time": 59.7413355000006,
            "velocity": 0.47244094488188976,
            "duration": 0.12931025000000318
          },
          {
            "name": "C#6",
            "midi": 85,
            "time": 59.82754233333394,
            "velocity": 0.5826771653543307,
            "duration": 0.08620683333333545
          },
          {
            "name": "C#7",
            "midi": 97,
            "time": 59.91374916666727,
            "velocity": 0.6141732283464567,
            "duration": 0.08620683333333545
          },
          {
            "name": "A#5",
            "midi": 82,
            "time": 59.99995600000061,
            "velocity": 0.6299212598425197,
            "duration": 0.08620683333333545
          },
          {
            "name": "B2",
            "midi": 47,
            "time": 59.99995600000061,
            "velocity": 0.6929133858267716,
            "duration": 0.12931025000000318
          },
          {
            "name": "A#6",
            "midi": 94,
            "time": 60.086162833333944,
            "velocity": 0.5826771653543307,
            "duration": 0.08620683333333545
          },
          {
            "name": "D#6",
            "midi": 87,
            "time": 60.17236966666728,
            "velocity": 0.5590551181102362,
            "duration": 0.08620683333333545
          },
          {
            "name": "A#6",
            "midi": 94,
            "time": 60.258576500000615,
            "velocity": 0.6377952755905512,
            "duration": 0.08620683333333545
          },
          {
            "name": "G#4",
            "midi": 68,
            "time": 60.258576500000615,
            "velocity": 0.5748031496062992,
            "duration": 0.12931025000000318
          },
          {
            "name": "D#4",
            "midi": 63,
            "time": 60.258576500000615,
            "velocity": 0.4881889763779528,
            "duration": 0.12931025000000318
          },
          {
            "name": "B3",
            "midi": 59,
            "time": 60.258576500000615,
            "velocity": 0.4881889763779528,
            "duration": 0.12931025000000318
          },
          {
            "name": "G#5",
            "midi": 80,
            "time": 60.34478333333395,
            "velocity": 0.6220472440944882,
            "duration": 0.08620683333333545
          },
          {
            "name": "G#6",
            "midi": 92,
            "time": 60.430990166667286,
            "velocity": 0.5984251968503937,
            "duration": 0.08620683333333545
          },
          {
            "name": "G#5",
            "midi": 80,
            "time": 60.51719700000062,
            "velocity": 0.6456692913385826,
            "duration": 0.08620683333333545
          },
          {
            "name": "C#3",
            "midi": 49,
            "time": 60.51719700000062,
            "velocity": 0.7007874015748031,
            "duration": 0.12931025000000318
          },
          {
            "name": "G#6",
            "midi": 92,
            "time": 60.60340383333396,
            "velocity": 0.5984251968503937,
            "duration": 0.08620683333333545
          },
          {
            "name": "C#6",
            "midi": 85,
            "time": 60.68961066666729,
            "velocity": 0.5748031496062992,
            "duration": 0.08620683333333545
          },
          {
            "name": "G#6",
            "midi": 92,
            "time": 60.77581750000063,
            "velocity": 0.6456692913385826,
            "duration": 0.08620683333333545
          },
          {
            "name": "F#4",
            "midi": 66,
            "time": 60.77581750000063,
            "velocity": 0.5748031496062992,
            "duration": 0.12931025000000318
          },
          {
            "name": "C#4",
            "midi": 61,
            "time": 60.77581750000063,
            "velocity": 0.4881889763779528,
            "duration": 0.12931025000000318
          },
          {
            "name": "A#3",
            "midi": 58,
            "time": 60.77581750000063,
            "velocity": 0.4881889763779528,
            "duration": 0.12931025000000318
          },
          {
            "name": "F#5",
            "midi": 78,
            "time": 60.86202433333396,
            "velocity": 0.5826771653543307,
            "duration": 0.08620683333333545
          },
          {
            "name": "F#6",
            "midi": 90,
            "time": 60.9482311666673,
            "velocity": 0.5511811023622047,
            "duration": 0.08620683333333545
          },
          {
            "name": "C#5",
            "midi": 73,
            "time": 61.034438000000634,
            "velocity": 0.6535433070866141,
            "duration": 0.08620683333333545
          },
          {
            "name": "B2",
            "midi": 47,
            "time": 61.034438000000634,
            "velocity": 0.7165354330708661,
            "duration": 0.12931025000000318
          },
          {
            "name": "C#6",
            "midi": 85,
            "time": 61.12064483333397,
            "velocity": 0.5826771653543307,
            "duration": 0.08620683333333545
          },
          {
            "name": "G#5",
            "midi": 80,
            "time": 61.206851666667305,
            "velocity": 0.5590551181102362,
            "duration": 0.08620683333333545
          },
          {
            "name": "C#6",
            "midi": 85,
            "time": 61.29305850000064,
            "velocity": 0.6535433070866141,
            "duration": 0.08620683333333545
          },
          {
            "name": "B3",
            "midi": 59,
            "time": 61.29305850000064,
            "velocity": 0.49606299212598426,
            "duration": 0.12931025000000318
          },
          {
            "name": "F4",
            "midi": 65,
            "time": 61.29305850000064,
            "velocity": 0.49606299212598426,
            "duration": 0.12931025000000318
          },
          {
            "name": "C#4",
            "midi": 61,
            "time": 61.29305850000064,
            "velocity": 0.49606299212598426,
            "duration": 0.12931025000000318
          },
          {
            "name": "G#4",
            "midi": 68,
            "time": 61.29305850000064,
            "velocity": 0.5905511811023622,
            "duration": 0.12931025000000318
          },
          {
            "name": "G#5",
            "midi": 80,
            "time": 61.379265333333976,
            "velocity": 0.5984251968503937,
            "duration": 0.08620683333333545
          },
          {
            "name": "G#6",
            "midi": 92,
            "time": 61.46547216666731,
            "velocity": 0.6456692913385826,
            "duration": 0.08620683333333545
          },
          {
            "name": "F#5",
            "midi": 78,
            "time": 61.55167900000065,
            "velocity": 0.6771653543307087,
            "duration": 0.08620683333333545
          },
          {
            "name": "A#2",
            "midi": 46,
            "time": 61.55167900000065,
            "velocity": 0.7401574803149606,
            "duration": 0.12931025000000318
          },
          {
            "name": "F#6",
            "midi": 90,
            "time": 61.63788583333398,
            "velocity": 0.5984251968503937,
            "duration": 0.08620683333333545
          },
          {
            "name": "C#6",
            "midi": 85,
            "time": 61.72409266666732,
            "velocity": 0.5748031496062992,
            "duration": 0.08620683333333545
          },
          {
            "name": "F#6",
            "midi": 90,
            "time": 61.81029950000065,
            "velocity": 0.6850393700787402,
            "duration": 0.08620683333333545
          },
          {
            "name": "A#3",
            "midi": 58,
            "time": 61.81029950000065,
            "velocity": 0.49606299212598426,
            "duration": 0.12931025000000318
          },
          {
            "name": "F#4",
            "midi": 66,
            "time": 61.81029950000065,
            "velocity": 0.49606299212598426,
            "duration": 0.12931025000000318
          },
          {
            "name": "C#4",
            "midi": 61,
            "time": 61.81029950000065,
            "velocity": 0.49606299212598426,
            "duration": 0.12931025000000318
          },
          {
            "name": "A#4",
            "midi": 70,
            "time": 61.81029950000065,
            "velocity": 0.5905511811023622,
            "duration": 0.12931025000000318
          },
          {
            "name": "C#6",
            "midi": 85,
            "time": 61.89650633333399,
            "velocity": 0.6220472440944882,
            "duration": 0.08620683333333545
          },
          {
            "name": "C#7",
            "midi": 97,
            "time": 61.982713166667324,
            "velocity": 0.5905511811023622,
            "duration": 0.08620683333333545
          },
          {
            "name": "A#5",
            "midi": 82,
            "time": 62.06892000000066,
            "velocity": 0.6535433070866141,
            "duration": 0.08620683333333545
          },
          {
            "name": "B2",
            "midi": 47,
            "time": 62.06892000000066,
            "velocity": 0.7401574803149606,
            "duration": 0.25862050000000636
          },
          {
            "name": "A#6",
            "midi": 94,
            "time": 62.155126833333995,
            "velocity": 0.5826771653543307,
            "duration": 0.08620683333333545
          },
          {
            "name": "D#6",
            "midi": 87,
            "time": 62.24133366666733,
            "velocity": 0.5905511811023622,
            "duration": 0.08620683333333545
          },
          {
            "name": "A#6",
            "midi": 94,
            "time": 62.327540500000666,
            "velocity": 0.6771653543307087,
            "duration": 0.08620683333333545
          },
          {
            "name": "D#4",
            "midi": 63,
            "time": 62.327540500000666,
            "velocity": 0.5511811023622047,
            "duration": 0.5172410000000127
          },
          {
            "name": "G#3",
            "midi": 56,
            "time": 62.327540500000666,
            "velocity": 0.5511811023622047,
            "duration": 0.5172410000000127
          },
          {
            "name": "G#4",
            "midi": 68,
            "time": 62.327540500000666,
            "velocity": 0.6456692913385826,
            "duration": 0.5172410000000127
          },
          {
            "name": "G#5",
            "midi": 80,
            "time": 62.413747333334,
            "velocity": 0.6062992125984252,
            "duration": 0.08620683333333545
          },
          {
            "name": "G#6",
            "midi": 92,
            "time": 62.49995416666734,
            "velocity": 0.5826771653543307,
            "duration": 0.08620683333333545
          },
          {
            "name": "A#5",
            "midi": 82,
            "time": 62.58616100000067,
            "velocity": 0.6850393700787402,
            "duration": 0.08620683333333545
          },
          {
            "name": "A#6",
            "midi": 94,
            "time": 62.67236783333401,
            "velocity": 0.6299212598425197,
            "duration": 0.08620683333333545
          },
          {
            "name": "D#6",
            "midi": 87,
            "time": 62.75857466666734,
            "velocity": 0.5826771653543307,
            "duration": 0.08620683333333545
          },
          {
            "name": "A#6",
            "midi": 94,
            "time": 62.84478150000068,
            "velocity": 0.6614173228346457,
            "duration": 0.08620683333333545
          },
          {
            "name": "B2",
            "midi": 47,
            "time": 62.84478150000068,
            "velocity": 0.7401574803149606,
            "duration": 0.25862050000000636
          },
          {
            "name": "G#5",
            "midi": 80,
            "time": 62.930988333334014,
            "velocity": 0.6141732283464567,
            "duration": 0.08620683333333545
          },
          {
            "name": "G#6",
            "midi": 92,
            "time": 63.01719516666735,
            "velocity": 0.5826771653543307,
            "duration": 0.08620683333333545
          },
          {
            "name": "A#5",
            "midi": 82,
            "time": 63.103402000000685,
            "velocity": 0.7244094488188977,
            "duration": 0.08620683333333545
          },
          {
            "name": "C3",
            "midi": 48,
            "time": 63.103402000000685,
            "velocity": 0.8188976377952756,
            "duration": 0.25862050000000636
          },
          {
            "name": "A#6",
            "midi": 94,
            "time": 63.18960883333402,
            "velocity": 0.6692913385826772,
            "duration": 0.08620683333333545
          },
          {
            "name": "D#6",
            "midi": 87,
            "time": 63.275815666667356,
            "velocity": 0.6377952755905512,
            "duration": 0.08620683333333545
          },
          {
            "name": "A#6",
            "midi": 94,
            "time": 63.36202250000069,
            "velocity": 0.7322834645669292,
            "duration": 0.08620683333333545
          },
          {
            "name": "G#4",
            "midi": 68,
            "time": 63.36202250000069,
            "velocity": 0.6692913385826772,
            "duration": 0.5172410000000127
          },
          {
            "name": "D#4",
            "midi": 63,
            "time": 63.36202250000069,
            "velocity": 0.5590551181102362,
            "duration": 0.5172410000000127
          },
          {
            "name": "F#4",
            "midi": 66,
            "time": 63.36202250000069,
            "velocity": 0.5590551181102362,
            "duration": 0.5172410000000127
          },
          {
            "name": "G#3",
            "midi": 56,
            "time": 63.36202250000069,
            "velocity": 0.5590551181102362,
            "duration": 0.5172410000000127
          },
          {
            "name": "G#5",
            "midi": 80,
            "time": 63.44822933333403,
            "velocity": 0.6692913385826772,
            "duration": 0.08620683333333545
          },
          {
            "name": "G#6",
            "midi": 92,
            "time": 63.53443616666736,
            "velocity": 0.7086614173228346,
            "duration": 0.08620683333333545
          },
          {
            "name": "A#5",
            "midi": 82,
            "time": 63.6206430000007,
            "velocity": 0.7401574803149606,
            "duration": 0.08620683333333545
          },
          {
            "name": "A#6",
            "midi": 94,
            "time": 63.70684983333403,
            "velocity": 0.6771653543307087,
            "duration": 0.08620683333333545
          },
          {
            "name": "D#6",
            "midi": 87,
            "time": 63.79305666666737,
            "velocity": 0.6535433070866141,
            "duration": 0.08620683333333545
          },
          {
            "name": "A#6",
            "midi": 94,
            "time": 63.879263500000704,
            "velocity": 0.7637795275590551,
            "duration": 0.08620683333333545
          },
          {
            "name": "C3",
            "midi": 48,
            "time": 63.879263500000704,
            "velocity": 0.7874015748031497,
            "duration": 0.25862050000000636
          },
          {
            "name": "G#5",
            "midi": 80,
            "time": 63.96547033333404,
            "velocity": 0.6299212598425197,
            "duration": 0.08620683333333545
          },
          {
            "name": "G#6",
            "midi": 92,
            "time": 64.05167716666737,
            "velocity": 0.6929133858267716,
            "duration": 0.08620683333333545
          },
          {
            "name": "C#6",
            "midi": 85,
            "time": 64.13788400000071,
            "velocity": 0.7716535433070866,
            "duration": 0.08620683333333545
          },
          {
            "name": "C#3",
            "midi": 49,
            "time": 64.13788400000071,
            "velocity": 0.8346456692913385,
            "duration": 0.25862050000000636
          },
          {
            "name": "A#6",
            "midi": 94,
            "time": 64.22409083333405,
            "velocity": 0.7086614173228346,
            "duration": 0.08620683333333545
          },
          {
            "name": "G#5",
            "midi": 80,
            "time": 64.31029766666738,
            "velocity": 0.6850393700787402,
            "duration": 0.08620683333333545
          },
          {
            "name": "G#6",
            "midi": 92,
            "time": 64.39650450000072,
            "velocity": 0.7874015748031497,
            "duration": 0.08620683333333545
          },
          {
            "name": "C#6",
            "midi": 85,
            "time": 64.48271133333405,
            "velocity": 0.7086614173228346,
            "duration": 0.08620683333333545
          },
          {
            "name": "A#6",
            "midi": 94,
            "time": 64.56891816666739,
            "velocity": 0.7244094488188977,
            "duration": 0.08620683333333545
          },
          {
            "name": "G#5",
            "midi": 80,
            "time": 64.65512500000072,
            "velocity": 0.8110236220472441,
            "duration": 0.08620683333333545
          },
          {
            "name": "C#4",
            "midi": 61,
            "time": 64.65512500000072,
            "velocity": 0.6062992125984252,
            "duration": 0.5172410000000127
          },
          {
            "name": "F#4",
            "midi": 66,
            "time": 64.65512500000072,
            "velocity": 0.6062992125984252,
            "duration": 0.5172410000000127
          },
          {
            "name": "G#3",
            "midi": 56,
            "time": 64.65512500000072,
            "velocity": 0.6062992125984252,
            "duration": 0.5172410000000127
          },
          {
            "name": "G#4",
            "midi": 68,
            "time": 64.65512500000072,
            "velocity": 0.7244094488188977,
            "duration": 0.5172410000000127
          },
          {
            "name": "G#6",
            "midi": 92,
            "time": 64.74133183333406,
            "velocity": 0.7322834645669292,
            "duration": 0.08620683333333545
          },
          {
            "name": "C#6",
            "midi": 85,
            "time": 64.8275386666674,
            "velocity": 0.6771653543307087,
            "duration": 0.08620683333333545
          },
          {
            "name": "A#6",
            "midi": 94,
            "time": 64.91374550000073,
            "velocity": 0.7401574803149606,
            "duration": 0.08620683333333545
          },
          {
            "name": "G#5",
            "midi": 80,
            "time": 64.99995233333406,
            "velocity": 0.7086614173228346,
            "duration": 0.08620683333333545
          },
          {
            "name": "G#6",
            "midi": 92,
            "time": 65.0861591666674,
            "velocity": 0.6771653543307087,
            "duration": 0.08620683333333545
          },
          {
            "name": "C#6",
            "midi": 85,
            "time": 65.17236600000074,
            "velocity": 0.7559055118110236,
            "duration": 0.08620683333333545
          },
          {
            "name": "C#5",
            "midi": 73,
            "time": 65.17236600000074,
            "velocity": 0.7401574803149606,
            "duration": 0.5172410000000127
          },
          {
            "name": "F#4",
            "midi": 66,
            "time": 65.17236600000074,
            "velocity": 0.6220472440944882,
            "duration": 0.5172410000000127
          },
          {
            "name": "G#4",
            "midi": 68,
            "time": 65.17236600000074,
            "velocity": 0.6220472440944882,
            "duration": 0.5172410000000127
          },
          {
            "name": "A#6",
            "midi": 94,
            "time": 65.25857283333407,
            "velocity": 0.7165354330708661,
            "duration": 0.08620683333333545
          },
          {
            "name": "G#5",
            "midi": 80,
            "time": 65.3447796666674,
            "velocity": 0.6692913385826772,
            "duration": 0.08620683333333545
          },
          {
            "name": "G#6",
            "midi": 92,
            "time": 65.43098650000074,
            "velocity": 0.7007874015748031,
            "duration": 0.08620683333333545
          },
          {
            "name": "C#6",
            "midi": 85,
            "time": 65.51719333333408,
            "velocity": 0.6456692913385826,
            "duration": 0.08620683333333545
          },
          {
            "name": "A#6",
            "midi": 94,
            "time": 65.60340016666741,
            "velocity": 0.5905511811023622,
            "duration": 0.08620683333333545
          },
          {
            "name": "G#5",
            "midi": 80,
            "time": 65.68960700000075,
            "velocity": 0.6692913385826772,
            "duration": 0.08620683333333545
          },
          {
            "name": "G#6",
            "midi": 92,
            "time": 65.77581383333408,
            "velocity": 0.6062992125984252,
            "duration": 0.08620683333333545
          },
          {
            "name": "C#6",
            "midi": 85,
            "time": 65.86202066666742,
            "velocity": 0.5590551181102362,
            "duration": 0.08620683333333545
          },
          {
            "name": "A#6",
            "midi": 94,
            "time": 65.94822750000075,
            "velocity": 0.5905511811023622,
            "duration": 0.08620683333333545
          },
          {
            "name": "G#5",
            "midi": 80,
            "time": 66.03443433333409,
            "velocity": 0.5354330708661418,
            "duration": 0.08620683333333545
          },
          {
            "name": "G#6",
            "midi": 92,
            "time": 66.12064116666743,
            "velocity": 0.5039370078740157,
            "duration": 0.08620683333333545
          },
          {
            "name": "C#2",
            "midi": 37,
            "time": 66.1637445833341,
            "velocity": 0.3700787401574803,
            "duration": 0.010775854166666932
          },
          {
            "name": "C#3",
            "midi": 49,
            "time": 66.17452043750076,
            "velocity": 0.3700787401574803,
            "duration": 1.0668095625000262
          },
          {
            "name": "G#3",
            "midi": 56,
            "time": 66.18529629166743,
            "velocity": 0.3700787401574803,
            "duration": 1.0560337083333593
          },
          {
            "name": "C#4",
            "midi": 61,
            "time": 66.1960721458341,
            "velocity": 0.3700787401574803,
            "duration": 1.0452578541666924
          },
          {
            "name": "D#7",
            "midi": 99,
            "time": 66.20684800000076,
            "velocity": 0.44881889763779526,
            "duration": 0.08620683333333545
          },
          {
            "name": "F#4",
            "midi": 66,
            "time": 66.20684800000076,
            "velocity": 0.4409448818897638,
            "duration": 1.0344820000000254
          },
          {
            "name": "C#7",
            "midi": 97,
            "time": 66.33615825000076,
            "velocity": 0.44881889763779526,
            "duration": 0.04310341666666773
          },
          {
            "name": "A#6",
            "midi": 94,
            "time": 66.37926166666743,
            "velocity": 0.4094488188976378,
            "duration": 0.08620683333333545
          },
          {
            "name": "G#6",
            "midi": 92,
            "time": 66.46546850000077,
            "velocity": 0.44881889763779526,
            "duration": 0.08620683333333545
          },
          {
            "name": "F#6",
            "midi": 90,
            "time": 66.5516753333341,
            "velocity": 0.44881889763779526,
            "duration": 0.08620683333333545
          },
          {
            "name": "D#6",
            "midi": 87,
            "time": 66.63788216666744,
            "velocity": 0.4251968503937008,
            "duration": 0.08620683333333545
          },
          {
            "name": "C#6",
            "midi": 85,
            "time": 66.72408900000077,
            "velocity": 0.44881889763779526,
            "duration": 0.08620683333333545
          },
          {
            "name": "A#5",
            "midi": 82,
            "time": 66.81029583333411,
            "velocity": 0.44881889763779526,
            "duration": 0.08620683333333545
          },
          {
            "name": "G#5",
            "midi": 80,
            "time": 66.89650266666744,
            "velocity": 0.41732283464566927,
            "duration": 0.08620683333333545
          },
          {
            "name": "F#5",
            "midi": 78,
            "time": 66.98270950000078,
            "velocity": 0.44881889763779526,
            "duration": 0.08620683333333545
          },
          {
            "name": "D#5",
            "midi": 75,
            "time": 67.06891633333412,
            "velocity": 0.44881889763779526,
            "duration": 0.08620683333333545
          },
          {
            "name": "C#5",
            "midi": 73,
            "time": 67.15512316666745,
            "velocity": 0.4251968503937008,
            "duration": 0.08620683333333545
          },
          {
            "name": "G#4",
            "midi": 68,
            "time": 67.24133000000079,
            "velocity": 0.5118110236220472,
            "duration": 0.5172409999999985
          },
          {
            "name": "C#3",
            "midi": 49,
            "time": 67.24133000000079,
            "velocity": 0.23622047244094488,
            "duration": 1.034481999999997
          },
          {
            "name": "B3",
            "midi": 59,
            "time": 67.24133000000079,
            "velocity": 0.23622047244094488,
            "duration": 1.034481999999997
          },
          {
            "name": "F#4",
            "midi": 66,
            "time": 67.24133000000079,
            "velocity": 0.4409448818897638,
            "duration": 0.5172409999999985
          },
          {
            "name": "C#3",
            "midi": 49,
            "time": 67.24133000000079,
            "velocity": 0.4409448818897638,
            "duration": 1.034481999999997
          },
          {
            "name": "D#4",
            "midi": 63,
            "time": 67.24133000000079,
            "velocity": 0.3700787401574803,
            "duration": 0.5172409999999985
          },
          {
            "name": "G#3",
            "midi": 56,
            "time": 67.24133000000079,
            "velocity": 0.23622047244094488,
            "duration": 1.034481999999997
          },
          {
            "name": "A#4",
            "midi": 70,
            "time": 67.75857100000079,
            "velocity": 0.5433070866141733,
            "duration": 0.38793074999999533
          },
          {
            "name": "F4",
            "midi": 65,
            "time": 67.75857100000079,
            "velocity": 0.4409448818897638,
            "duration": 0.5172409999999985
          },
          {
            "name": "C#4",
            "midi": 61,
            "time": 67.75857100000079,
            "velocity": 0.3700787401574803,
            "duration": 0.5172409999999985
          },
          {
            "name": "G#4",
            "midi": 68,
            "time": 68.14650175000078,
            "velocity": 0.5039370078740157,
            "duration": 0.12931025000000318
          },
          {
            "name": "F#4",
            "midi": 66,
            "time": 68.27581200000078,
            "velocity": 0.5590551181102362,
            "duration": 0.25862050000000636
          },
          {
            "name": "F#3",
            "midi": 54,
            "time": 68.27581200000078,
            "velocity": 0.3779527559055118,
            "duration": 1.0344820000000254
          },
          {
            "name": "A#3",
            "midi": 58,
            "time": 68.27581200000078,
            "velocity": 0.3779527559055118,
            "duration": 0.25862050000000636
          },
          {
            "name": "F#4",
            "midi": 66,
            "time": 68.27581200000078,
            "velocity": 0.4645669291338583,
            "duration": 0.5172410000000127
          },
          {
            "name": "C#4",
            "midi": 61,
            "time": 68.53443250000079,
            "velocity": 0.3464566929133858,
            "duration": 0.25862050000000636
          },
          {
            "name": "G#6",
            "midi": 92,
            "time": 68.7930530000008,
            "velocity": 0.49606299212598426,
            "duration": 0.08620683333333545
          },
          {
            "name": "B3",
            "midi": 59,
            "time": 68.7930530000008,
            "velocity": 0.3937007874015748,
            "duration": 0.25862050000000636
          },
          {
            "name": "G#4",
            "midi": 68,
            "time": 68.7930530000008,
            "velocity": 0.47244094488188976,
            "duration": 0.25862050000000636
          },
          {
            "name": "A#6",
            "midi": 94,
            "time": 68.87925983333413,
            "velocity": 0.41732283464566927,
            "duration": 0.08620683333333545
          },
          {
            "name": "G#6",
            "midi": 92,
            "time": 68.96546666666747,
            "velocity": 0.44881889763779526,
            "duration": 0.08620683333333545
          },
          {
            "name": "C#6",
            "midi": 85,
            "time": 69.0516735000008,
            "velocity": 0.4645669291338583,
            "duration": 0.08620683333333545
          },
          {
            "name": "G#3",
            "midi": 56,
            "time": 69.0516735000008,
            "velocity": 0.3464566929133858,
            "duration": 0.25862050000000636
          },
          {
            "name": "F4",
            "midi": 65,
            "time": 69.0516735000008,
            "velocity": 0.4094488188976378,
            "duration": 0.25862050000000636
          },
          {
            "name": "C#7",
            "midi": 97,
            "time": 69.13788033333414,
            "velocity": 0.4645669291338583,
            "duration": 0.08620683333333545
          },
          {
            "name": "C#6",
            "midi": 85,
            "time": 69.22408716666747,
            "velocity": 0.4251968503937008,
            "duration": 0.08620683333333545
          },
          {
            "name": "C#6",
            "midi": 85,
            "time": 69.31029400000081,
            "velocity": 0.49606299212598426,
            "duration": 0.08620683333333545
          },
          {
            "name": "F#4",
            "midi": 66,
            "time": 69.31029400000081,
            "velocity": 0.47244094488188976,
            "duration": 0.25862050000000636
          },
          {
            "name": "A#3",
            "midi": 58,
            "time": 69.31029400000081,
            "velocity": 0.3937007874015748,
            "duration": 0.25862050000000636
          },
          {
            "name": "F#3",
            "midi": 54,
            "time": 69.31029400000081,
            "velocity": 0.3937007874015748,
            "duration": 1.0344820000000254
          },
          {
            "name": "D#6",
            "midi": 87,
            "time": 69.39650083333414,
            "velocity": 0.49606299212598426,
            "duration": 0.08620683333333545
          },
          {
            "name": "C#6",
            "midi": 85,
            "time": 69.48270766666748,
            "velocity": 0.49606299212598426,
            "duration": 0.08620683333333545
          },
          {
            "name": "F#5",
            "midi": 78,
            "time": 69.56891450000082,
            "velocity": 0.4566929133858268,
            "duration": 0.08620683333333545
          },
          {
            "name": "C#4",
            "midi": 61,
            "time": 69.56891450000082,
            "velocity": 0.33070866141732286,
            "duration": 0.25862050000000636
          },
          {
            "name": "F#6",
            "midi": 90,
            "time": 69.65512133333415,
            "velocity": 0.4330708661417323,
            "duration": 0.08620683333333545
          },
          {
            "name": "F#5",
            "midi": 78,
            "time": 69.74132816666749,
            "velocity": 0.4566929133858268,
            "duration": 0.08620683333333545
          },
          {
            "name": "G#5",
            "midi": 80,
            "time": 69.82753500000082,
            "velocity": 0.49606299212598426,
            "duration": 0.08620683333333545
          },
          {
            "name": "B3",
            "midi": 59,
            "time": 69.82753500000082,
            "velocity": 0.3937007874015748,
            "duration": 0.25862050000000636
          },
          {
            "name": "G#4",
            "midi": 68,
            "time": 69.82753500000082,
            "velocity": 0.47244094488188976,
            "duration": 0.25862050000000636
          },
          {
            "name": "A#5",
            "midi": 82,
            "time": 69.91374183333416,
            "velocity": 0.4251968503937008,
            "duration": 0.08620683333333545
          },
          {
            "name": "G#5",
            "midi": 80,
            "time": 69.99994866666749,
            "velocity": 0.4409448818897638,
            "duration": 0.08620683333333545
          },
          {
            "name": "C#5",
            "midi": 73,
            "time": 70.08615550000083,
            "velocity": 0.6141732283464567,
            "duration": 0.3448273333333418
          },
          {
            "name": "F4",
            "midi": 65,
            "time": 70.08615550000083,
            "velocity": 0.4015748031496063,
            "duration": 0.25862050000000636
          },
          {
            "name": "G#3",
            "midi": 56,
            "time": 70.08615550000083,
            "velocity": 0.33070866141732286,
            "duration": 0.25862050000000636
          },
          {
            "name": "F#3",
            "midi": 54,
            "time": 70.34477600000083,
            "velocity": 0.41732283464566927,
            "duration": 0.25862050000000636
          },
          {
            "name": "F#4",
            "midi": 66,
            "time": 70.34477600000083,
            "velocity": 0.49606299212598426,
            "duration": 0.25862050000000636
          },
          {
            "name": "A#3",
            "midi": 58,
            "time": 70.34477600000083,
            "velocity": 0.41732283464566927,
            "duration": 0.25862050000000636
          },
          {
            "name": "F#5",
            "midi": 78,
            "time": 70.43098283333417,
            "velocity": 0.4881889763779528,
            "duration": 0.08620683333333545
          },
          {
            "name": "G#5",
            "midi": 80,
            "time": 70.5171896666675,
            "velocity": 0.44881889763779526,
            "duration": 0.08620683333333545
          },
          {
            "name": "A#5",
            "midi": 82,
            "time": 70.60339650000084,
            "velocity": 0.5196850393700787,
            "duration": 0.08620683333333545
          },
          {
            "name": "G#5",
            "midi": 80,
            "time": 70.68960333333418,
            "velocity": 0.5039370078740157,
            "duration": 0.08620683333333545
          },
          {
            "name": "F#5",
            "midi": 78,
            "time": 70.77581016666751,
            "velocity": 0.44881889763779526,
            "duration": 0.08620683333333545
          },
          {
            "name": "C#5",
            "midi": 73,
            "time": 70.86201700000085,
            "velocity": 0.4881889763779528,
            "duration": 0.08620683333333545
          },
          {
            "name": "D#4",
            "midi": 63,
            "time": 70.86201700000085,
            "velocity": 0.49606299212598426,
            "duration": 0.25862050000000636
          },
          {
            "name": "F3",
            "midi": 53,
            "time": 70.86201700000085,
            "velocity": 0.41732283464566927,
            "duration": 0.25862050000000636
          },
          {
            "name": "B3",
            "midi": 59,
            "time": 70.86201700000085,
            "velocity": 0.41732283464566927,
            "duration": 0.25862050000000636
          },
          {
            "name": "G#5",
            "midi": 80,
            "time": 70.94822383333418,
            "velocity": 0.5039370078740157,
            "duration": 0.08620683333333545
          },
          {
            "name": "C#6",
            "midi": 85,
            "time": 71.03443066666752,
            "velocity": 0.48031496062992124,
            "duration": 0.08620683333333545
          },
          {
            "name": "D#6",
            "midi": 87,
            "time": 71.12063750000085,
            "velocity": 0.5275590551181102,
            "duration": 0.08620683333333545
          },
          {
            "name": "C#3",
            "midi": 49,
            "time": 71.12063750000085,
            "velocity": 0.3779527559055118,
            "duration": 0.25862050000000636
          },
          {
            "name": "C#4",
            "midi": 61,
            "time": 71.12063750000085,
            "velocity": 0.44881889763779526,
            "duration": 0.25862050000000636
          },
          {
            "name": "C#6",
            "midi": 85,
            "time": 71.20684433333419,
            "velocity": 0.5118110236220472,
            "duration": 0.08620683333333545
          },
          {
            "name": "G#5",
            "midi": 80,
            "time": 71.29305116666752,
            "velocity": 0.4645669291338583,
            "duration": 0.08620683333333545
          },
          {
            "name": "F#5",
            "midi": 78,
            "time": 71.37925800000086,
            "velocity": 0.5196850393700787,
            "duration": 0.08620683333333545
          },
          {
            "name": "D#4",
            "midi": 63,
            "time": 71.37925800000086,
            "velocity": 0.5196850393700787,
            "duration": 0.25862050000000636
          },
          {
            "name": "A#3",
            "midi": 58,
            "time": 71.37925800000086,
            "velocity": 0.4409448818897638,
            "duration": 0.25862050000000636
          },
          {
            "name": "F#3",
            "midi": 54,
            "time": 71.37925800000086,
            "velocity": 0.4409448818897638,
            "duration": 0.25862050000000636
          },
          {
            "name": "C#6",
            "midi": 85,
            "time": 71.4654648333342,
            "velocity": 0.49606299212598426,
            "duration": 0.08620683333333545
          },
          {
            "name": "F#6",
            "midi": 90,
            "time": 71.55167166666753,
            "velocity": 0.4645669291338583,
            "duration": 0.08620683333333545
          },
          {
            "name": "G#6",
            "midi": 92,
            "time": 71.63787850000087,
            "velocity": 0.5039370078740157,
            "duration": 0.08620683333333545
          },
          {
            "name": "C#3",
            "midi": 49,
            "time": 71.63787850000087,
            "velocity": 0.3779527559055118,
            "duration": 0.25862050000000636
          },
          {
            "name": "C#4",
            "midi": 61,
            "time": 71.63787850000087,
            "velocity": 0.4645669291338583,
            "duration": 0.25862050000000636
          },
          {
            "name": "F#6",
            "midi": 90,
            "time": 71.7240853333342,
            "velocity": 0.5039370078740157,
            "duration": 0.08620683333333545
          },
          {
            "name": "D#6",
            "midi": 87,
            "time": 71.81029216666754,
            "velocity": 0.44881889763779526,
            "duration": 0.08620683333333545
          },
          {
            "name": "C#6",
            "midi": 85,
            "time": 71.89649900000087,
            "velocity": 0.5511811023622047,
            "duration": 0.08620683333333545
          },
          {
            "name": "B3",
            "midi": 59,
            "time": 71.89649900000087,
            "velocity": 0.4409448818897638,
            "duration": 0.25862050000000636
          },
          {
            "name": "F3",
            "midi": 53,
            "time": 71.89649900000087,
            "velocity": 0.4409448818897638,
            "duration": 0.25862050000000636
          },
          {
            "name": "D#4",
            "midi": 63,
            "time": 71.89649900000087,
            "velocity": 0.5354330708661418,
            "duration": 0.25862050000000636
          },
          {
            "name": "G#6",
            "midi": 92,
            "time": 71.98270583333421,
            "velocity": 0.5275590551181102,
            "duration": 0.08620683333333545
          },
          {
            "name": "C#7",
            "midi": 97,
            "time": 72.06891266666754,
            "velocity": 0.5118110236220472,
            "duration": 0.08620683333333545
          },
          {
            "name": "D#7",
            "midi": 99,
            "time": 72.15511950000088,
            "velocity": 0.5826771653543307,
            "duration": 0.08620683333333545
          },
          {
            "name": "C#4",
            "midi": 61,
            "time": 72.15511950000088,
            "velocity": 0.4881889763779528,
            "duration": 0.25862050000000636
          },
          {
            "name": "C#3",
            "midi": 49,
            "time": 72.15511950000088,
            "velocity": 0.4094488188976378,
            "duration": 0.25862050000000636
          },
          {
            "name": "C#7",
            "midi": 97,
            "time": 72.24132633333421,
            "velocity": 0.5275590551181102,
            "duration": 0.08620683333333545
          },
          {
            "name": "G#6",
            "midi": 92,
            "time": 72.32753316666755,
            "velocity": 0.4881889763779528,
            "duration": 0.08620683333333545
          },
          {
            "name": "F#6",
            "midi": 90,
            "time": 72.41374000000089,
            "velocity": 0.4881889763779528,
            "duration": 0.08620683333333545
          },
          {
            "name": "F#4",
            "midi": 66,
            "time": 72.41374000000089,
            "velocity": 0.4645669291338583,
            "duration": 0.25862050000000636
          },
          {
            "name": "F#3",
            "midi": 54,
            "time": 72.41374000000089,
            "velocity": 0.3779527559055118,
            "duration": 1.0344820000000254
          },
          {
            "name": "A#3",
            "midi": 58,
            "time": 72.41374000000089,
            "velocity": 0.3779527559055118,
            "duration": 0.25862050000000636
          },
          {
            "name": "G#6",
            "midi": 92,
            "time": 72.49994683333422,
            "velocity": 0.44881889763779526,
            "duration": 0.08620683333333545
          },
          {
            "name": "F#6",
            "midi": 90,
            "time": 72.58615366666756,
            "velocity": 0.4409448818897638,
            "duration": 0.08620683333333545
          },
          {
            "name": "C#6",
            "midi": 85,
            "time": 72.67236050000089,
            "velocity": 0.49606299212598426,
            "duration": 0.08620683333333545
          },
          {
            "name": "C#4",
            "midi": 61,
            "time": 72.67236050000089,
            "velocity": 0.3543307086614173,
            "duration": 0.25862050000000636
          },
          {
            "name": "C#7",
            "midi": 97,
            "time": 72.75856733333423,
            "velocity": 0.4645669291338583,
            "duration": 0.08620683333333545
          },
          {
            "name": "C#6",
            "midi": 85,
            "time": 72.84477416666756,
            "velocity": 0.4645669291338583,
            "duration": 0.08620683333333545
          },
          {
            "name": "C#6",
            "midi": 85,
            "time": 72.9309810000009,
            "velocity": 0.49606299212598426,
            "duration": 0.08620683333333545
          },
          {
            "name": "G#4",
            "midi": 68,
            "time": 72.9309810000009,
            "velocity": 0.47244094488188976,
            "duration": 0.25862050000000636
          },
          {
            "name": "B3",
            "midi": 59,
            "time": 72.9309810000009,
            "velocity": 0.3937007874015748,
            "duration": 0.25862050000000636
          },
          {
            "name": "D#6",
            "midi": 87,
            "time": 73.01718783333423,
            "velocity": 0.47244094488188976,
            "duration": 0.08620683333333545
          },
          {
            "name": "C#6",
            "midi": 85,
            "time": 73.10339466666757,
            "velocity": 0.44881889763779526,
            "duration": 0.08620683333333545
          },
          {
            "name": "G#5",
            "midi": 80,
            "time": 73.1896015000009,
            "velocity": 0.4645669291338583,
            "duration": 0.08620683333333545
          },
          {
            "name": "G#3",
            "midi": 56,
            "time": 73.1896015000009,
            "velocity": 0.36220472440944884,
            "duration": 0.25862050000000636
          },
          {
            "name": "F4",
            "midi": 65,
            "time": 73.1896015000009,
            "velocity": 0.4330708661417323,
            "duration": 0.25862050000000636
          },
          {
            "name": "G#6",
            "midi": 92,
            "time": 73.27580833333424,
            "velocity": 0.4645669291338583,
            "duration": 0.08620683333333545
          },
          {
            "name": "G#5",
            "midi": 80,
            "time": 73.36201516666758,
            "velocity": 0.4645669291338583,
            "duration": 0.08620683333333545
          },
          {
            "name": "G#5",
            "midi": 80,
            "time": 73.44822200000091,
            "velocity": 0.49606299212598426,
            "duration": 0.08620683333333545
          },
          {
            "name": "A#3",
            "midi": 58,
            "time": 73.44822200000091,
            "velocity": 0.4015748031496063,
            "duration": 0.25862050000000636
          },
          {
            "name": "F#4",
            "midi": 66,
            "time": 73.44822200000091,
            "velocity": 0.48031496062992124,
            "duration": 0.25862050000000636
          },
          {
            "name": "F#3",
            "midi": 54,
            "time": 73.44822200000091,
            "velocity": 0.4015748031496063,
            "duration": 1.0344820000000254
          },
          {
            "name": "A#5",
            "midi": 82,
            "time": 73.53442883333425,
            "velocity": 0.4645669291338583,
            "duration": 0.08620683333333545
          },
          {
            "name": "G#5",
            "midi": 80,
            "time": 73.62063566666758,
            "velocity": 0.4330708661417323,
            "duration": 0.08620683333333545
          },
          {
            "name": "F#5",
            "midi": 78,
            "time": 73.70684250000092,
            "velocity": 0.4566929133858268,
            "duration": 0.08620683333333545
          },
          {
            "name": "C#4",
            "midi": 61,
            "time": 73.70684250000092,
            "velocity": 0.36220472440944884,
            "duration": 0.25862050000000636
          },
          {
            "name": "F#6",
            "midi": 90,
            "time": 73.79304933333425,
            "velocity": 0.4566929133858268,
            "duration": 0.08620683333333545
          },
          {
            "name": "F#5",
            "midi": 78,
            "time": 73.87925616666759,
            "velocity": 0.4330708661417323,
            "duration": 0.08620683333333545
          },
          {
            "name": "C#5",
            "midi": 73,
            "time": 73.96546300000092,
            "velocity": 0.49606299212598426,
            "duration": 0.6034478333333482
          },
          {
            "name": "B3",
            "midi": 59,
            "time": 73.96546300000092,
            "velocity": 0.4015748031496063,
            "duration": 0.25862050000000636
          },
          {
            "name": "G#4",
            "midi": 68,
            "time": 73.96546300000092,
            "velocity": 0.48031496062992124,
            "duration": 0.25862050000000636
          },
          {
            "name": "G#3",
            "midi": 56,
            "time": 74.22408350000093,
            "velocity": 0.3700787401574803,
            "duration": 0.25862050000000636
          },
          {
            "name": "F4",
            "midi": 65,
            "time": 74.22408350000093,
            "velocity": 0.4409448818897638,
            "duration": 0.25862050000000636
          },
          {
            "name": "A#3",
            "midi": 58,
            "time": 74.48270400000094,
            "velocity": 0.4330708661417323,
            "duration": 0.25862050000000636
          },
          {
            "name": "F#4",
            "midi": 66,
            "time": 74.48270400000094,
            "velocity": 0.5039370078740157,
            "duration": 0.25862050000000636
          },
          {
            "name": "F#3",
            "midi": 54,
            "time": 74.48270400000094,
            "velocity": 0.4330708661417323,
            "duration": 0.25862050000000636
          },
          {
            "name": "F#5",
            "midi": 78,
            "time": 74.56891083333427,
            "velocity": 0.5039370078740157,
            "duration": 0.08620683333333545
          },
          {
            "name": "G#5",
            "midi": 80,
            "time": 74.6551176666676,
            "velocity": 0.4881889763779528,
            "duration": 0.08620683333333545
          },
          {
            "name": "A#5",
            "midi": 82,
            "time": 74.74132450000094,
            "velocity": 0.5511811023622047,
            "duration": 0.08620683333333545
          },
          {
            "name": "C#4",
            "midi": 61,
            "time": 74.74132450000094,
            "velocity": 0.4645669291338583,
            "duration": 0.25862050000000636
          },
          {
            "name": "G#5",
            "midi": 80,
            "time": 74.82753133333428,
            "velocity": 0.5039370078740157,
            "duration": 0.08620683333333545
          },
          {
            "name": "F#5",
            "midi": 78,
            "time": 74.91373816666761,
            "velocity": 0.48031496062992124,
            "duration": 0.08620683333333545
          },
          {
            "name": "C#5",
            "midi": 73,
            "time": 74.99994500000095,
            "velocity": 0.5433070866141733,
            "duration": 0.08620683333333545
          },
          {
            "name": "D#4",
            "midi": 63,
            "time": 74.99994500000095,
            "velocity": 0.5511811023622047,
            "duration": 0.25862050000000636
          },
          {
            "name": "B3",
            "midi": 59,
            "time": 74.99994500000095,
            "velocity": 0.4645669291338583,
            "duration": 0.25862050000000636
          },
          {
            "name": "F3",
            "midi": 53,
            "time": 74.99994500000095,
            "velocity": 0.4645669291338583,
            "duration": 0.25862050000000636
          },
          {
            "name": "G#5",
            "midi": 80,
            "time": 75.08615183333428,
            "velocity": 0.5196850393700787,
            "duration": 0.08620683333333545
          },
          {
            "name": "C#6",
            "midi": 85,
            "time": 75.17235866666762,
            "velocity": 0.5039370078740157,
            "duration": 0.08620683333333545
          },
          {
            "name": "D#6",
            "midi": 87,
            "time": 75.25856550000096,
            "velocity": 0.5748031496062992,
            "duration": 0.08620683333333545
          },
          {
            "name": "C#3",
            "midi": 49,
            "time": 75.25856550000096,
            "velocity": 0.41732283464566927,
            "duration": 0.25862050000000636
          },
          {
            "name": "C#4",
            "midi": 61,
            "time": 75.25856550000096,
            "velocity": 0.49606299212598426,
            "duration": 0.25862050000000636
          },
          {
            "name": "C#6",
            "midi": 85,
            "time": 75.34477233333429,
            "velocity": 0.5275590551181102,
            "duration": 0.08620683333333545
          },
          {
            "name": "G#5",
            "midi": 80,
            "time": 75.43097916666763,
            "velocity": 0.5118110236220472,
            "duration": 0.08620683333333545
          },
          {
            "name": "F#5",
            "midi": 78,
            "time": 75.51718600000096,
            "velocity": 0.5826771653543307,
            "duration": 0.08620683333333545
          },
          {
            "name": "F#3",
            "midi": 54,
            "time": 75.51718600000096,
            "velocity": 0.5196850393700787,
            "duration": 0.25862050000000636
          },
          {
            "name": "D#4",
            "midi": 63,
            "time": 75.51718600000096,
            "velocity": 0.6220472440944882,
            "duration": 0.25862050000000636
          },
          {
            "name": "A#3",
            "midi": 58,
            "time": 75.51718600000096,
            "velocity": 0.5196850393700787,
            "duration": 0.25862050000000636
          },
          {
            "name": "C#6",
            "midi": 85,
            "time": 75.6033928333343,
            "velocity": 0.5590551181102362,
            "duration": 0.08620683333333545
          },
          {
            "name": "F#6",
            "midi": 90,
            "time": 75.68959966666763,
            "velocity": 0.5511811023622047,
            "duration": 0.08620683333333545
          },
          {
            "name": "G#6",
            "midi": 92,
            "time": 75.77580650000097,
            "velocity": 0.5984251968503937,
            "duration": 0.08620683333333545
          },
          {
            "name": "C#4",
            "midi": 61,
            "time": 75.77580650000097,
            "velocity": 0.5669291338582677,
            "duration": 0.25862050000000636
          },
          {
            "name": "C#3",
            "midi": 49,
            "time": 75.77580650000097,
            "velocity": 0.48031496062992124,
            "duration": 0.25862050000000636
          },
          {
            "name": "F#6",
            "midi": 90,
            "time": 75.8620133333343,
            "velocity": 0.5511811023622047,
            "duration": 0.08620683333333545
          },
          {
            "name": "C#6",
            "midi": 85,
            "time": 75.94822016666764,
            "velocity": 0.5511811023622047,
            "duration": 0.08620683333333545
          },
          {
            "name": "G#5",
            "midi": 80,
            "time": 76.03442700000097,
            "velocity": 0.6220472440944882,
            "duration": 0.08620683333333545
          },
          {
            "name": "F3",
            "midi": 53,
            "time": 76.03442700000097,
            "velocity": 0.5511811023622047,
            "duration": 0.25862050000000636
          },
          {
            "name": "B3",
            "midi": 59,
            "time": 76.03442700000097,
            "velocity": 0.5511811023622047,
            "duration": 0.25862050000000636
          },
          {
            "name": "D#4",
            "midi": 63,
            "time": 76.03442700000097,
            "velocity": 0.6614173228346457,
            "duration": 0.25862050000000636
          },
          {
            "name": "C#6",
            "midi": 85,
            "time": 76.12063383333431,
            "velocity": 0.6377952755905512,
            "duration": 0.08620683333333545
          },
          {
            "name": "G#6",
            "midi": 92,
            "time": 76.20684066666765,
            "velocity": 0.6141732283464567,
            "duration": 0.08620683333333545
          },
          {
            "name": "A#6",
            "midi": 94,
            "time": 76.29304750000098,
            "velocity": 0.6771653543307087,
            "duration": 0.08620683333333545
          },
          {
            "name": "C#4",
            "midi": 61,
            "time": 76.29304750000098,
            "velocity": 0.6377952755905512,
            "duration": 0.22629293750000556
          },
          {
            "name": "C#3",
            "midi": 49,
            "time": 76.29304750000098,
            "velocity": 0.5433070866141733,
            "duration": 0.22629293750000556
          },
          {
            "name": "G#6",
            "midi": 92,
            "time": 76.37925433333432,
            "velocity": 0.6141732283464567,
            "duration": 0.08620683333333545
          },
          {
            "name": "C#6",
            "midi": 85,
            "time": 76.46546116666765,
            "velocity": 0.5826771653543307,
            "duration": 0.08620683333333545
          },
          {
            "name": "F#3",
            "midi": 54,
            "time": 76.51934043750099,
            "velocity": 0.5354330708661418,
            "duration": 0.5495685625000135
          },
          {
            "name": "C#4",
            "midi": 61,
            "time": 76.53550421875099,
            "velocity": 0.5511811023622047,
            "duration": 0.5334047812500131
          },
          {
            "name": "A#6",
            "midi": 94,
            "time": 76.55166800000099,
            "velocity": 0.6850393700787402,
            "duration": 0.08620683333333545
          },
          {
            "name": "A#4",
            "midi": 70,
            "time": 76.55166800000099,
            "velocity": 0.7086614173228346,
            "duration": 0.5172410000000127
          },
          {
            "name": "C#6",
            "midi": 85,
            "time": 76.63787483333432,
            "velocity": 0.6062992125984252,
            "duration": 0.08620683333333545
          },
          {
            "name": "G#6",
            "midi": 92,
            "time": 76.72408166666766,
            "velocity": 0.5590551181102362,
            "duration": 0.08620683333333545
          },
          {
            "name": "A#5",
            "midi": 82,
            "time": 76.810288500001,
            "velocity": 0.6535433070866141,
            "duration": 0.08620683333333545
          },
          {
            "name": "G#6",
            "midi": 92,
            "time": 76.89649533333433,
            "velocity": 0.6141732283464567,
            "duration": 0.08620683333333545
          },
          {
            "name": "C#6",
            "midi": 85,
            "time": 76.98270216666766,
            "velocity": 0.5511811023622047,
            "duration": 0.08620683333333545
          },
          {
            "name": "F#6",
            "midi": 90,
            "time": 77.068909000001,
            "velocity": 0.6535433070866141,
            "duration": 0.08620683333333545
          },
          {
            "name": "A#5",
            "midi": 82,
            "time": 77.15511583333434,
            "velocity": 0.5984251968503937,
            "duration": 0.08620683333333545
          },
          {
            "name": "D#6",
            "midi": 87,
            "time": 77.24132266666767,
            "velocity": 0.5669291338582677,
            "duration": 0.08620683333333545
          },
          {
            "name": "G#5",
            "midi": 80,
            "time": 77.327529500001,
            "velocity": 0.6535433070866141,
            "duration": 0.08620683333333545
          },
          {
            "name": "C#3",
            "midi": 49,
            "time": 77.327529500001,
            "velocity": 0.6220472440944882,
            "duration": 0.25862050000000636
          },
          {
            "name": "B3",
            "midi": 59,
            "time": 77.327529500001,
            "velocity": 0.6220472440944882,
            "duration": 0.25862050000000636
          },
          {
            "name": "G#3",
            "midi": 56,
            "time": 77.327529500001,
            "velocity": 0.6220472440944882,
            "duration": 0.25862050000000636
          },
          {
            "name": "F4",
            "midi": 65,
            "time": 77.327529500001,
            "velocity": 0.7401574803149606,
            "duration": 0.25862050000000636
          },
          {
            "name": "C#6",
            "midi": 85,
            "time": 77.41373633333434,
            "velocity": 0.5984251968503937,
            "duration": 0.08620683333333545
          },
          {
            "name": "C#5",
            "midi": 73,
            "time": 77.49994316666768,
            "velocity": 0.5669291338582677,
            "duration": 0.08620683333333545
          },
          {
            "name": "A#5",
            "midi": 82,
            "time": 77.58615000000101,
            "velocity": 0.6535433070866141,
            "duration": 0.08620683333333545
          },
          {
            "name": "F#3",
            "midi": 54,
            "time": 77.58615000000101,
            "velocity": 0.6062992125984252,
            "duration": 0.5172410000000127
          },
          {
            "name": "A#3",
            "midi": 58,
            "time": 77.58615000000101,
            "velocity": 0.6062992125984252,
            "duration": 0.5172410000000127
          },
          {
            "name": "F#4",
            "midi": 66,
            "time": 77.58615000000101,
            "velocity": 0.7086614173228346,
            "duration": 0.5172410000000127
          },
          {
            "name": "C#5",
            "midi": 73,
            "time": 77.67235683333435,
            "velocity": 0.6141732283464567,
            "duration": 0.08620683333333545
          },
          {
            "name": "G#5",
            "midi": 80,
            "time": 77.75856366666768,
            "velocity": 0.5826771653543307,
            "duration": 0.08620683333333545
          },
          {
            "name": "A#4",
            "midi": 70,
            "time": 77.84477050000102,
            "velocity": 0.6535433070866141,
            "duration": 0.08620683333333545
          },
          {
            "name": "G#5",
            "midi": 80,
            "time": 77.93097733333435,
            "velocity": 0.5669291338582677,
            "duration": 0.08620683333333545
          },
          {
            "name": "C#5",
            "midi": 73,
            "time": 78.01718416666769,
            "velocity": 0.5669291338582677,
            "duration": 0.08620683333333545
          },
          {
            "name": "F#5",
            "midi": 78,
            "time": 78.10339100000103,
            "velocity": 0.6535433070866141,
            "duration": 0.08620683333333545
          },
          {
            "name": "A#4",
            "midi": 70,
            "time": 78.18959783333436,
            "velocity": 0.6141732283464567,
            "duration": 0.08620683333333545
          },
          {
            "name": "D#5",
            "midi": 75,
            "time": 78.2758046666677,
            "velocity": 0.5826771653543307,
            "duration": 0.08620683333333545
          },
          {
            "name": "G#4",
            "midi": 68,
            "time": 78.36201150000103,
            "velocity": 0.6535433070866141,
            "duration": 0.08620683333333545
          },
          {
            "name": "C#2",
            "midi": 37,
            "time": 78.36201150000103,
            "velocity": 0.6141732283464567,
            "duration": 0.25862050000000636
          },
          {
            "name": "B2",
            "midi": 47,
            "time": 78.36201150000103,
            "velocity": 0.6141732283464567,
            "duration": 0.25862050000000636
          },
          {
            "name": "F3",
            "midi": 53,
            "time": 78.36201150000103,
            "velocity": 0.7322834645669292,
            "duration": 0.25862050000000636
          },
          {
            "name": "C#5",
            "midi": 73,
            "time": 78.44821833333437,
            "velocity": 0.6062992125984252,
            "duration": 0.08620683333333545
          },
          {
            "name": "C#4",
            "midi": 61,
            "time": 78.5344251666677,
            "velocity": 0.5984251968503937,
            "duration": 0.08620683333333545
          },
          {
            "name": "A#4",
            "midi": 70,
            "time": 78.62063200000104,
            "velocity": 0.6850393700787402,
            "duration": 0.08620683333333545
          },
          {
            "name": "F#2",
            "midi": 42,
            "time": 78.62063200000104,
            "velocity": 0.5905511811023622,
            "duration": 0.5172410000000127
          },
          {
            "name": "A#2",
            "midi": 46,
            "time": 78.62063200000104,
            "velocity": 0.5905511811023622,
            "duration": 0.5172410000000127
          },
          {
            "name": "F#3",
            "midi": 54,
            "time": 78.62063200000104,
            "velocity": 0.7007874015748031,
            "duration": 0.5172410000000127
          },
          {
            "name": "C#4",
            "midi": 61,
            "time": 78.70683883333437,
            "velocity": 0.6456692913385826,
            "duration": 0.08620683333333545
          },
          {
            "name": "G#4",
            "midi": 68,
            "time": 78.79304566666771,
            "velocity": 0.6062992125984252,
            "duration": 0.08620683333333545
          },
          {
            "name": "A#3",
            "midi": 58,
            "time": 78.87925250000104,
            "velocity": 0.6929133858267716,
            "duration": 0.08620683333333545
          },
          {
            "name": "G#4",
            "midi": 68,
            "time": 78.96545933333438,
            "velocity": 0.6062992125984252,
            "duration": 0.08620683333333545
          },
          {
            "name": "C#4",
            "midi": 61,
            "time": 79.05166616666772,
            "velocity": 0.6377952755905512,
            "duration": 0.08620683333333545
          },
          {
            "name": "F#4",
            "midi": 66,
            "time": 79.13787300000105,
            "velocity": 0.7322834645669292,
            "duration": 0.08620683333333545
          },
          {
            "name": "A#3",
            "midi": 58,
            "time": 79.22407983333439,
            "velocity": 0.6850393700787402,
            "duration": 0.08620683333333545
          },
          {
            "name": "D#4",
            "midi": 63,
            "time": 79.31028666666772,
            "velocity": 0.6771653543307087,
            "duration": 0.08620683333333545
          },
          {
            "name": "G#3",
            "midi": 56,
            "time": 79.39649350000106,
            "velocity": 0.7637795275590551,
            "duration": 0.08620683333333545
          },
          {
            "name": "C#2",
            "midi": 37,
            "time": 79.39649350000106,
            "velocity": 0.6299212598425197,
            "duration": 0.25862050000000636
          },
          {
            "name": "C#4",
            "midi": 61,
            "time": 79.48270033333439,
            "velocity": 0.7165354330708661,
            "duration": 0.08620683333333545
          },
          {
            "name": "C#3",
            "midi": 49,
            "time": 79.56890716666773,
            "velocity": 0.6929133858267716,
            "duration": 0.08620683333333545
          },
          {
            "name": "A#3",
            "midi": 58,
            "time": 79.65511400000106,
            "velocity": 0.7952755905511811,
            "duration": 0.08620683333333545
          },
          {
            "name": "F#1",
            "midi": 30,
            "time": 79.65511400000106,
            "velocity": 0.5590551181102362,
            "duration": 0.25862050000000636
          },
          {
            "name": "F#2",
            "midi": 42,
            "time": 79.65511400000106,
            "velocity": 0.6692913385826772,
            "duration": 0.25862050000000636
          },
          {
            "name": "F#3",
            "midi": 54,
            "time": 79.7413208333344,
            "velocity": 0.7244094488188977,
            "duration": 0.08620683333333545
          },
          {
            "name": "D#4",
            "midi": 63,
            "time": 79.82752766666773,
            "velocity": 0.6850393700787402,
            "duration": 0.08620683333333545
          },
          {
            "name": "C#3",
            "midi": 49,
            "time": 79.91373450000107,
            "velocity": 0.7952755905511811,
            "duration": 0.08620683333333545
          },
          {
            "name": "C#1",
            "midi": 25,
            "time": 79.91373450000107,
            "velocity": 0.5354330708661418,
            "duration": 0.25862050000000636
          },
          {
            "name": "C#2",
            "midi": 37,
            "time": 79.91373450000107,
            "velocity": 0.6299212598425197,
            "duration": 0.25862050000000636
          },
          {
            "name": "C#4",
            "midi": 61,
            "time": 79.9999413333344,
            "velocity": 0.7244094488188977,
            "duration": 0.08620683333333545
          },
          {
            "name": "G#3",
            "midi": 56,
            "time": 80.08614816666774,
            "velocity": 0.6771653543307087,
            "duration": 0.08620683333333545
          },
          {
            "name": "A#3",
            "midi": 58,
            "time": 80.17235500000108,
            "velocity": 0.7952755905511811,
            "duration": 0.08620683333333545
          },
          {
            "name": "F#1",
            "midi": 30,
            "time": 80.17235500000108,
            "velocity": 0.5590551181102362,
            "duration": 0.25862050000000636
          },
          {
            "name": "F#2",
            "midi": 42,
            "time": 80.17235500000108,
            "velocity": 0.6692913385826772,
            "duration": 0.25862050000000636
          },
          {
            "name": "F#3",
            "midi": 54,
            "time": 80.25856183333441,
            "velocity": 0.7322834645669292,
            "duration": 0.08620683333333545
          },
          {
            "name": "D#4",
            "midi": 63,
            "time": 80.34476866666775,
            "velocity": 0.7007874015748031,
            "duration": 0.08620683333333545
          },
          {
            "name": "C#3",
            "midi": 49,
            "time": 80.43097550000108,
            "velocity": 0.7952755905511811,
            "duration": 0.08620683333333545
          },
          {
            "name": "C#1",
            "midi": 25,
            "time": 80.43097550000108,
            "velocity": 0.5354330708661418,
            "duration": 0.25862050000000636
          },
          {
            "name": "C#2",
            "midi": 37,
            "time": 80.43097550000108,
            "velocity": 0.6299212598425197,
            "duration": 0.25862050000000636
          },
          {
            "name": "C#4",
            "midi": 61,
            "time": 80.51718233333442,
            "velocity": 0.7322834645669292,
            "duration": 0.08620683333333545
          },
          {
            "name": "G#3",
            "midi": 56,
            "time": 80.60338916666775,
            "velocity": 0.7007874015748031,
            "duration": 0.08620683333333545
          },
          {
            "name": "A#3",
            "midi": 58,
            "time": 80.68959600000109,
            "velocity": 0.7952755905511811,
            "duration": 0.25862050000000636
          },
          {
            "name": "F#1",
            "midi": 30,
            "time": 80.68959600000109,
            "velocity": 0.5590551181102362,
            "duration": 0.25862050000000636
          },
          {
            "name": "F#2",
            "midi": 42,
            "time": 80.68959600000109,
            "velocity": 0.6692913385826772,
            "duration": 0.25862050000000636
          },
          {
            "name": "F#3",
            "midi": 54,
            "time": 80.9482165000011,
            "velocity": 0.3779527559055118,
            "duration": 0.08620683333333545
          },
          {
            "name": "A#3",
            "midi": 58,
            "time": 80.9482165000011,
            "velocity": 0.47244094488188976,
            "duration": 0.08620683333333545
          },
          {
            "name": "G#3",
            "midi": 56,
            "time": 81.03442333333443,
            "velocity": 0.4645669291338583,
            "duration": 0.08620683333333545
          },
          {
            "name": "F#3",
            "midi": 54,
            "time": 81.12063016666777,
            "velocity": 0.4251968503937008,
            "duration": 0.08620683333333545
          },
          {
            "name": "F#4",
            "midi": 66,
            "time": 81.2068370000011,
            "velocity": 0.49606299212598426,
            "duration": 0.08620683333333545
          },
          {
            "name": "D#4",
            "midi": 63,
            "time": 81.2068370000011,
            "velocity": 0.3937007874015748,
            "duration": 0.08620683333333545
          },
          {
            "name": "C#4",
            "midi": 61,
            "time": 81.29304383333444,
            "velocity": 0.47244094488188976,
            "duration": 0.08620683333333545
          },
          {
            "name": "A#3",
            "midi": 58,
            "time": 81.37925066666777,
            "velocity": 0.4409448818897638,
            "duration": 0.08620683333333545
          },
          {
            "name": "A#4",
            "midi": 70,
            "time": 81.46545750000111,
            "velocity": 0.5039370078740157,
            "duration": 0.08620683333333545
          },
          {
            "name": "F#4",
            "midi": 66,
            "time": 81.46545750000111,
            "velocity": 0.3937007874015748,
            "duration": 0.08620683333333545
          },
          {
            "name": "F#2",
            "midi": 42,
            "time": 81.46545750000111,
            "velocity": 0.41732283464566927,
            "duration": 0.08620683333333545
          },
          {
            "name": "D#4",
            "midi": 63,
            "time": 81.55166433333444,
            "velocity": 0.4881889763779528,
            "duration": 0.08620683333333545
          },
          {
            "name": "C#3",
            "midi": 49,
            "time": 81.55166433333444,
            "velocity": 0.3779527559055118,
            "duration": 0.08620683333333545
          },
          {
            "name": "C#4",
            "midi": 61,
            "time": 81.63787116666778,
            "velocity": 0.4566929133858268,
            "duration": 0.08620683333333545
          },
          {
            "name": "A#3",
            "midi": 58,
            "time": 81.63787116666778,
            "velocity": 0.36220472440944884,
            "duration": 0.08620683333333545
          },
          {
            "name": "A#4",
            "midi": 70,
            "time": 81.72407800000111,
            "velocity": 0.4094488188976378,
            "duration": 0.08620683333333545
          },
          {
            "name": "C#5",
            "midi": 73,
            "time": 81.72407800000111,
            "velocity": 0.5196850393700787,
            "duration": 0.08620683333333545
          },
          {
            "name": "F#2",
            "midi": 42,
            "time": 81.72407800000111,
            "velocity": 0.4409448818897638,
            "duration": 0.08620683333333545
          },
          {
            "name": "G#4",
            "midi": 68,
            "time": 81.81028483333445,
            "velocity": 0.5039370078740157,
            "duration": 0.08620683333333545
          },
          {
            "name": "C#3",
            "midi": 49,
            "time": 81.81028483333445,
            "velocity": 0.4015748031496063,
            "duration": 0.08620683333333545
          },
          {
            "name": "F#4",
            "midi": 66,
            "time": 81.89649166666779,
            "velocity": 0.4566929133858268,
            "duration": 0.08620683333333545
          },
          {
            "name": "A#3",
            "midi": 58,
            "time": 81.89649166666779,
            "velocity": 0.3858267716535433,
            "duration": 0.08620683333333545
          },
          {
            "name": "F#5",
            "midi": 78,
            "time": 81.98269850000112,
            "velocity": 0.5433070866141733,
            "duration": 0.08620683333333545
          },
          {
            "name": "D#5",
            "midi": 75,
            "time": 81.98269850000112,
            "velocity": 0.4330708661417323,
            "duration": 0.08620683333333545
          },
          {
            "name": "A#2",
            "midi": 46,
            "time": 81.98269850000112,
            "velocity": 0.44881889763779526,
            "duration": 0.08620683333333545
          },
          {
            "name": "C#5",
            "midi": 73,
            "time": 82.06890533333446,
            "velocity": 0.4645669291338583,
            "duration": 0.08620683333333545
          },
          {
            "name": "F#3",
            "midi": 54,
            "time": 82.06890533333446,
            "velocity": 0.4094488188976378,
            "duration": 0.08620683333333545
          },
          {
            "name": "A#4",
            "midi": 70,
            "time": 82.15511216666779,
            "velocity": 0.4645669291338583,
            "duration": 0.08620683333333545
          },
          {
            "name": "C#4",
            "midi": 61,
            "time": 82.15511216666779,
            "velocity": 0.3858267716535433,
            "duration": 0.08620683333333545
          },
          {
            "name": "A#5",
            "midi": 82,
            "time": 82.24131900000113,
            "velocity": 0.5511811023622047,
            "duration": 0.08620683333333545
          },
          {
            "name": "F#5",
            "midi": 78,
            "time": 82.24131900000113,
            "velocity": 0.4330708661417323,
            "duration": 0.08620683333333545
          },
          {
            "name": "C#3",
            "midi": 49,
            "time": 82.24131900000113,
            "velocity": 0.4645669291338583,
            "duration": 0.08620683333333545
          },
          {
            "name": "D#5",
            "midi": 75,
            "time": 82.32752583333446,
            "velocity": 0.5118110236220472,
            "duration": 0.08620683333333545
          },
          {
            "name": "A#3",
            "midi": 58,
            "time": 82.32752583333446,
            "velocity": 0.4094488188976378,
            "duration": 0.08620683333333545
          },
          {
            "name": "C#5",
            "midi": 73,
            "time": 82.4137326666678,
            "velocity": 0.5039370078740157,
            "duration": 0.08620683333333545
          },
          {
            "name": "F#4",
            "midi": 66,
            "time": 82.4137326666678,
            "velocity": 0.4015748031496063,
            "duration": 0.08620683333333545
          },
          {
            "name": "C#6",
            "midi": 85,
            "time": 82.49993950000113,
            "velocity": 0.5590551181102362,
            "duration": 0.08620683333333545
          },
          {
            "name": "A#5",
            "midi": 82,
            "time": 82.49993950000113,
            "velocity": 0.4409448818897638,
            "duration": 0.08620683333333545
          },
          {
            "name": "F#3",
            "midi": 54,
            "time": 82.49993950000113,
            "velocity": 0.48031496062992124,
            "duration": 0.08620683333333545
          },
          {
            "name": "G#5",
            "midi": 80,
            "time": 82.58614633333447,
            "velocity": 0.5275590551181102,
            "duration": 0.08620683333333545
          },
          {
            "name": "C#4",
            "midi": 61,
            "time": 82.58614633333447,
            "velocity": 0.4251968503937008,
            "duration": 0.08620683333333545
          },
          {
            "name": "F#5",
            "midi": 78,
            "time": 82.6723531666678,
            "velocity": 0.5275590551181102,
            "duration": 0.08620683333333545
          },
          {
            "name": "A#4",
            "midi": 70,
            "time": 82.6723531666678,
            "velocity": 0.4015748031496063,
            "duration": 0.08620683333333545
          },
          {
            "name": "F#6",
            "midi": 90,
            "time": 82.75856000000114,
            "velocity": 0.5748031496062992,
            "duration": 0.08620683333333545
          },
          {
            "name": "D#6",
            "midi": 87,
            "time": 82.75856000000114,
            "velocity": 0.4566929133858268,
            "duration": 0.08620683333333545
          },
          {
            "name": "A#3",
            "midi": 58,
            "time": 82.75856000000114,
            "velocity": 0.48031496062992124,
            "duration": 0.08620683333333545
          },
          {
            "name": "C#6",
            "midi": 85,
            "time": 82.84476683333448,
            "velocity": 0.5275590551181102,
            "duration": 0.08620683333333545
          },
          {
            "name": "F#4",
            "midi": 66,
            "time": 82.84476683333448,
            "velocity": 0.4409448818897638,
            "duration": 0.08620683333333545
          },
          {
            "name": "A#5",
            "midi": 82,
            "time": 82.93097366666781,
            "velocity": 0.5118110236220472,
            "duration": 0.08620683333333545
          },
          {
            "name": "C#5",
            "midi": 73,
            "time": 82.93097366666781,
            "velocity": 0.4251968503937008,
            "duration": 0.08620683333333545
          },
          {
            "name": "A#6",
            "midi": 94,
            "time": 83.01718050000115,
            "velocity": 0.5905511811023622,
            "duration": 0.08620683333333545
          },
          {
            "name": "F#6",
            "midi": 90,
            "time": 83.01718050000115,
            "velocity": 0.4645669291338583,
            "duration": 0.08620683333333545
          },
          {
            "name": "C#4",
            "midi": 61,
            "time": 83.01718050000115,
            "velocity": 0.5118110236220472,
            "duration": 0.08620683333333545
          },
          {
            "name": "D#6",
            "midi": 87,
            "time": 83.10338733333448,
            "velocity": 0.5433070866141733,
            "duration": 0.08620683333333545
          },
          {
            "name": "A#4",
            "midi": 70,
            "time": 83.10338733333448,
            "velocity": 0.4566929133858268,
            "duration": 0.08620683333333545
          },
          {
            "name": "C#6",
            "midi": 85,
            "time": 83.18959416666782,
            "velocity": 0.5196850393700787,
            "duration": 0.08620683333333545
          },
          {
            "name": "F#5",
            "midi": 78,
            "time": 83.18959416666782,
            "velocity": 0.4409448818897638,
            "duration": 0.08620683333333545
          },
          {
            "name": "F#6",
            "midi": 90,
            "time": 83.27580100000115,
            "velocity": 0.6141732283464567,
            "duration": 0.08620683333333545
          },
          {
            "name": "D#6",
            "midi": 87,
            "time": 83.27580100000115,
            "velocity": 0.4881889763779528,
            "duration": 0.08620683333333545
          },
          {
            "name": "F#4",
            "midi": 66,
            "time": 83.27580100000115,
            "velocity": 0.5275590551181102,
            "duration": 0.08620683333333545
          },
          {
            "name": "C#6",
            "midi": 85,
            "time": 83.36200783333449,
            "velocity": 0.5511811023622047,
            "duration": 0.08620683333333545
          },
          {
            "name": "A#4",
            "midi": 70,
            "time": 83.36200783333449,
            "velocity": 0.4645669291338583,
            "duration": 0.08620683333333545
          },
          {
            "name": "A#5",
            "midi": 82,
            "time": 83.44821466666782,
            "velocity": 0.5433070866141733,
            "duration": 0.08620683333333545
          },
          {
            "name": "F#5",
            "midi": 78,
            "time": 83.44821466666782,
            "velocity": 0.4566929133858268,
            "duration": 0.08620683333333545
          },
          {
            "name": "A#6",
            "midi": 94,
            "time": 83.53442150000116,
            "velocity": 0.6141732283464567,
            "duration": 0.08620683333333545
          },
          {
            "name": "F#6",
            "midi": 90,
            "time": 83.53442150000116,
            "velocity": 0.4881889763779528,
            "duration": 0.08620683333333545
          },
          {
            "name": "C#4",
            "midi": 61,
            "time": 83.53442150000116,
            "velocity": 0.5354330708661418,
            "duration": 0.08620683333333545
          },
          {
            "name": "D#6",
            "midi": 87,
            "time": 83.6206283333345,
            "velocity": 0.5590551181102362,
            "duration": 0.08620683333333545
          },
          {
            "name": "A#4",
            "midi": 70,
            "time": 83.6206283333345,
            "velocity": 0.47244094488188976,
            "duration": 0.08620683333333545
          },
          {
            "name": "C#6",
            "midi": 85,
            "time": 83.70683516666783,
            "velocity": 0.5511811023622047,
            "duration": 0.08620683333333545
          },
          {
            "name": "F#5",
            "midi": 78,
            "time": 83.70683516666783,
            "velocity": 0.4645669291338583,
            "duration": 0.08620683333333545
          },
          {
            "name": "F#6",
            "midi": 90,
            "time": 83.79304200000117,
            "velocity": 0.6377952755905512,
            "duration": 0.08620683333333545
          },
          {
            "name": "D#6",
            "midi": 87,
            "time": 83.79304200000117,
            "velocity": 0.5039370078740157,
            "duration": 0.08620683333333545
          },
          {
            "name": "F#4",
            "midi": 66,
            "time": 83.79304200000117,
            "velocity": 0.5669291338582677,
            "duration": 0.08620683333333545
          },
          {
            "name": "C#6",
            "midi": 85,
            "time": 83.8792488333345,
            "velocity": 0.5826771653543307,
            "duration": 0.08620683333333545
          },
          {
            "name": "A#4",
            "midi": 70,
            "time": 83.8792488333345,
            "velocity": 0.48031496062992124,
            "duration": 0.08620683333333545
          },
          {
            "name": "A#5",
            "midi": 82,
            "time": 83.96545566666784,
            "velocity": 0.5748031496062992,
            "duration": 0.08620683333333545
          },
          {
            "name": "F#5",
            "midi": 78,
            "time": 83.96545566666784,
            "velocity": 0.4645669291338583,
            "duration": 0.08620683333333545
          },
          {
            "name": "A#6",
            "midi": 94,
            "time": 84.05166250000117,
            "velocity": 0.6377952755905512,
            "duration": 0.08620683333333545
          },
          {
            "name": "F#6",
            "midi": 90,
            "time": 84.05166250000117,
            "velocity": 0.5039370078740157,
            "duration": 0.08620683333333545
          },
          {
            "name": "C#4",
            "midi": 61,
            "time": 84.05166250000117,
            "velocity": 0.5669291338582677,
            "duration": 0.08620683333333545
          },
          {
            "name": "D#6",
            "midi": 87,
            "time": 84.1378693333345,
            "velocity": 0.5905511811023622,
            "duration": 0.08620683333333545
          },
          {
            "name": "A#4",
            "midi": 70,
            "time": 84.1378693333345,
            "velocity": 0.5118110236220472,
            "duration": 0.08620683333333545
          },
          {
            "name": "C#6",
            "midi": 85,
            "time": 84.22407616666784,
            "velocity": 0.5826771653543307,
            "duration": 0.08620683333333545
          },
          {
            "name": "F#5",
            "midi": 78,
            "time": 84.22407616666784,
            "velocity": 0.49606299212598426,
            "duration": 0.08620683333333545
          },
          {
            "name": "F#6",
            "midi": 90,
            "time": 84.31028300000118,
            "velocity": 0.6456692913385826,
            "duration": 0.08620683333333545
          },
          {
            "name": "D#6",
            "midi": 87,
            "time": 84.31028300000118,
            "velocity": 0.5118110236220472,
            "duration": 0.08620683333333545
          },
          {
            "name": "F#4",
            "midi": 66,
            "time": 84.31028300000118,
            "velocity": 0.5748031496062992,
            "duration": 0.08620683333333545
          },
          {
            "name": "C#6",
            "midi": 85,
            "time": 84.39648983333451,
            "velocity": 0.5905511811023622,
            "duration": 0.08620683333333545
          },
          {
            "name": "A#4",
            "midi": 70,
            "time": 84.39648983333451,
            "velocity": 0.5275590551181102,
            "duration": 0.08620683333333545
          },
          {
            "name": "A#5",
            "midi": 82,
            "time": 84.48269666666785,
            "velocity": 0.5905511811023622,
            "duration": 0.08620683333333545
          },
          {
            "name": "F#5",
            "midi": 78,
            "time": 84.48269666666785,
            "velocity": 0.5196850393700787,
            "duration": 0.08620683333333545
          },
          {
            "name": "A#6",
            "midi": 94,
            "time": 84.56890350000118,
            "velocity": 0.6692913385826772,
            "duration": 0.08620683333333545
          },
          {
            "name": "F#6",
            "midi": 90,
            "time": 84.56890350000118,
            "velocity": 0.5275590551181102,
            "duration": 0.08620683333333545
          },
          {
            "name": "C#4",
            "midi": 61,
            "time": 84.56890350000118,
            "velocity": 0.5905511811023622,
            "duration": 0.08620683333333545
          },
          {
            "name": "D#6",
            "midi": 87,
            "time": 84.65511033333452,
            "velocity": 0.6062992125984252,
            "duration": 0.08620683333333545
          },
          {
            "name": "A#4",
            "midi": 70,
            "time": 84.65511033333452,
            "velocity": 0.5433070866141733,
            "duration": 0.08620683333333545
          },
          {
            "name": "C#6",
            "midi": 85,
            "time": 84.74131716666786,
            "velocity": 0.5905511811023622,
            "duration": 0.08620683333333545
          },
          {
            "name": "F#5",
            "midi": 78,
            "time": 84.74131716666786,
            "velocity": 0.5433070866141733,
            "duration": 0.08620683333333545
          },
          {
            "name": "A#5",
            "midi": 82,
            "time": 84.82752400000119,
            "velocity": 0.7007874015748031,
            "duration": 0.08620683333333545
          },
          {
            "name": "F#6",
            "midi": 90,
            "time": 84.82752400000119,
            "velocity": 0.7007874015748031,
            "duration": 0.08620683333333545
          },
          {
            "name": "F#4",
            "midi": 66,
            "time": 84.82752400000119,
            "velocity": 0.6377952755905512,
            "duration": 0.08620683333333545
          },
          {
            "name": "F#5",
            "midi": 78,
            "time": 84.99993766666786,
            "velocity": 0.7401574803149606,
            "duration": 0.08620683333333545
          },
          {
            "name": "F#6",
            "midi": 90,
            "time": 84.99993766666786,
            "velocity": 0.7401574803149606,
            "duration": 0.08620683333333545
          },
          {
            "name": "F#3",
            "midi": 54,
            "time": 84.99993766666786,
            "velocity": 0.6850393700787402,
            "duration": 0.08620683333333545
          },
          {
            "name": "F#4",
            "midi": 66,
            "time": 84.99993766666786,
            "velocity": 0.6850393700787402,
            "duration": 0.08620683333333545
          },
          {
            "name": "D#6",
            "midi": 87,
            "time": 85.0861445000012,
            "velocity": 0.7401574803149606,
            "duration": 0.06465512500000159
          },
          {
            "name": "D#5",
            "midi": 75,
            "time": 85.0861445000012,
            "velocity": 0.7401574803149606,
            "duration": 0.06465512500000159
          },
          {
            "name": "D#4",
            "midi": 63,
            "time": 85.0861445000012,
            "velocity": 0.6535433070866141,
            "duration": 0.06465512500000159
          },
          {
            "name": "D#3",
            "midi": 51,
            "time": 85.0861445000012,
            "velocity": 0.6535433070866141,
            "duration": 0.06465512500000159
          },
          {
            "name": "C#6",
            "midi": 85,
            "time": 85.17235133333453,
            "velocity": 0.7480314960629921,
            "duration": 0.06465512500000159
          },
          {
            "name": "C#5",
            "midi": 73,
            "time": 85.17235133333453,
            "velocity": 0.7480314960629921,
            "duration": 0.06465512500000159
          },
          {
            "name": "C#4",
            "midi": 61,
            "time": 85.17235133333453,
            "velocity": 0.6692913385826772,
            "duration": 0.06465512500000159
          },
          {
            "name": "C#3",
            "midi": 49,
            "time": 85.17235133333453,
            "velocity": 0.6692913385826772,
            "duration": 0.06465512500000159
          },
          {
            "name": "A#5",
            "midi": 82,
            "time": 85.25855816666787,
            "velocity": 0.7559055118110236,
            "duration": 0.06465512500000159
          },
          {
            "name": "A#4",
            "midi": 70,
            "time": 85.25855816666787,
            "velocity": 0.7559055118110236,
            "duration": 0.06465512500000159
          },
          {
            "name": "A#3",
            "midi": 58,
            "time": 85.25855816666787,
            "velocity": 0.6771653543307087,
            "duration": 0.06465512500000159
          },
          {
            "name": "A#2",
            "midi": 46,
            "time": 85.25855816666787,
            "velocity": 0.6771653543307087,
            "duration": 0.06465512500000159
          },
          {
            "name": "G#5",
            "midi": 80,
            "time": 85.3447650000012,
            "velocity": 0.7637795275590551,
            "duration": 0.06465512500000159
          },
          {
            "name": "G#4",
            "midi": 68,
            "time": 85.3447650000012,
            "velocity": 0.7637795275590551,
            "duration": 0.06465512500000159
          },
          {
            "name": "G#3",
            "midi": 56,
            "time": 85.3447650000012,
            "velocity": 0.6771653543307087,
            "duration": 0.06465512500000159
          },
          {
            "name": "G#2",
            "midi": 44,
            "time": 85.3447650000012,
            "velocity": 0.6771653543307087,
            "duration": 0.06465512500000159
          },
          {
            "name": "F#5",
            "midi": 78,
            "time": 85.43097183333454,
            "velocity": 0.7716535433070866,
            "duration": 0.06465512500000159
          },
          {
            "name": "F#4",
            "midi": 66,
            "time": 85.43097183333454,
            "velocity": 0.7716535433070866,
            "duration": 0.06465512500000159
          },
          {
            "name": "F#3",
            "midi": 54,
            "time": 85.43097183333454,
            "velocity": 0.6850393700787402,
            "duration": 0.06465512500000159
          },
          {
            "name": "F#2",
            "midi": 42,
            "time": 85.43097183333454,
            "velocity": 0.6850393700787402,
            "duration": 0.06465512500000159
          },
          {
            "name": "D#5",
            "midi": 75,
            "time": 85.51717866666787,
            "velocity": 0.7716535433070866,
            "duration": 0.06465512500000159
          },
          {
            "name": "D#4",
            "midi": 63,
            "time": 85.51717866666787,
            "velocity": 0.7716535433070866,
            "duration": 0.06465512500000159
          },
          {
            "name": "D#3",
            "midi": 51,
            "time": 85.51717866666787,
            "velocity": 0.6929133858267716,
            "duration": 0.06465512500000159
          },
          {
            "name": "D#2",
            "midi": 39,
            "time": 85.51717866666787,
            "velocity": 0.6929133858267716,
            "duration": 0.06465512500000159
          },
          {
            "name": "C#5",
            "midi": 73,
            "time": 85.60338550000121,
            "velocity": 0.7874015748031497,
            "duration": 0.06465512500000159
          },
          {
            "name": "C#4",
            "midi": 61,
            "time": 85.60338550000121,
            "velocity": 0.7874015748031497,
            "duration": 0.06465512500000159
          },
          {
            "name": "C#2",
            "midi": 37,
            "time": 85.60338550000121,
            "velocity": 0.7007874015748031,
            "duration": 0.06465512500000159
          },
          {
            "name": "C#3",
            "midi": 49,
            "time": 85.60338550000121,
            "velocity": 0.7007874015748031,
            "duration": 0.06465512500000159
          },
          {
            "name": "A#4",
            "midi": 70,
            "time": 85.68959233333455,
            "velocity": 0.7952755905511811,
            "duration": 0.06465512500000159
          },
          {
            "name": "A#3",
            "midi": 58,
            "time": 85.68959233333455,
            "velocity": 0.7952755905511811,
            "duration": 0.06465512500000159
          },
          {
            "name": "A#1",
            "midi": 34,
            "time": 85.68959233333455,
            "velocity": 0.7007874015748031,
            "duration": 0.06465512500000159
          },
          {
            "name": "A#2",
            "midi": 46,
            "time": 85.68959233333455,
            "velocity": 0.7007874015748031,
            "duration": 0.06465512500000159
          },
          {
            "name": "G#4",
            "midi": 68,
            "time": 85.77579916666788,
            "velocity": 0.8110236220472441,
            "duration": 0.06465512500000159
          },
          {
            "name": "G#3",
            "midi": 56,
            "time": 85.77579916666788,
            "velocity": 0.8110236220472441,
            "duration": 0.06465512500000159
          },
          {
            "name": "G#1",
            "midi": 32,
            "time": 85.77579916666788,
            "velocity": 0.7244094488188977,
            "duration": 0.06465512500000159
          },
          {
            "name": "G#2",
            "midi": 44,
            "time": 85.77579916666788,
            "velocity": 0.7244094488188977,
            "duration": 0.06465512500000159
          },
          {
            "name": "F#3",
            "midi": 54,
            "time": 85.86200600000122,
            "velocity": 0.8740157480314961,
            "duration": 0.12931025000000318
          },
          {
            "name": "F#4",
            "midi": 66,
            "time": 85.86200600000122,
            "velocity": 0.8740157480314961,
            "duration": 0.12931025000000318
          },
          {
            "name": "F#1",
            "midi": 30,
            "time": 85.86200600000122,
            "velocity": 0.7795275590551181,
            "duration": 0.12931025000000318
          },
          {
            "name": "F#2",
            "midi": 42,
            "time": 85.86200600000122,
            "velocity": 0.7795275590551181,
            "duration": 0.12931025000000318
          },
          {
            "name": "F#3",
            "midi": 54,
            "time": 86.34691943750121,
            "velocity": 0.7322834645669292,
            "duration": 0.5172409999999985
          },
          {
            "name": "C#4",
            "midi": 61,
            "time": 86.36308321875121,
            "velocity": 0.7716535433070866,
            "duration": 0.5334047812499989
          },
          {
            "name": "A#6",
            "midi": 94,
            "time": 86.37924700000121,
            "velocity": 0.9291338582677166,
            "duration": 0.5172409999999985
          },
          {
            "name": "F#6",
            "midi": 90,
            "time": 86.37924700000121,
            "velocity": 0.8503937007874016,
            "duration": 0.5172409999999985
          },
          {
            "name": "C#6",
            "midi": 85,
            "time": 86.37924700000121,
            "velocity": 0.8503937007874016,
            "duration": 0.5172409999999985
          },
          {
            "name": "A#5",
            "midi": 82,
            "time": 86.37924700000121,
            "velocity": 0.8503937007874016,
            "duration": 0.5172409999999985
          },
          {
            "name": "A#4",
            "midi": 70,
            "time": 86.37924700000121,
            "velocity": 0.8503937007874016,
            "duration": 0.5172409999999985
          },
          {
            "name": "F#3",
            "midi": 54,
            "time": 86.89648800000121,
            "velocity": 0.8818897637795275,
            "duration": 1.034481999999997
          },
          {
            "name": "F#1",
            "midi": 30,
            "time": 86.89648800000121,
            "velocity": 0.8031496062992126,
            "duration": 1.034481999999997
          },
          {
            "name": "F#2",
            "midi": 42,
            "time": 86.89648800000121,
            "velocity": 0.8031496062992126,
            "duration": 1.034481999999997
          }
        ],
        "controlChanges": {
          "7": [
            {
              "number": 7,
              "time": 0,
              "value": 0.7874015748031497
            },
            {
              "number": 7,
              "time": 0,
              "value": 0.7874015748031497
            }
          ],
          "10": [
            {
              "number": 10,
              "time": 0,
              "value": 0.5039370078740157
            },
            {
              "number": 10,
              "time": 0,
              "value": 0.5039370078740157
            }
          ],
          "64": [
            {
              "number": 64,
              "time": 0,
              "value": 0
            },
            {
              "number": 64,
              "time": 0,
              "value": 0
            },
            {
              "number": 64,
              "time": 0,
              "value": 0
            },
            {
              "number": 64,
              "time": 1.0797405875000001,
              "value": 1
            },
            {
              "number": 64,
              "time": 1.5635764395833338,
              "value": 0
            },
            {
              "number": 64,
              "time": 2.1228432708333336,
              "value": 1
            },
            {
              "number": 64,
              "time": 2.335127597916667,
              "value": 0
            },
            {
              "number": 64,
              "time": 2.6282308312500002,
              "value": 1
            },
            {
              "number": 64,
              "time": 3.103446,
              "value": 0
            },
            {
              "number": 64,
              "time": 3.16486836875,
              "value": 1
            },
            {
              "number": 64,
              "time": 3.366376841666667,
              "value": 0
            },
            {
              "number": 64,
              "time": 3.658402489583333,
              "value": 1
            },
            {
              "number": 64,
              "time": 4.137928,
              "value": 0
            },
            {
              "number": 64,
              "time": 5.211203075000004,
              "value": 1
            },
            {
              "number": 64,
              "time": 5.693961341666673,
              "value": 0
            },
            {
              "number": 64,
              "time": 7.280167075000013,
              "value": 1
            },
            {
              "number": 64,
              "time": 7.766158097916683,
              "value": 0
            },
            {
              "number": 64,
              "time": 8.275856000000017,
              "value": 0
            },
            {
              "number": 64,
              "time": 8.275856000000017,
              "value": 0
            },
            {
              "number": 64,
              "time": 9.356674172916687,
              "value": 1
            },
            {
              "number": 64,
              "time": 9.831889341666688,
              "value": 0
            },
            {
              "number": 64,
              "time": 10.379302733333358,
              "value": 1
            },
            {
              "number": 64,
              "time": 10.607750841666691,
              "value": 0
            },
            {
              "number": 64,
              "time": 10.89654373333336,
              "value": 1
            },
            {
              "number": 64,
              "time": 11.382534756250028,
              "value": 0
            },
            {
              "number": 64,
              "time": 11.440724368750027,
              "value": 1
            },
            {
              "number": 64,
              "time": 11.646543183333362,
              "value": 0
            },
            {
              "number": 64,
              "time": 11.938568831250029,
              "value": 1
            },
            {
              "number": 64,
              "time": 12.41378400000003,
              "value": 0
            },
            {
              "number": 64,
              "time": 13.502145270833367,
              "value": 1
            },
            {
              "number": 64,
              "time": 13.971972512500036,
              "value": 0
            },
            {
              "number": 64,
              "time": 14.524773831250037,
              "value": 1
            },
            {
              "number": 64,
              "time": 15.520462756250037,
              "value": 0
            },
            {
              "number": 64,
              "time": 15.57110927083337,
              "value": 1
            },
            {
              "number": 64,
              "time": 16.551712000000027,
              "value": 0
            },
            {
              "number": 64,
              "time": 18.662701831249997,
              "value": 1
            },
            {
              "number": 64,
              "time": 18.891149939583332,
              "value": 0
            },
            {
              "number": 64,
              "time": 19.1573135375,
              "value": 1
            },
            {
              "number": 64,
              "time": 19.59481321666667,
              "value": 0
            },
            {
              "number": 64,
              "time": 19.70903727083334,
              "value": 1
            },
            {
              "number": 64,
              "time": 19.95149398958334,
              "value": 0
            },
            {
              "number": 64,
              "time": 20.19179553750001,
              "value": 1
            },
            {
              "number": 64,
              "time": 20.68964000000001,
              "value": 0
            },
            {
              "number": 64,
              "time": 20.73597617291668,
              "value": 1
            },
            {
              "number": 64,
              "time": 21.21873443958334,
              "value": 0
            },
            {
              "number": 64,
              "time": 22.797397074999985,
              "value": 1
            },
            {
              "number": 64,
              "time": 24.831878341666634,
              "value": 0
            },
            {
              "number": 64,
              "time": 24.904076564583303,
              "value": 1
            },
            {
              "number": 64,
              "time": 25.348041756249966,
              "value": 0
            },
            {
              "number": 64,
              "time": 25.90084307499996,
              "value": 1
            },
            {
              "number": 64,
              "time": 26.394377195833286,
              "value": 0
            },
            {
              "number": 64,
              "time": 26.950411270833282,
              "value": 1
            },
            {
              "number": 64,
              "time": 27.93855709791661,
              "value": 0
            },
            {
              "number": 64,
              "time": 28.01075532083328,
              "value": 1
            },
            {
              "number": 64,
              "time": 28.97519426874994,
              "value": 0
            },
            {
              "number": 64,
              "time": 29.01506492916661,
              "value": 1
            },
            {
              "number": 64,
              "time": 29.490280097916607,
              "value": 0
            },
            {
              "number": 64,
              "time": 30.037693489583265,
              "value": 1
            },
            {
              "number": 64,
              "time": 30.539848293749934,
              "value": 0
            },
            {
              "number": 64,
              "time": 31.094804783333263,
              "value": 1
            },
            {
              "number": 64,
              "time": 31.558166512499923,
              "value": 0
            },
            {
              "number": 64,
              "time": 31.616356124999925,
              "value": 1
            },
            {
              "number": 64,
              "time": 32.077562683333255,
              "value": 0
            },
            {
              "number": 64,
              "time": 32.13359712499992,
              "value": 1
            },
            {
              "number": 64,
              "time": 33.11312226874995,
              "value": 0
            },
            {
              "number": 64,
              "time": 33.18316532083328,
              "value": 1
            },
            {
              "number": 64,
              "time": 37.248895097916716,
              "value": 0
            },
            {
              "number": 64,
              "time": 37.317860564583384,
              "value": 1
            },
            {
              "number": 64,
              "time": 41.38251275625015,
              "value": 0
            },
            {
              "number": 64,
              "time": 41.46333166250015,
              "value": 1
            },
            {
              "number": 64,
              "time": 41.90083134166683,
              "value": 0
            },
            {
              "number": 64,
              "time": 41.96871922291683,
              "value": 1
            },
            {
              "number": 64,
              "time": 42.93100300000019,
              "value": 0
            },
            {
              "number": 64,
              "time": 42.97733917291686,
              "value": 1
            },
            {
              "number": 64,
              "time": 43.4482440000002,
              "value": 0
            },
            {
              "number": 64,
              "time": 43.5096663687502,
              "value": 1
            },
            {
              "number": 64,
              "time": 43.98057119583355,
              "value": 0
            },
            {
              "number": 64,
              "time": 44.049536662500216,
              "value": 1
            },
            {
              "number": 64,
              "time": 45.004277341666906,
              "value": 0
            },
            {
              "number": 64,
              "time": 45.076475564583575,
              "value": 1
            },
            {
              "number": 64,
              "time": 45.51720800000025,
              "value": 0
            },
            {
              "number": 64,
              "time": 45.57108727083359,
              "value": 1
            },
            {
              "number": 64,
              "time": 45.780138841666925,
              "value": 0
            },
            {
              "number": 64,
              "time": 45.82970777083359,
              "value": 1
            },
            {
              "number": 64,
              "time": 46.55707792708361,
              "value": 0
            },
            {
              "number": 64,
              "time": 46.620655466666946,
              "value": 1
            },
            {
              "number": 64,
              "time": 47.080784439583624,
              "value": 0
            },
            {
              "number": 64,
              "time": 47.13789646666696,
              "value": 1
            },
            {
              "number": 64,
              "time": 48.11526643958365,
              "value": 0
            },
            {
              "number": 64,
              "time": 48.18315432083365,
              "value": 1
            },
            {
              "number": 64,
              "time": 49.15729153750034,
              "value": 0
            },
            {
              "number": 64,
              "time": 49.21440356458368,
              "value": 1
            },
            {
              "number": 64,
              "time": 49.655136000000354,
              "value": 0
            },
            {
              "number": 64,
              "time": 50.73595417291705,
              "value": 1
            },
            {
              "number": 64,
              "time": 51.218712439583726,
              "value": 0
            },
            {
              "number": 64,
              "time": 51.73918619583374,
              "value": 1
            },
            {
              "number": 64,
              "time": 51.98703084166708,
              "value": 0
            },
            {
              "number": 64,
              "time": 52.245651341667084,
              "value": 1
            },
            {
              "number": 64,
              "time": 52.75858200000043,
              "value": 0
            },
            {
              "number": 64,
              "time": 52.82000436875043,
              "value": 1
            },
            {
              "number": 64,
              "time": 53.0215128416671,
              "value": 0
            },
            {
              "number": 64,
              "time": 53.31353848958378,
              "value": 1
            },
            {
              "number": 64,
              "time": 53.793064000000456,
              "value": 0
            },
            {
              "number": 64,
              "time": 54.87711492916715,
              "value": 1
            },
            {
              "number": 64,
              "time": 55.35664043958383,
              "value": 0
            },
            {
              "number": 64,
              "time": 55.908364172917175,
              "value": 1
            },
            {
              "number": 64,
              "time": 56.39543278125052,
              "value": 0
            },
            {
              "number": 64,
              "time": 56.455777564583855,
              "value": 1
            },
            {
              "number": 64,
              "time": 56.90297551250053,
              "value": 0
            },
            {
              "number": 64,
              "time": 56.9687082229172,
              "value": 1
            },
            {
              "number": 64,
              "time": 57.42560443958388,
              "value": 0
            },
            {
              "number": 64,
              "time": 57.49025956458388,
              "value": 1
            },
            {
              "number": 64,
              "time": 57.938535097917224,
              "value": 0
            },
            {
              "number": 64,
              "time": 57.98810402708389,
              "value": 1
            },
            {
              "number": 64,
              "time": 58.44823300000057,
              "value": 0
            },
            {
              "number": 64,
              "time": 58.49456917291724,
              "value": 1
            },
            {
              "number": 64,
              "time": 58.97409468333392,
              "value": 0
            },
            {
              "number": 64,
              "time": 59.04198256458392,
              "value": 1
            },
            {
              "number": 64,
              "time": 59.46762880416726,
              "value": 0
            },
            {
              "number": 64,
              "time": 59.51719773333393,
              "value": 1
            },
            {
              "number": 64,
              "time": 60.007499097917275,
              "value": 0
            },
            {
              "number": 64,
              "time": 60.07215422291728,
              "value": 1
            },
            {
              "number": 64,
              "time": 60.52474009791729,
              "value": 0
            },
            {
              "number": 64,
              "time": 60.56676592916729,
              "value": 1
            },
            {
              "number": 64,
              "time": 61.0452138541673,
              "value": 0
            },
            {
              "number": 64,
              "time": 61.076463831250635,
              "value": 1
            },
            {
              "number": 64,
              "time": 61.56137726875065,
              "value": 0
            },
            {
              "number": 64,
              "time": 61.62818756458398,
              "value": 1
            },
            {
              "number": 64,
              "time": 62.07538551250066,
              "value": 0
            },
            {
              "number": 64,
              "time": 62.15620441875066,
              "value": 1
            },
            {
              "number": 64,
              "time": 63.11094509791735,
              "value": 0
            },
            {
              "number": 64,
              "time": 63.17236746666735,
              "value": 1
            },
            {
              "number": 64,
              "time": 64.14434951250071,
              "value": 0
            },
            {
              "number": 64,
              "time": 64.20684946666738,
              "value": 1
            },
            {
              "number": 64,
              "time": 65.17775392708407,
              "value": 0
            },
            {
              "number": 64,
              "time": 65.22624527083407,
              "value": 1
            },
            {
              "number": 64,
              "time": 66.1540463145841,
              "value": 0
            },
            {
              "number": 64,
              "time": 85.99885934791789,
              "value": 1
            },
            {
              "number": 64,
              "time": 87.93097000000121,
              "value": 0
            }
          ],
          "91": [
            {
              "number": 91,
              "time": 0,
              "value": 1
            },
            {
              "number": 91,
              "time": 0,
              "value": 1
            },
            {
              "number": 91,
              "time": 0,
              "value": 1
            },
            {
              "number": 91,
              "time": 8.275856000000017,
              "value": 1
            },
            {
              "number": 91,
              "time": 8.275856000000017,
              "value": 1
            },
            {
              "number": 91,
              "time": 49.655136000000354,
              "value": 1
            },
            {
              "number": 91,
              "time": 49.655136000000354,
              "value": 1
            }
          ]
        },
        "id": 0,
        "name": "Schwarze-Tasten-Etde",
        "instrumentNumber": 0,
        "instrument": "acoustic grand piano",
        "instrumentFamily": "piano",
        "channelNumber": 0,
        "isPercussion": false
      }
    ]
  }