var piece = {
    "header": {
      "PPQ": 96,
      "bpm": 140.00014000014,
      "timeSignature": [
        4,
        4
      ],
      "name": ""
    },
    "startTime": 0,
    "duration": 13.392843749999995,
    "tracks": [
      {
        "startTime": 0,
        "duration": 0,
        "length": 0,
        "notes": [],
        "controlChanges": {},
        "id": 0
      },
      {
        "startTime": 0,
        "duration": 13.392843749999995,
        "length": 52,
        "notes": [
          {
            "name": "A5",
            "midi": 81,
            "time": 0,
            "velocity": 0.7874015748031497,
            "duration": 0.10714275000000001
          },
          {
            "name": "G5",
            "midi": 79,
            "time": 0.21428550000000002,
            "velocity": 0.7874015748031497,
            "duration": 0.10714275000000001
          },
          {
            "name": "F#5",
            "midi": 78,
            "time": 0.42857100000000004,
            "velocity": 0.7874015748031497,
            "duration": 0.10714274999999995
          },
          {
            "name": "E5",
            "midi": 76,
            "time": 0.8571420000000001,
            "velocity": 0.7874015748031497,
            "duration": 0.10714274999999995
          },
          {
            "name": "A5",
            "midi": 81,
            "time": 1.285713,
            "velocity": 0.7874015748031497,
            "duration": 0.10714274999999995
          },
          {
            "name": "G5",
            "midi": 79,
            "time": 1.4999985,
            "velocity": 0.7874015748031497,
            "duration": 0.10714274999999995
          },
          {
            "name": "F#5",
            "midi": 78,
            "time": 1.714284,
            "velocity": 0.7874015748031497,
            "duration": 0.10714274999999995
          },
          {
            "name": "E5",
            "midi": 76,
            "time": 2.142855,
            "velocity": 0.7874015748031497,
            "duration": 0.10714274999999995
          },
          {
            "name": "A5",
            "midi": 81,
            "time": 2.5714259999999998,
            "velocity": 0.7874015748031497,
            "duration": 0.10714274999999995
          },
          {
            "name": "G5",
            "midi": 79,
            "time": 2.7857114999999997,
            "velocity": 0.7874015748031497,
            "duration": 0.10714274999999995
          },
          {
            "name": "F#5",
            "midi": 78,
            "time": 2.9999969999999996,
            "velocity": 0.7874015748031497,
            "duration": 0.10714274999999995
          },
          {
            "name": "A5",
            "midi": 81,
            "time": 3.4285679999999994,
            "velocity": 0.7874015748031497,
            "duration": 0.10714274999999995
          },
          {
            "name": "G5",
            "midi": 79,
            "time": 3.6428534999999993,
            "velocity": 0.7874015748031497,
            "duration": 0.10714274999999995
          },
          {
            "name": "F#5",
            "midi": 78,
            "time": 3.857138999999999,
            "velocity": 0.7874015748031497,
            "duration": 0.10714274999999995
          },
          {
            "name": "E5",
            "midi": 76,
            "time": 4.285709999999999,
            "velocity": 0.7874015748031497,
            "duration": 0.1071427500000004
          },
          {
            "name": "C4",
            "midi": 60,
            "time": 4.714281,
            "velocity": 0.7874015748031497,
            "duration": 0.1071427500000004
          },
          {
            "name": "A5",
            "midi": 81,
            "time": 4.714281,
            "velocity": 0.7874015748031497,
            "duration": 0.1071427500000004
          },
          {
            "name": "C4",
            "midi": 60,
            "time": 4.9285665000000005,
            "velocity": 0.7874015748031497,
            "duration": 0.1071427500000004
          },
          {
            "name": "G5",
            "midi": 79,
            "time": 4.9285665000000005,
            "velocity": 0.7874015748031497,
            "duration": 0.1071427500000004
          },
          {
            "name": "E4",
            "midi": 64,
            "time": 5.142852000000001,
            "velocity": 0.7874015748031497,
            "duration": 3.428568000000004
          },
          {
            "name": "F#5",
            "midi": 78,
            "time": 5.142852000000001,
            "velocity": 0.7874015748031497,
            "duration": 0.1071427500000004
          },
          {
            "name": "E5",
            "midi": 76,
            "time": 5.571423000000002,
            "velocity": 0.7874015748031497,
            "duration": 0.1071427500000004
          },
          {
            "name": "A5",
            "midi": 81,
            "time": 5.999994000000003,
            "velocity": 0.7874015748031497,
            "duration": 0.1071427500000004
          },
          {
            "name": "G5",
            "midi": 79,
            "time": 6.2142795000000035,
            "velocity": 0.7874015748031497,
            "duration": 0.1071427500000004
          },
          {
            "name": "F#5",
            "midi": 78,
            "time": 6.428565000000004,
            "velocity": 0.7874015748031497,
            "duration": 0.1071427500000004
          },
          {
            "name": "A5",
            "midi": 81,
            "time": 6.857136000000005,
            "velocity": 0.7874015748031497,
            "duration": 0.1071427500000004
          },
          {
            "name": "G5",
            "midi": 79,
            "time": 7.071421500000006,
            "velocity": 0.7874015748031497,
            "duration": 0.1071427500000004
          },
          {
            "name": "F#5",
            "midi": 78,
            "time": 7.285707000000007,
            "velocity": 0.7874015748031497,
            "duration": 0.1071427500000004
          },
          {
            "name": "E5",
            "midi": 76,
            "time": 7.714278000000007,
            "velocity": 0.7874015748031497,
            "duration": 0.1071427500000004
          },
          {
            "name": "A5",
            "midi": 81,
            "time": 8.142849000000007,
            "velocity": 0.7874015748031497,
            "duration": 0.10714274999999951
          },
          {
            "name": "G5",
            "midi": 79,
            "time": 8.357134500000006,
            "velocity": 0.7874015748031497,
            "duration": 0.10714274999999951
          },
          {
            "name": "F4",
            "midi": 65,
            "time": 8.571420000000005,
            "velocity": 0.7874015748031497,
            "duration": 1.2857129999999977
          },
          {
            "name": "F#5",
            "midi": 78,
            "time": 8.571420000000005,
            "velocity": 0.7874015748031497,
            "duration": 0.10714274999999951
          },
          {
            "name": "E5",
            "midi": 76,
            "time": 8.999991000000005,
            "velocity": 0.7874015748031497,
            "duration": 0.10714274999999951
          },
          {
            "name": "A5",
            "midi": 81,
            "time": 9.428562000000005,
            "velocity": 0.7874015748031497,
            "duration": 0.10714274999999951
          },
          {
            "name": "G5",
            "midi": 79,
            "time": 9.642847500000004,
            "velocity": 0.7874015748031497,
            "duration": 0.10714274999999951
          },
          {
            "name": "B3",
            "midi": 59,
            "time": 9.857133000000003,
            "velocity": 0.7874015748031497,
            "duration": 1.2857129999999977
          },
          {
            "name": "F#5",
            "midi": 78,
            "time": 9.857133000000003,
            "velocity": 0.7874015748031497,
            "duration": 0.10714274999999951
          },
          {
            "name": "A5",
            "midi": 81,
            "time": 10.285704000000003,
            "velocity": 0.7874015748031497,
            "duration": 0.10714274999999951
          },
          {
            "name": "G5",
            "midi": 79,
            "time": 10.499989500000002,
            "velocity": 0.7874015748031497,
            "duration": 0.10714274999999951
          },
          {
            "name": "F#5",
            "midi": 78,
            "time": 10.714275,
            "velocity": 0.7874015748031497,
            "duration": 0.10714274999999951
          },
          {
            "name": "B3",
            "midi": 59,
            "time": 11.142846,
            "velocity": 0.7874015748031497,
            "duration": 0.4285709999999998
          },
          {
            "name": "E5",
            "midi": 76,
            "time": 11.142846,
            "velocity": 0.7874015748031497,
            "duration": 0.10714274999999951
          },
          {
            "name": "B3",
            "midi": 59,
            "time": 11.571417,
            "velocity": 0.7874015748031497,
            "duration": 0.42857099999999804
          },
          {
            "name": "A5",
            "midi": 81,
            "time": 11.571417,
            "velocity": 0.7874015748031497,
            "duration": 0.10714274999999951
          },
          {
            "name": "G5",
            "midi": 79,
            "time": 11.7857025,
            "velocity": 0.7874015748031497,
            "duration": 0.10714274999999951
          },
          {
            "name": "E4",
            "midi": 64,
            "time": 11.999987999999998,
            "velocity": 0.7874015748031497,
            "duration": 1.7142839999999975
          },
          {
            "name": "F#5",
            "midi": 78,
            "time": 11.999987999999998,
            "velocity": 0.7874015748031497,
            "duration": 0.10714274999999951
          },
          {
            "name": "E5",
            "midi": 76,
            "time": 12.428558999999998,
            "velocity": 0.7874015748031497,
            "duration": 0.10714274999999951
          },
          {
            "name": "A5",
            "midi": 81,
            "time": 12.857129999999998,
            "velocity": 0.7874015748031497,
            "duration": 0.10714274999999951
          },
          {
            "name": "G5",
            "midi": 79,
            "time": 13.071415499999997,
            "velocity": 0.7874015748031497,
            "duration": 0.10714274999999951
          },
          {
            "name": "F#5",
            "midi": 78,
            "time": 13.285700999999996,
            "velocity": 0.7874015748031497,
            "duration": 0.10714274999999951
          }
        ],
        "controlChanges": {},
        "id": 1,
        "name": "FL Keys 1",
        "channelNumber": 0,
        "isPercussion": false
      }
    ]
  }