var piece = {
    "header": {
      "PPQ": 480,
      "timeSignature": [
        4,
        4
      ],
      "bpm": 75,
      "name": ""
    },
    "startTime": 0,
    "duration": 198.07833333333357,
    "tracks": [
      {
        "startTime": 0,
        "duration": 198.07833333333357,
        "length": 287,
        "notes": [
          {
            "name": "F#4",
            "midi": 66,
            "time": 0,
            "velocity": 0.6299212598425197,
            "duration": 1.5183333333333335
          },
          {
            "name": "F#5",
            "midi": 78,
            "time": 0,
            "velocity": 0.6299212598425197,
            "duration": 1.5183333333333335
          },
          {
            "name": "A4",
            "midi": 69,
            "time": 1.6,
            "velocity": 0.6299212598425197,
            "duration": 1.5183333333333335
          },
          {
            "name": "A5",
            "midi": 81,
            "time": 1.6,
            "velocity": 0.6299212598425197,
            "duration": 1.5183333333333335
          },
          {
            "name": "F#4",
            "midi": 66,
            "time": 3.2,
            "velocity": 0.6299212598425197,
            "duration": 1.5183333333333335
          },
          {
            "name": "C#5",
            "midi": 73,
            "time": 3.2,
            "velocity": 0.6299212598425197,
            "duration": 1.5183333333333335
          },
          {
            "name": "C#6",
            "midi": 85,
            "time": 3.2,
            "velocity": 0.6299212598425197,
            "duration": 1.5183333333333335
          },
          {
            "name": "F#5",
            "midi": 78,
            "time": 4.800000000000001,
            "velocity": 0.6299212598425197,
            "duration": 1.3283333333333331
          },
          {
            "name": "G5",
            "midi": 79,
            "time": 6.2,
            "velocity": 0.6299212598425197,
            "duration": 0.18833333333333346
          },
          {
            "name": "F#4",
            "midi": 66,
            "time": 6.4,
            "velocity": 0.6299212598425197,
            "duration": 1.5183333333333335
          },
          {
            "name": "F#5",
            "midi": 78,
            "time": 6.4,
            "velocity": 0.6299212598425197,
            "duration": 1.5183333333333335
          },
          {
            "name": "A4",
            "midi": 69,
            "time": 8,
            "velocity": 0.6299212598425197,
            "duration": 1.1383333333333336
          },
          {
            "name": "A5",
            "midi": 81,
            "time": 8,
            "velocity": 0.6299212598425197,
            "duration": 1.1383333333333336
          },
          {
            "name": "C#4",
            "midi": 61,
            "time": 9.200000000000001,
            "velocity": 0.6299212598425197,
            "duration": 0.37833333333333385
          },
          {
            "name": "C#5",
            "midi": 73,
            "time": 9.200000000000001,
            "velocity": 0.6299212598425197,
            "duration": 0.37833333333333385
          },
          {
            "name": "B3",
            "midi": 59,
            "time": 9.600000000000001,
            "velocity": 0.6299212598425197,
            "duration": 1.5183333333333344
          },
          {
            "name": "F#4",
            "midi": 66,
            "time": 9.600000000000001,
            "velocity": 0.6299212598425197,
            "duration": 1.5183333333333344
          },
          {
            "name": "B4",
            "midi": 71,
            "time": 9.600000000000001,
            "velocity": 0.6299212598425197,
            "duration": 1.5183333333333344
          },
          {
            "name": "F#4",
            "midi": 66,
            "time": 11.200000000000003,
            "velocity": 0.6299212598425197,
            "duration": 1.5183333333333344
          },
          {
            "name": "F#4",
            "midi": 66,
            "time": 12.800000000000004,
            "velocity": 0.6299212598425197,
            "duration": 1.5183333333333344
          },
          {
            "name": "F#5",
            "midi": 78,
            "time": 12.800000000000004,
            "velocity": 0.6299212598425197,
            "duration": 1.5183333333333344
          },
          {
            "name": "A4",
            "midi": 69,
            "time": 14.400000000000006,
            "velocity": 0.6299212598425197,
            "duration": 1.5183333333333344
          },
          {
            "name": "A5",
            "midi": 81,
            "time": 14.400000000000006,
            "velocity": 0.6299212598425197,
            "duration": 1.5183333333333344
          },
          {
            "name": "F#4",
            "midi": 66,
            "time": 16.000000000000007,
            "velocity": 0.6299212598425197,
            "duration": 1.5183333333333344
          },
          {
            "name": "C#5",
            "midi": 73,
            "time": 16.000000000000007,
            "velocity": 0.6299212598425197,
            "duration": 1.5183333333333344
          },
          {
            "name": "C#6",
            "midi": 85,
            "time": 16.000000000000007,
            "velocity": 0.6299212598425197,
            "duration": 1.5183333333333344
          },
          {
            "name": "F#5",
            "midi": 78,
            "time": 17.60000000000001,
            "velocity": 0.6299212598425197,
            "duration": 1.3283333333333331
          },
          {
            "name": "G5",
            "midi": 79,
            "time": 19.000000000000007,
            "velocity": 0.6299212598425197,
            "duration": 0.18833333333333258
          },
          {
            "name": "F#4",
            "midi": 66,
            "time": 19.200000000000006,
            "velocity": 0.6299212598425197,
            "duration": 1.5183333333333344
          },
          {
            "name": "F#5",
            "midi": 78,
            "time": 19.200000000000006,
            "velocity": 0.6299212598425197,
            "duration": 1.5183333333333344
          },
          {
            "name": "A4",
            "midi": 69,
            "time": 20.800000000000008,
            "velocity": 0.6299212598425197,
            "duration": 1.1383333333333319
          },
          {
            "name": "A5",
            "midi": 81,
            "time": 20.800000000000008,
            "velocity": 0.6299212598425197,
            "duration": 1.1383333333333319
          },
          {
            "name": "C#4",
            "midi": 61,
            "time": 22.000000000000007,
            "velocity": 0.6299212598425197,
            "duration": 0.37833333333333385
          },
          {
            "name": "C#5",
            "midi": 73,
            "time": 22.000000000000007,
            "velocity": 0.6299212598425197,
            "duration": 0.37833333333333385
          },
          {
            "name": "B3",
            "midi": 59,
            "time": 22.40000000000001,
            "velocity": 0.6299212598425197,
            "duration": 1.5183333333333344
          },
          {
            "name": "F#4",
            "midi": 66,
            "time": 22.40000000000001,
            "velocity": 0.6299212598425197,
            "duration": 1.5183333333333344
          },
          {
            "name": "B4",
            "midi": 71,
            "time": 22.40000000000001,
            "velocity": 0.6299212598425197,
            "duration": 1.5183333333333344
          },
          {
            "name": "F#4",
            "midi": 66,
            "time": 24.00000000000001,
            "velocity": 0.6299212598425197,
            "duration": 1.5183333333333344
          },
          {
            "name": "F#4",
            "midi": 66,
            "time": 25.600000000000012,
            "velocity": 0.6299212598425197,
            "duration": 1.5183333333333344
          },
          {
            "name": "F#5",
            "midi": 78,
            "time": 25.600000000000012,
            "velocity": 0.6299212598425197,
            "duration": 1.5183333333333344
          },
          {
            "name": "A4",
            "midi": 69,
            "time": 27.200000000000014,
            "velocity": 0.6299212598425197,
            "duration": 1.5183333333333344
          },
          {
            "name": "A5",
            "midi": 81,
            "time": 27.200000000000014,
            "velocity": 0.6299212598425197,
            "duration": 1.5183333333333344
          },
          {
            "name": "F#4",
            "midi": 66,
            "time": 28.800000000000015,
            "velocity": 0.6299212598425197,
            "duration": 1.5183333333333344
          },
          {
            "name": "C#5",
            "midi": 73,
            "time": 28.800000000000015,
            "velocity": 0.6299212598425197,
            "duration": 1.5183333333333344
          },
          {
            "name": "C#6",
            "midi": 85,
            "time": 28.800000000000015,
            "velocity": 0.6299212598425197,
            "duration": 1.5183333333333344
          },
          {
            "name": "F#5",
            "midi": 78,
            "time": 30.400000000000016,
            "velocity": 0.6299212598425197,
            "duration": 1.3283333333333331
          },
          {
            "name": "G5",
            "midi": 79,
            "time": 31.800000000000015,
            "velocity": 0.6299212598425197,
            "duration": 0.18833333333333258
          },
          {
            "name": "F#4",
            "midi": 66,
            "time": 32.000000000000014,
            "velocity": 0.6299212598425197,
            "duration": 1.5183333333333309
          },
          {
            "name": "F#5",
            "midi": 78,
            "time": 32.000000000000014,
            "velocity": 0.6299212598425197,
            "duration": 1.5183333333333309
          },
          {
            "name": "A4",
            "midi": 69,
            "time": 33.60000000000001,
            "velocity": 0.6299212598425197,
            "duration": 1.1383333333333354
          },
          {
            "name": "A5",
            "midi": 81,
            "time": 33.60000000000001,
            "velocity": 0.6299212598425197,
            "duration": 1.1383333333333354
          },
          {
            "name": "C#4",
            "midi": 61,
            "time": 34.80000000000001,
            "velocity": 0.6299212598425197,
            "duration": 0.3783333333333303
          },
          {
            "name": "C#5",
            "midi": 73,
            "time": 34.80000000000001,
            "velocity": 0.6299212598425197,
            "duration": 0.3783333333333303
          },
          {
            "name": "B3",
            "midi": 59,
            "time": 35.20000000000001,
            "velocity": 0.6299212598425197,
            "duration": 1.5183333333333309
          },
          {
            "name": "F#4",
            "midi": 66,
            "time": 35.20000000000001,
            "velocity": 0.6299212598425197,
            "duration": 1.5183333333333309
          },
          {
            "name": "B4",
            "midi": 71,
            "time": 35.20000000000001,
            "velocity": 0.6299212598425197,
            "duration": 1.5183333333333309
          },
          {
            "name": "F#4",
            "midi": 66,
            "time": 36.800000000000004,
            "velocity": 0.6299212598425197,
            "duration": 1.5183333333333309
          },
          {
            "name": "F#4",
            "midi": 66,
            "time": 38.4,
            "velocity": 0.6299212598425197,
            "duration": 1.5183333333333309
          },
          {
            "name": "F#5",
            "midi": 78,
            "time": 38.4,
            "velocity": 0.6299212598425197,
            "duration": 1.5183333333333309
          },
          {
            "name": "A4",
            "midi": 69,
            "time": 39.99999999999999,
            "velocity": 0.6299212598425197,
            "duration": 1.5183333333333309
          },
          {
            "name": "A5",
            "midi": 81,
            "time": 39.99999999999999,
            "velocity": 0.6299212598425197,
            "duration": 1.5183333333333309
          },
          {
            "name": "F#4",
            "midi": 66,
            "time": 41.59999999999999,
            "velocity": 0.6299212598425197,
            "duration": 1.5183333333333309
          },
          {
            "name": "C#5",
            "midi": 73,
            "time": 41.59999999999999,
            "velocity": 0.6299212598425197,
            "duration": 1.5183333333333309
          },
          {
            "name": "C#6",
            "midi": 85,
            "time": 41.59999999999999,
            "velocity": 0.6299212598425197,
            "duration": 1.5183333333333309
          },
          {
            "name": "F#5",
            "midi": 78,
            "time": 43.19999999999998,
            "velocity": 0.6299212598425197,
            "duration": 1.3283333333333331
          },
          {
            "name": "G5",
            "midi": 79,
            "time": 44.59999999999998,
            "velocity": 0.6299212598425197,
            "duration": 0.18833333333333258
          },
          {
            "name": "F#4",
            "midi": 66,
            "time": 44.799999999999976,
            "velocity": 0.6299212598425197,
            "duration": 1.5183333333333309
          },
          {
            "name": "F#5",
            "midi": 78,
            "time": 44.799999999999976,
            "velocity": 0.6299212598425197,
            "duration": 1.5183333333333309
          },
          {
            "name": "A4",
            "midi": 69,
            "time": 46.39999999999997,
            "velocity": 0.6299212598425197,
            "duration": 1.1383333333333354
          },
          {
            "name": "A5",
            "midi": 81,
            "time": 46.39999999999997,
            "velocity": 0.6299212598425197,
            "duration": 1.1383333333333354
          },
          {
            "name": "C#4",
            "midi": 61,
            "time": 47.59999999999997,
            "velocity": 0.6299212598425197,
            "duration": 0.3783333333333303
          },
          {
            "name": "C#5",
            "midi": 73,
            "time": 47.59999999999997,
            "velocity": 0.6299212598425197,
            "duration": 0.3783333333333303
          },
          {
            "name": "B3",
            "midi": 59,
            "time": 47.99999999999997,
            "velocity": 0.6299212598425197,
            "duration": 1.5183333333333309
          },
          {
            "name": "F#4",
            "midi": 66,
            "time": 47.99999999999997,
            "velocity": 0.6299212598425197,
            "duration": 1.5183333333333309
          },
          {
            "name": "B4",
            "midi": 71,
            "time": 47.99999999999997,
            "velocity": 0.6299212598425197,
            "duration": 1.5183333333333309
          },
          {
            "name": "F#4",
            "midi": 66,
            "time": 49.599999999999966,
            "velocity": 0.6299212598425197,
            "duration": 1.5183333333333309
          },
          {
            "name": "F#4",
            "midi": 66,
            "time": 51.19999999999996,
            "velocity": 0.6299212598425197,
            "duration": 1.5183333333333309
          },
          {
            "name": "F#5",
            "midi": 78,
            "time": 51.19999999999996,
            "velocity": 0.6299212598425197,
            "duration": 1.5183333333333309
          },
          {
            "name": "A4",
            "midi": 69,
            "time": 52.799999999999955,
            "velocity": 0.6299212598425197,
            "duration": 1.5183333333333309
          },
          {
            "name": "A5",
            "midi": 81,
            "time": 52.799999999999955,
            "velocity": 0.6299212598425197,
            "duration": 1.5183333333333309
          },
          {
            "name": "F#4",
            "midi": 66,
            "time": 54.39999999999995,
            "velocity": 0.6299212598425197,
            "duration": 1.5183333333333309
          },
          {
            "name": "C#5",
            "midi": 73,
            "time": 54.39999999999995,
            "velocity": 0.6299212598425197,
            "duration": 1.5183333333333309
          },
          {
            "name": "C#6",
            "midi": 85,
            "time": 54.39999999999995,
            "velocity": 0.6299212598425197,
            "duration": 1.5183333333333309
          },
          {
            "name": "F#5",
            "midi": 78,
            "time": 55.99999999999994,
            "velocity": 0.6299212598425197,
            "duration": 1.3283333333333331
          },
          {
            "name": "G5",
            "midi": 79,
            "time": 57.39999999999994,
            "velocity": 0.6299212598425197,
            "duration": 0.18833333333333258
          },
          {
            "name": "F#4",
            "midi": 66,
            "time": 57.59999999999994,
            "velocity": 0.6299212598425197,
            "duration": 1.5183333333333309
          },
          {
            "name": "F#5",
            "midi": 78,
            "time": 57.59999999999994,
            "velocity": 0.6299212598425197,
            "duration": 1.5183333333333309
          },
          {
            "name": "A4",
            "midi": 69,
            "time": 59.19999999999993,
            "velocity": 0.6299212598425197,
            "duration": 1.1383333333333354
          },
          {
            "name": "A5",
            "midi": 81,
            "time": 59.19999999999993,
            "velocity": 0.6299212598425197,
            "duration": 1.1383333333333354
          },
          {
            "name": "C#4",
            "midi": 61,
            "time": 60.399999999999935,
            "velocity": 0.6299212598425197,
            "duration": 0.3783333333333303
          },
          {
            "name": "C#5",
            "midi": 73,
            "time": 60.399999999999935,
            "velocity": 0.6299212598425197,
            "duration": 0.3783333333333303
          },
          {
            "name": "B3",
            "midi": 59,
            "time": 60.79999999999993,
            "velocity": 0.6299212598425197,
            "duration": 1.5183333333333309
          },
          {
            "name": "F#4",
            "midi": 66,
            "time": 60.79999999999993,
            "velocity": 0.6299212598425197,
            "duration": 1.5183333333333309
          },
          {
            "name": "B4",
            "midi": 71,
            "time": 60.79999999999993,
            "velocity": 0.6299212598425197,
            "duration": 1.5183333333333309
          },
          {
            "name": "F#4",
            "midi": 66,
            "time": 62.39999999999993,
            "velocity": 0.6299212598425197,
            "duration": 1.5183333333333309
          },
          {
            "name": "F#4",
            "midi": 66,
            "time": 63.99999999999992,
            "velocity": 0.6299212598425197,
            "duration": 1.518333333333338
          },
          {
            "name": "F#5",
            "midi": 78,
            "time": 63.99999999999992,
            "velocity": 0.6299212598425197,
            "duration": 1.518333333333338
          },
          {
            "name": "A4",
            "midi": 69,
            "time": 65.59999999999992,
            "velocity": 0.6299212598425197,
            "duration": 1.5183333333333309
          },
          {
            "name": "A5",
            "midi": 81,
            "time": 65.59999999999992,
            "velocity": 0.6299212598425197,
            "duration": 1.5183333333333309
          },
          {
            "name": "F#4",
            "midi": 66,
            "time": 67.19999999999992,
            "velocity": 0.6299212598425197,
            "duration": 1.5183333333333309
          },
          {
            "name": "C#5",
            "midi": 73,
            "time": 67.19999999999992,
            "velocity": 0.6299212598425197,
            "duration": 1.5183333333333309
          },
          {
            "name": "C#6",
            "midi": 85,
            "time": 67.19999999999992,
            "velocity": 0.6299212598425197,
            "duration": 1.5183333333333309
          },
          {
            "name": "F#5",
            "midi": 78,
            "time": 68.79999999999991,
            "velocity": 0.6299212598425197,
            "duration": 1.3283333333333331
          },
          {
            "name": "G5",
            "midi": 79,
            "time": 70.19999999999992,
            "velocity": 0.6299212598425197,
            "duration": 0.18833333333333258
          },
          {
            "name": "F#4",
            "midi": 66,
            "time": 70.39999999999992,
            "velocity": 0.6299212598425197,
            "duration": 1.5183333333333309
          },
          {
            "name": "F#5",
            "midi": 78,
            "time": 70.39999999999992,
            "velocity": 0.6299212598425197,
            "duration": 1.5183333333333309
          },
          {
            "name": "A4",
            "midi": 69,
            "time": 71.99999999999991,
            "velocity": 0.6299212598425197,
            "duration": 1.1383333333333354
          },
          {
            "name": "A5",
            "midi": 81,
            "time": 71.99999999999991,
            "velocity": 0.6299212598425197,
            "duration": 1.1383333333333354
          },
          {
            "name": "C#4",
            "midi": 61,
            "time": 73.19999999999992,
            "velocity": 0.6299212598425197,
            "duration": 0.3783333333333303
          },
          {
            "name": "C#5",
            "midi": 73,
            "time": 73.19999999999992,
            "velocity": 0.6299212598425197,
            "duration": 0.3783333333333303
          },
          {
            "name": "B3",
            "midi": 59,
            "time": 73.59999999999991,
            "velocity": 0.6299212598425197,
            "duration": 1.5183333333333309
          },
          {
            "name": "F#4",
            "midi": 66,
            "time": 73.59999999999991,
            "velocity": 0.6299212598425197,
            "duration": 1.5183333333333309
          },
          {
            "name": "B4",
            "midi": 71,
            "time": 73.59999999999991,
            "velocity": 0.6299212598425197,
            "duration": 1.5183333333333309
          },
          {
            "name": "F#4",
            "midi": 66,
            "time": 75.1999999999999,
            "velocity": 0.6299212598425197,
            "duration": 1.5183333333333309
          },
          {
            "name": "F#4",
            "midi": 66,
            "time": 76.7999999999999,
            "velocity": 0.6299212598425197,
            "duration": 1.5183333333333309
          },
          {
            "name": "F#5",
            "midi": 78,
            "time": 76.7999999999999,
            "velocity": 0.6299212598425197,
            "duration": 1.5183333333333309
          },
          {
            "name": "A4",
            "midi": 69,
            "time": 78.39999999999989,
            "velocity": 0.6299212598425197,
            "duration": 1.5183333333333309
          },
          {
            "name": "A5",
            "midi": 81,
            "time": 78.39999999999989,
            "velocity": 0.6299212598425197,
            "duration": 1.5183333333333309
          },
          {
            "name": "F#4",
            "midi": 66,
            "time": 79.99999999999989,
            "velocity": 0.6299212598425197,
            "duration": 1.5183333333333309
          },
          {
            "name": "C#5",
            "midi": 73,
            "time": 79.99999999999989,
            "velocity": 0.6299212598425197,
            "duration": 1.5183333333333309
          },
          {
            "name": "C#6",
            "midi": 85,
            "time": 79.99999999999989,
            "velocity": 0.6299212598425197,
            "duration": 1.5183333333333309
          },
          {
            "name": "F#5",
            "midi": 78,
            "time": 81.59999999999988,
            "velocity": 0.6299212598425197,
            "duration": 1.3283333333333331
          },
          {
            "name": "G5",
            "midi": 79,
            "time": 82.99999999999989,
            "velocity": 0.6299212598425197,
            "duration": 0.18833333333333258
          },
          {
            "name": "F#4",
            "midi": 66,
            "time": 83.19999999999989,
            "velocity": 0.6299212598425197,
            "duration": 1.5183333333333309
          },
          {
            "name": "F#5",
            "midi": 78,
            "time": 83.19999999999989,
            "velocity": 0.6299212598425197,
            "duration": 1.5183333333333309
          },
          {
            "name": "A4",
            "midi": 69,
            "time": 84.79999999999988,
            "velocity": 0.6299212598425197,
            "duration": 1.1383333333333354
          },
          {
            "name": "A5",
            "midi": 81,
            "time": 84.79999999999988,
            "velocity": 0.6299212598425197,
            "duration": 1.1383333333333354
          },
          {
            "name": "C#4",
            "midi": 61,
            "time": 85.99999999999989,
            "velocity": 0.6299212598425197,
            "duration": 0.3783333333333303
          },
          {
            "name": "C#5",
            "midi": 73,
            "time": 85.99999999999989,
            "velocity": 0.6299212598425197,
            "duration": 0.3783333333333303
          },
          {
            "name": "B3",
            "midi": 59,
            "time": 86.39999999999988,
            "velocity": 0.6299212598425197,
            "duration": 1.5183333333333309
          },
          {
            "name": "F#4",
            "midi": 66,
            "time": 86.39999999999988,
            "velocity": 0.6299212598425197,
            "duration": 1.5183333333333309
          },
          {
            "name": "B4",
            "midi": 71,
            "time": 86.39999999999988,
            "velocity": 0.6299212598425197,
            "duration": 1.5183333333333309
          },
          {
            "name": "F#4",
            "midi": 66,
            "time": 87.99999999999987,
            "velocity": 0.6299212598425197,
            "duration": 1.5183333333333309
          },
          {
            "name": "F#4",
            "midi": 66,
            "time": 89.59999999999987,
            "velocity": 0.6299212598425197,
            "duration": 1.5183333333333309
          },
          {
            "name": "F#5",
            "midi": 78,
            "time": 89.59999999999987,
            "velocity": 0.6299212598425197,
            "duration": 1.5183333333333309
          },
          {
            "name": "A4",
            "midi": 69,
            "time": 91.19999999999986,
            "velocity": 0.6299212598425197,
            "duration": 1.5183333333333309
          },
          {
            "name": "A5",
            "midi": 81,
            "time": 91.19999999999986,
            "velocity": 0.6299212598425197,
            "duration": 1.5183333333333309
          },
          {
            "name": "F#4",
            "midi": 66,
            "time": 92.79999999999986,
            "velocity": 0.6299212598425197,
            "duration": 1.5183333333333309
          },
          {
            "name": "C#5",
            "midi": 73,
            "time": 92.79999999999986,
            "velocity": 0.6299212598425197,
            "duration": 1.5183333333333309
          },
          {
            "name": "C#6",
            "midi": 85,
            "time": 92.79999999999986,
            "velocity": 0.6299212598425197,
            "duration": 1.5183333333333309
          },
          {
            "name": "F#5",
            "midi": 78,
            "time": 94.39999999999985,
            "velocity": 0.6299212598425197,
            "duration": 1.3283333333333331
          },
          {
            "name": "G5",
            "midi": 79,
            "time": 95.79999999999986,
            "velocity": 0.6299212598425197,
            "duration": 0.18833333333333258
          },
          {
            "name": "F#4",
            "midi": 66,
            "time": 95.99999999999986,
            "velocity": 0.6299212598425197,
            "duration": 1.5183333333333309
          },
          {
            "name": "F#5",
            "midi": 78,
            "time": 95.99999999999986,
            "velocity": 0.6299212598425197,
            "duration": 1.5183333333333309
          },
          {
            "name": "A4",
            "midi": 69,
            "time": 97.59999999999985,
            "velocity": 0.6299212598425197,
            "duration": 1.1383333333333354
          },
          {
            "name": "A5",
            "midi": 81,
            "time": 97.59999999999985,
            "velocity": 0.6299212598425197,
            "duration": 1.1383333333333354
          },
          {
            "name": "C#4",
            "midi": 61,
            "time": 98.79999999999986,
            "velocity": 0.6299212598425197,
            "duration": 0.3783333333333303
          },
          {
            "name": "C#5",
            "midi": 73,
            "time": 98.79999999999986,
            "velocity": 0.6299212598425197,
            "duration": 0.3783333333333303
          },
          {
            "name": "B3",
            "midi": 59,
            "time": 99.19999999999985,
            "velocity": 0.6299212598425197,
            "duration": 1.5183333333333309
          },
          {
            "name": "F#4",
            "midi": 66,
            "time": 99.19999999999985,
            "velocity": 0.6299212598425197,
            "duration": 1.5183333333333309
          },
          {
            "name": "B4",
            "midi": 71,
            "time": 99.19999999999985,
            "velocity": 0.6299212598425197,
            "duration": 1.5183333333333309
          },
          {
            "name": "F#4",
            "midi": 66,
            "time": 100.79999999999984,
            "velocity": 0.6299212598425197,
            "duration": 1.5183333333333309
          },
          {
            "name": "F#4",
            "midi": 66,
            "time": 102.39999999999984,
            "velocity": 0.6299212598425197,
            "duration": 1.5183333333333309
          },
          {
            "name": "F#5",
            "midi": 78,
            "time": 102.39999999999984,
            "velocity": 0.6299212598425197,
            "duration": 1.5183333333333309
          },
          {
            "name": "A4",
            "midi": 69,
            "time": 103.99999999999983,
            "velocity": 0.6299212598425197,
            "duration": 1.5183333333333309
          },
          {
            "name": "A5",
            "midi": 81,
            "time": 103.99999999999983,
            "velocity": 0.6299212598425197,
            "duration": 1.5183333333333309
          },
          {
            "name": "F#4",
            "midi": 66,
            "time": 105.59999999999982,
            "velocity": 0.6299212598425197,
            "duration": 1.5183333333333309
          },
          {
            "name": "C#5",
            "midi": 73,
            "time": 105.59999999999982,
            "velocity": 0.6299212598425197,
            "duration": 1.5183333333333309
          },
          {
            "name": "C#6",
            "midi": 85,
            "time": 105.59999999999982,
            "velocity": 0.6299212598425197,
            "duration": 1.5183333333333309
          },
          {
            "name": "F#5",
            "midi": 78,
            "time": 107.19999999999982,
            "velocity": 0.6299212598425197,
            "duration": 1.3283333333333331
          },
          {
            "name": "G5",
            "midi": 79,
            "time": 108.59999999999982,
            "velocity": 0.6299212598425197,
            "duration": 0.18833333333333258
          },
          {
            "name": "F#4",
            "midi": 66,
            "time": 108.79999999999983,
            "velocity": 0.6299212598425197,
            "duration": 1.5183333333333309
          },
          {
            "name": "F#5",
            "midi": 78,
            "time": 108.79999999999983,
            "velocity": 0.6299212598425197,
            "duration": 1.5183333333333309
          },
          {
            "name": "A4",
            "midi": 69,
            "time": 110.39999999999982,
            "velocity": 0.6299212598425197,
            "duration": 1.1383333333333354
          },
          {
            "name": "A5",
            "midi": 81,
            "time": 110.39999999999982,
            "velocity": 0.6299212598425197,
            "duration": 1.1383333333333354
          },
          {
            "name": "C#4",
            "midi": 61,
            "time": 111.59999999999982,
            "velocity": 0.6299212598425197,
            "duration": 0.3783333333333303
          },
          {
            "name": "C#5",
            "midi": 73,
            "time": 111.59999999999982,
            "velocity": 0.6299212598425197,
            "duration": 0.3783333333333303
          },
          {
            "name": "B3",
            "midi": 59,
            "time": 111.99999999999982,
            "velocity": 0.6299212598425197,
            "duration": 1.5183333333333309
          },
          {
            "name": "F#4",
            "midi": 66,
            "time": 111.99999999999982,
            "velocity": 0.6299212598425197,
            "duration": 1.5183333333333309
          },
          {
            "name": "B4",
            "midi": 71,
            "time": 111.99999999999982,
            "velocity": 0.6299212598425197,
            "duration": 1.5183333333333309
          },
          {
            "name": "F#4",
            "midi": 66,
            "time": 113.59999999999981,
            "velocity": 0.6299212598425197,
            "duration": 1.5183333333333309
          },
          {
            "name": "F#4",
            "midi": 66,
            "time": 115.1999999999998,
            "velocity": 0.6299212598425197,
            "duration": 1.5183333333333309
          },
          {
            "name": "F#5",
            "midi": 78,
            "time": 115.1999999999998,
            "velocity": 0.6299212598425197,
            "duration": 1.5183333333333309
          },
          {
            "name": "A4",
            "midi": 69,
            "time": 116.7999999999998,
            "velocity": 0.6299212598425197,
            "duration": 1.5183333333333309
          },
          {
            "name": "A5",
            "midi": 81,
            "time": 116.7999999999998,
            "velocity": 0.6299212598425197,
            "duration": 1.5183333333333309
          },
          {
            "name": "F#4",
            "midi": 66,
            "time": 118.39999999999979,
            "velocity": 0.6299212598425197,
            "duration": 1.5183333333333309
          },
          {
            "name": "C#5",
            "midi": 73,
            "time": 118.39999999999979,
            "velocity": 0.6299212598425197,
            "duration": 1.5183333333333309
          },
          {
            "name": "C#6",
            "midi": 85,
            "time": 118.39999999999979,
            "velocity": 0.6299212598425197,
            "duration": 1.5183333333333309
          },
          {
            "name": "F#5",
            "midi": 78,
            "time": 119.99999999999979,
            "velocity": 0.6299212598425197,
            "duration": 1.3283333333333331
          },
          {
            "name": "G5",
            "midi": 79,
            "time": 121.39999999999979,
            "velocity": 0.6299212598425197,
            "duration": 0.18833333333333258
          },
          {
            "name": "F#4",
            "midi": 66,
            "time": 121.5999999999998,
            "velocity": 0.6299212598425197,
            "duration": 1.5183333333333309
          },
          {
            "name": "F#5",
            "midi": 78,
            "time": 121.5999999999998,
            "velocity": 0.6299212598425197,
            "duration": 1.5183333333333309
          },
          {
            "name": "A4",
            "midi": 69,
            "time": 123.19999999999979,
            "velocity": 0.6299212598425197,
            "duration": 1.1383333333333354
          },
          {
            "name": "A5",
            "midi": 81,
            "time": 123.19999999999979,
            "velocity": 0.6299212598425197,
            "duration": 1.1383333333333354
          },
          {
            "name": "C#4",
            "midi": 61,
            "time": 124.39999999999979,
            "velocity": 0.6299212598425197,
            "duration": 0.3783333333333303
          },
          {
            "name": "C#5",
            "midi": 73,
            "time": 124.39999999999979,
            "velocity": 0.6299212598425197,
            "duration": 0.3783333333333303
          },
          {
            "name": "B3",
            "midi": 59,
            "time": 124.79999999999978,
            "velocity": 0.6299212598425197,
            "duration": 1.5183333333333309
          },
          {
            "name": "F#4",
            "midi": 66,
            "time": 124.79999999999978,
            "velocity": 0.6299212598425197,
            "duration": 1.5183333333333309
          },
          {
            "name": "B4",
            "midi": 71,
            "time": 124.79999999999978,
            "velocity": 0.6299212598425197,
            "duration": 1.5183333333333309
          },
          {
            "name": "F#4",
            "midi": 66,
            "time": 126.39999999999978,
            "velocity": 0.6299212598425197,
            "duration": 1.5183333333333309
          },
          {
            "name": "F#4",
            "midi": 66,
            "time": 127.99999999999977,
            "velocity": 0.6299212598425197,
            "duration": 1.5183333333333167
          },
          {
            "name": "F#5",
            "midi": 78,
            "time": 127.99999999999977,
            "velocity": 0.6299212598425197,
            "duration": 1.5183333333333167
          },
          {
            "name": "A4",
            "midi": 69,
            "time": 129.59999999999977,
            "velocity": 0.6299212598425197,
            "duration": 1.518333333333345
          },
          {
            "name": "A5",
            "midi": 81,
            "time": 129.59999999999977,
            "velocity": 0.6299212598425197,
            "duration": 1.518333333333345
          },
          {
            "name": "F#4",
            "midi": 66,
            "time": 131.1999999999998,
            "velocity": 0.6299212598425197,
            "duration": 1.518333333333345
          },
          {
            "name": "C#5",
            "midi": 73,
            "time": 131.1999999999998,
            "velocity": 0.6299212598425197,
            "duration": 1.518333333333345
          },
          {
            "name": "C#6",
            "midi": 85,
            "time": 131.1999999999998,
            "velocity": 0.6299212598425197,
            "duration": 1.518333333333345
          },
          {
            "name": "F#5",
            "midi": 78,
            "time": 132.7999999999998,
            "velocity": 0.6299212598425197,
            "duration": 1.3283333333333474
          },
          {
            "name": "G5",
            "midi": 79,
            "time": 134.19999999999982,
            "velocity": 0.6299212598425197,
            "duration": 0.18833333333333258
          },
          {
            "name": "F#4",
            "midi": 66,
            "time": 134.3999999999998,
            "velocity": 0.6299212598425197,
            "duration": 1.518333333333345
          },
          {
            "name": "F#5",
            "midi": 78,
            "time": 134.3999999999998,
            "velocity": 0.6299212598425197,
            "duration": 1.518333333333345
          },
          {
            "name": "A4",
            "midi": 69,
            "time": 135.99999999999983,
            "velocity": 0.6299212598425197,
            "duration": 1.1383333333333212
          },
          {
            "name": "A5",
            "midi": 81,
            "time": 135.99999999999983,
            "velocity": 0.6299212598425197,
            "duration": 1.1383333333333212
          },
          {
            "name": "C#4",
            "midi": 61,
            "time": 137.19999999999982,
            "velocity": 0.6299212598425197,
            "duration": 0.3783333333333303
          },
          {
            "name": "C#5",
            "midi": 73,
            "time": 137.19999999999982,
            "velocity": 0.6299212598425197,
            "duration": 0.3783333333333303
          },
          {
            "name": "B3",
            "midi": 59,
            "time": 137.59999999999982,
            "velocity": 0.6299212598425197,
            "duration": 1.518333333333345
          },
          {
            "name": "F#4",
            "midi": 66,
            "time": 137.59999999999982,
            "velocity": 0.6299212598425197,
            "duration": 1.518333333333345
          },
          {
            "name": "B4",
            "midi": 71,
            "time": 137.59999999999982,
            "velocity": 0.6299212598425197,
            "duration": 1.518333333333345
          },
          {
            "name": "F#4",
            "midi": 66,
            "time": 139.19999999999985,
            "velocity": 0.6299212598425197,
            "duration": 1.518333333333345
          },
          {
            "name": "F#4",
            "midi": 66,
            "time": 140.79999999999987,
            "velocity": 0.6299212598425197,
            "duration": 1.5183333333333167
          },
          {
            "name": "F#5",
            "midi": 78,
            "time": 140.79999999999987,
            "velocity": 0.6299212598425197,
            "duration": 1.5183333333333167
          },
          {
            "name": "A4",
            "midi": 69,
            "time": 142.39999999999986,
            "velocity": 0.6299212598425197,
            "duration": 1.518333333333345
          },
          {
            "name": "A5",
            "midi": 81,
            "time": 142.39999999999986,
            "velocity": 0.6299212598425197,
            "duration": 1.518333333333345
          },
          {
            "name": "F#4",
            "midi": 66,
            "time": 143.9999999999999,
            "velocity": 0.6299212598425197,
            "duration": 1.518333333333345
          },
          {
            "name": "C#5",
            "midi": 73,
            "time": 143.9999999999999,
            "velocity": 0.6299212598425197,
            "duration": 1.518333333333345
          },
          {
            "name": "C#6",
            "midi": 85,
            "time": 143.9999999999999,
            "velocity": 0.6299212598425197,
            "duration": 1.518333333333345
          },
          {
            "name": "F#5",
            "midi": 78,
            "time": 145.5999999999999,
            "velocity": 0.6299212598425197,
            "duration": 1.3283333333333474
          },
          {
            "name": "G5",
            "midi": 79,
            "time": 146.99999999999991,
            "velocity": 0.6299212598425197,
            "duration": 0.18833333333333258
          },
          {
            "name": "F#4",
            "midi": 66,
            "time": 147.1999999999999,
            "velocity": 0.6299212598425197,
            "duration": 1.518333333333345
          },
          {
            "name": "F#5",
            "midi": 78,
            "time": 147.1999999999999,
            "velocity": 0.6299212598425197,
            "duration": 1.518333333333345
          },
          {
            "name": "A4",
            "midi": 69,
            "time": 148.79999999999993,
            "velocity": 0.6299212598425197,
            "duration": 1.1383333333333212
          },
          {
            "name": "A5",
            "midi": 81,
            "time": 148.79999999999993,
            "velocity": 0.6299212598425197,
            "duration": 1.1383333333333212
          },
          {
            "name": "C#4",
            "midi": 61,
            "time": 149.99999999999991,
            "velocity": 0.6299212598425197,
            "duration": 0.3783333333333303
          },
          {
            "name": "C#5",
            "midi": 73,
            "time": 149.99999999999991,
            "velocity": 0.6299212598425197,
            "duration": 0.3783333333333303
          },
          {
            "name": "B3",
            "midi": 59,
            "time": 150.39999999999992,
            "velocity": 0.6299212598425197,
            "duration": 1.518333333333345
          },
          {
            "name": "F#4",
            "midi": 66,
            "time": 150.39999999999992,
            "velocity": 0.6299212598425197,
            "duration": 1.518333333333345
          },
          {
            "name": "B4",
            "midi": 71,
            "time": 150.39999999999992,
            "velocity": 0.6299212598425197,
            "duration": 1.518333333333345
          },
          {
            "name": "F#4",
            "midi": 66,
            "time": 151.99999999999994,
            "velocity": 0.6299212598425197,
            "duration": 1.518333333333345
          },
          {
            "name": "F#4",
            "midi": 66,
            "time": 153.59999999999997,
            "velocity": 0.6299212598425197,
            "duration": 1.5183333333333167
          },
          {
            "name": "F#5",
            "midi": 78,
            "time": 153.59999999999997,
            "velocity": 0.6299212598425197,
            "duration": 1.5183333333333167
          },
          {
            "name": "A4",
            "midi": 69,
            "time": 155.19999999999996,
            "velocity": 0.6299212598425197,
            "duration": 1.518333333333345
          },
          {
            "name": "A5",
            "midi": 81,
            "time": 155.19999999999996,
            "velocity": 0.6299212598425197,
            "duration": 1.518333333333345
          },
          {
            "name": "F#4",
            "midi": 66,
            "time": 156.79999999999998,
            "velocity": 0.6299212598425197,
            "duration": 1.518333333333345
          },
          {
            "name": "C#5",
            "midi": 73,
            "time": 156.79999999999998,
            "velocity": 0.6299212598425197,
            "duration": 1.518333333333345
          },
          {
            "name": "C#6",
            "midi": 85,
            "time": 156.79999999999998,
            "velocity": 0.6299212598425197,
            "duration": 1.518333333333345
          },
          {
            "name": "F#5",
            "midi": 78,
            "time": 158.4,
            "velocity": 0.6299212598425197,
            "duration": 1.3283333333333474
          },
          {
            "name": "G5",
            "midi": 79,
            "time": 159.8,
            "velocity": 0.6299212598425197,
            "duration": 0.18833333333333258
          },
          {
            "name": "F#4",
            "midi": 66,
            "time": 160,
            "velocity": 0.6299212598425197,
            "duration": 1.518333333333345
          },
          {
            "name": "F#5",
            "midi": 78,
            "time": 160,
            "velocity": 0.6299212598425197,
            "duration": 1.518333333333345
          },
          {
            "name": "A4",
            "midi": 69,
            "time": 161.60000000000002,
            "velocity": 0.6299212598425197,
            "duration": 1.1383333333333212
          },
          {
            "name": "A5",
            "midi": 81,
            "time": 161.60000000000002,
            "velocity": 0.6299212598425197,
            "duration": 1.1383333333333212
          },
          {
            "name": "C#4",
            "midi": 61,
            "time": 162.8,
            "velocity": 0.6299212598425197,
            "duration": 0.3783333333333303
          },
          {
            "name": "C#5",
            "midi": 73,
            "time": 162.8,
            "velocity": 0.6299212598425197,
            "duration": 0.3783333333333303
          },
          {
            "name": "B3",
            "midi": 59,
            "time": 163.20000000000002,
            "velocity": 0.6299212598425197,
            "duration": 1.518333333333345
          },
          {
            "name": "F#4",
            "midi": 66,
            "time": 163.20000000000002,
            "velocity": 0.6299212598425197,
            "duration": 1.518333333333345
          },
          {
            "name": "B4",
            "midi": 71,
            "time": 163.20000000000002,
            "velocity": 0.6299212598425197,
            "duration": 1.518333333333345
          },
          {
            "name": "F#4",
            "midi": 66,
            "time": 164.80000000000004,
            "velocity": 0.6299212598425197,
            "duration": 1.518333333333345
          },
          {
            "name": "F#4",
            "midi": 66,
            "time": 166.40000000000006,
            "velocity": 0.6299212598425197,
            "duration": 1.5183333333333167
          },
          {
            "name": "F#5",
            "midi": 78,
            "time": 166.40000000000006,
            "velocity": 0.6299212598425197,
            "duration": 1.5183333333333167
          },
          {
            "name": "A4",
            "midi": 69,
            "time": 168.00000000000006,
            "velocity": 0.6299212598425197,
            "duration": 1.518333333333345
          },
          {
            "name": "A5",
            "midi": 81,
            "time": 168.00000000000006,
            "velocity": 0.6299212598425197,
            "duration": 1.518333333333345
          },
          {
            "name": "F#4",
            "midi": 66,
            "time": 169.60000000000008,
            "velocity": 0.6299212598425197,
            "duration": 1.518333333333345
          },
          {
            "name": "C#5",
            "midi": 73,
            "time": 169.60000000000008,
            "velocity": 0.6299212598425197,
            "duration": 1.518333333333345
          },
          {
            "name": "C#6",
            "midi": 85,
            "time": 169.60000000000008,
            "velocity": 0.6299212598425197,
            "duration": 1.518333333333345
          },
          {
            "name": "F#5",
            "midi": 78,
            "time": 171.2000000000001,
            "velocity": 0.6299212598425197,
            "duration": 1.3283333333333474
          },
          {
            "name": "G5",
            "midi": 79,
            "time": 172.6000000000001,
            "velocity": 0.6299212598425197,
            "duration": 0.18833333333333258
          },
          {
            "name": "F#4",
            "midi": 66,
            "time": 172.8000000000001,
            "velocity": 0.6299212598425197,
            "duration": 1.518333333333345
          },
          {
            "name": "F#5",
            "midi": 78,
            "time": 172.8000000000001,
            "velocity": 0.6299212598425197,
            "duration": 1.518333333333345
          },
          {
            "name": "A4",
            "midi": 69,
            "time": 174.40000000000012,
            "velocity": 0.6299212598425197,
            "duration": 1.1383333333333212
          },
          {
            "name": "A5",
            "midi": 81,
            "time": 174.40000000000012,
            "velocity": 0.6299212598425197,
            "duration": 1.1383333333333212
          },
          {
            "name": "C#4",
            "midi": 61,
            "time": 175.6000000000001,
            "velocity": 0.6299212598425197,
            "duration": 0.3783333333333303
          },
          {
            "name": "C#5",
            "midi": 73,
            "time": 175.6000000000001,
            "velocity": 0.6299212598425197,
            "duration": 0.3783333333333303
          },
          {
            "name": "B3",
            "midi": 59,
            "time": 176.0000000000001,
            "velocity": 0.6299212598425197,
            "duration": 1.518333333333345
          },
          {
            "name": "F#4",
            "midi": 66,
            "time": 176.0000000000001,
            "velocity": 0.6299212598425197,
            "duration": 1.518333333333345
          },
          {
            "name": "B4",
            "midi": 71,
            "time": 176.0000000000001,
            "velocity": 0.6299212598425197,
            "duration": 1.518333333333345
          },
          {
            "name": "F#4",
            "midi": 66,
            "time": 177.60000000000014,
            "velocity": 0.6299212598425197,
            "duration": 1.518333333333345
          },
          {
            "name": "F#4",
            "midi": 66,
            "time": 179.20000000000016,
            "velocity": 0.6299212598425197,
            "duration": 1.5183333333333167
          },
          {
            "name": "F#5",
            "midi": 78,
            "time": 179.20000000000016,
            "velocity": 0.6299212598425197,
            "duration": 1.5183333333333167
          },
          {
            "name": "A4",
            "midi": 69,
            "time": 180.80000000000015,
            "velocity": 0.6299212598425197,
            "duration": 1.518333333333345
          },
          {
            "name": "A5",
            "midi": 81,
            "time": 180.80000000000015,
            "velocity": 0.6299212598425197,
            "duration": 1.518333333333345
          },
          {
            "name": "F#4",
            "midi": 66,
            "time": 182.40000000000018,
            "velocity": 0.6299212598425197,
            "duration": 1.518333333333345
          },
          {
            "name": "C#5",
            "midi": 73,
            "time": 182.40000000000018,
            "velocity": 0.6299212598425197,
            "duration": 1.518333333333345
          },
          {
            "name": "C#6",
            "midi": 85,
            "time": 182.40000000000018,
            "velocity": 0.6299212598425197,
            "duration": 1.518333333333345
          },
          {
            "name": "F#5",
            "midi": 78,
            "time": 184.0000000000002,
            "velocity": 0.6299212598425197,
            "duration": 1.3283333333333474
          },
          {
            "name": "G5",
            "midi": 79,
            "time": 185.4000000000002,
            "velocity": 0.6299212598425197,
            "duration": 0.18833333333333258
          },
          {
            "name": "F#4",
            "midi": 66,
            "time": 185.6000000000002,
            "velocity": 0.6299212598425197,
            "duration": 1.518333333333345
          },
          {
            "name": "F#5",
            "midi": 78,
            "time": 185.6000000000002,
            "velocity": 0.6299212598425197,
            "duration": 1.518333333333345
          },
          {
            "name": "A4",
            "midi": 69,
            "time": 187.20000000000022,
            "velocity": 0.6299212598425197,
            "duration": 1.1383333333333212
          },
          {
            "name": "A5",
            "midi": 81,
            "time": 187.20000000000022,
            "velocity": 0.6299212598425197,
            "duration": 1.1383333333333212
          },
          {
            "name": "C#4",
            "midi": 61,
            "time": 188.4000000000002,
            "velocity": 0.6299212598425197,
            "duration": 0.3783333333333303
          },
          {
            "name": "C#5",
            "midi": 73,
            "time": 188.4000000000002,
            "velocity": 0.6299212598425197,
            "duration": 0.3783333333333303
          },
          {
            "name": "B3",
            "midi": 59,
            "time": 188.8000000000002,
            "velocity": 0.6299212598425197,
            "duration": 1.518333333333345
          },
          {
            "name": "F#4",
            "midi": 66,
            "time": 188.8000000000002,
            "velocity": 0.6299212598425197,
            "duration": 1.518333333333345
          },
          {
            "name": "B4",
            "midi": 71,
            "time": 188.8000000000002,
            "velocity": 0.6299212598425197,
            "duration": 1.518333333333345
          },
          {
            "name": "F#4",
            "midi": 66,
            "time": 190.40000000000023,
            "velocity": 0.6299212598425197,
            "duration": 1.518333333333345
          },
          {
            "name": "F#4",
            "midi": 66,
            "time": 192.00000000000026,
            "velocity": 0.6299212598425197,
            "duration": 6.078333333333319
          },
          {
            "name": "F#5",
            "midi": 78,
            "time": 192.00000000000026,
            "velocity": 0.6299212598425197,
            "duration": 6.078333333333319
          }
        ],
        "controlChanges": {
          "7": [
            {
              "number": 7,
              "time": 0,
              "value": 0.7874015748031497
            }
          ],
          "10": [
            {
              "number": 10,
              "time": 0,
              "value": 0.5039370078740157
            }
          ],
          "64": [
            {
              "number": 64,
              "time": 0.0033333333333333335,
              "value": 1
            },
            {
              "number": 64,
              "time": 12.803333333333338,
              "value": 1
            },
            {
              "number": 64,
              "time": 25.603333333333346,
              "value": 1
            },
            {
              "number": 64,
              "time": 38.40333333333333,
              "value": 1
            },
            {
              "number": 64,
              "time": 51.20333333333329,
              "value": 1
            },
            {
              "number": 64,
              "time": 64.00333333333326,
              "value": 1
            },
            {
              "number": 64,
              "time": 76.80333333333323,
              "value": 1
            },
            {
              "number": 64,
              "time": 89.6033333333332,
              "value": 1
            },
            {
              "number": 64,
              "time": 102.40333333333317,
              "value": 1
            },
            {
              "number": 64,
              "time": 115.20333333333313,
              "value": 1
            },
            {
              "number": 64,
              "time": 128.0033333333331,
              "value": 1
            },
            {
              "number": 64,
              "time": 140.8033333333332,
              "value": 1
            },
            {
              "number": 64,
              "time": 153.6033333333333,
              "value": 1
            },
            {
              "number": 64,
              "time": 166.4033333333334,
              "value": 1
            },
            {
              "number": 64,
              "time": 179.2033333333335,
              "value": 1
            },
            {
              "number": 64,
              "time": 192.0033333333336,
              "value": 1
            }
          ],
          "91": [
            {
              "number": 91,
              "time": 0,
              "value": 0
            }
          ],
          "93": [
            {
              "number": 93,
              "time": 0,
              "value": 0
            }
          ],
          "121": [
            {
              "number": 121,
              "time": 0,
              "value": 0
            }
          ]
        },
        "id": 0,
        "instrumentNumber": 0,
        "instrument": "acoustic grand piano",
        "instrumentFamily": "piano",
        "channelNumber": 0,
        "isPercussion": false
      },
      {
        "startTime": 0,
        "duration": 198.07833333333326,
        "length": 167,
        "notes": [
          {
            "name": "B1",
            "midi": 35,
            "time": 0,
            "velocity": 0.6299212598425197,
            "duration": 3.0383333333333336
          },
          {
            "name": "B2",
            "midi": 47,
            "time": 0,
            "velocity": 0.6299212598425197,
            "duration": 3.0383333333333336
          },
          {
            "name": "F#4",
            "midi": 66,
            "time": 1.6,
            "velocity": 0.6299212598425197,
            "duration": 1.5183333333333335
          },
          {
            "name": "D2",
            "midi": 38,
            "time": 3.2,
            "velocity": 0.6299212598425197,
            "duration": 3.038333333333334
          },
          {
            "name": "D3",
            "midi": 50,
            "time": 3.2,
            "velocity": 0.6299212598425197,
            "duration": 3.038333333333334
          },
          {
            "name": "F#4",
            "midi": 66,
            "time": 4.800000000000001,
            "velocity": 0.6299212598425197,
            "duration": 1.5183333333333335
          },
          {
            "name": "A1",
            "midi": 33,
            "time": 6.400000000000001,
            "velocity": 0.6299212598425197,
            "duration": 3.038333333333335
          },
          {
            "name": "A2",
            "midi": 45,
            "time": 6.400000000000001,
            "velocity": 0.6299212598425197,
            "duration": 3.038333333333335
          },
          {
            "name": "F#4",
            "midi": 66,
            "time": 8.000000000000002,
            "velocity": 0.6299212598425197,
            "duration": 1.5183333333333344
          },
          {
            "name": "G1",
            "midi": 31,
            "time": 9.600000000000003,
            "velocity": 0.6299212598425197,
            "duration": 3.038333333333334
          },
          {
            "name": "G2",
            "midi": 43,
            "time": 9.600000000000003,
            "velocity": 0.6299212598425197,
            "duration": 3.038333333333334
          },
          {
            "name": "B1",
            "midi": 35,
            "time": 12.800000000000004,
            "velocity": 0.6299212598425197,
            "duration": 3.038333333333334
          },
          {
            "name": "B2",
            "midi": 47,
            "time": 12.800000000000004,
            "velocity": 0.6299212598425197,
            "duration": 3.038333333333334
          },
          {
            "name": "F#4",
            "midi": 66,
            "time": 14.400000000000006,
            "velocity": 0.6299212598425197,
            "duration": 1.5183333333333326
          },
          {
            "name": "D2",
            "midi": 38,
            "time": 16.000000000000004,
            "velocity": 0.6299212598425197,
            "duration": 3.038333333333334
          },
          {
            "name": "D3",
            "midi": 50,
            "time": 16.000000000000004,
            "velocity": 0.6299212598425197,
            "duration": 3.038333333333334
          },
          {
            "name": "F#4",
            "midi": 66,
            "time": 17.600000000000005,
            "velocity": 0.6299212598425197,
            "duration": 1.5183333333333309
          },
          {
            "name": "A1",
            "midi": 33,
            "time": 19.200000000000003,
            "velocity": 0.6299212598425197,
            "duration": 3.038333333333334
          },
          {
            "name": "A2",
            "midi": 45,
            "time": 19.200000000000003,
            "velocity": 0.6299212598425197,
            "duration": 3.038333333333334
          },
          {
            "name": "F#4",
            "midi": 66,
            "time": 20.800000000000004,
            "velocity": 0.6299212598425197,
            "duration": 1.5183333333333309
          },
          {
            "name": "G1",
            "midi": 31,
            "time": 22.400000000000002,
            "velocity": 0.6299212598425197,
            "duration": 3.038333333333334
          },
          {
            "name": "G2",
            "midi": 43,
            "time": 22.400000000000002,
            "velocity": 0.6299212598425197,
            "duration": 3.038333333333334
          },
          {
            "name": "B1",
            "midi": 35,
            "time": 25.6,
            "velocity": 0.6299212598425197,
            "duration": 3.0383333333333304
          },
          {
            "name": "B2",
            "midi": 47,
            "time": 25.6,
            "velocity": 0.6299212598425197,
            "duration": 3.0383333333333304
          },
          {
            "name": "F#4",
            "midi": 66,
            "time": 27.2,
            "velocity": 0.6299212598425197,
            "duration": 1.5183333333333309
          },
          {
            "name": "D2",
            "midi": 38,
            "time": 28.799999999999997,
            "velocity": 0.6299212598425197,
            "duration": 3.038333333333334
          },
          {
            "name": "D3",
            "midi": 50,
            "time": 28.799999999999997,
            "velocity": 0.6299212598425197,
            "duration": 3.038333333333334
          },
          {
            "name": "F#4",
            "midi": 66,
            "time": 30.4,
            "velocity": 0.6299212598425197,
            "duration": 1.5183333333333309
          },
          {
            "name": "A1",
            "midi": 33,
            "time": 31.999999999999996,
            "velocity": 0.6299212598425197,
            "duration": 3.0383333333333304
          },
          {
            "name": "A2",
            "midi": 45,
            "time": 31.999999999999996,
            "velocity": 0.6299212598425197,
            "duration": 3.0383333333333304
          },
          {
            "name": "F#4",
            "midi": 66,
            "time": 33.599999999999994,
            "velocity": 0.6299212598425197,
            "duration": 1.5183333333333309
          },
          {
            "name": "G1",
            "midi": 31,
            "time": 35.19999999999999,
            "velocity": 0.6299212598425197,
            "duration": 3.038333333333334
          },
          {
            "name": "G2",
            "midi": 43,
            "time": 35.19999999999999,
            "velocity": 0.6299212598425197,
            "duration": 3.038333333333334
          },
          {
            "name": "B1",
            "midi": 35,
            "time": 38.39999999999999,
            "velocity": 0.6299212598425197,
            "duration": 3.038333333333327
          },
          {
            "name": "B2",
            "midi": 47,
            "time": 38.39999999999999,
            "velocity": 0.6299212598425197,
            "duration": 3.038333333333327
          },
          {
            "name": "F#4",
            "midi": 66,
            "time": 39.999999999999986,
            "velocity": 0.6299212598425197,
            "duration": 1.5183333333333309
          },
          {
            "name": "D2",
            "midi": 38,
            "time": 41.59999999999998,
            "velocity": 0.6299212598425197,
            "duration": 3.038333333333334
          },
          {
            "name": "D3",
            "midi": 50,
            "time": 41.59999999999998,
            "velocity": 0.6299212598425197,
            "duration": 3.038333333333334
          },
          {
            "name": "F#4",
            "midi": 66,
            "time": 43.19999999999998,
            "velocity": 0.6299212598425197,
            "duration": 1.5183333333333309
          },
          {
            "name": "A1",
            "midi": 33,
            "time": 44.799999999999976,
            "velocity": 0.6299212598425197,
            "duration": 3.038333333333334
          },
          {
            "name": "A2",
            "midi": 45,
            "time": 44.799999999999976,
            "velocity": 0.6299212598425197,
            "duration": 3.038333333333334
          },
          {
            "name": "F#4",
            "midi": 66,
            "time": 46.39999999999998,
            "velocity": 0.6299212598425197,
            "duration": 1.5183333333333309
          },
          {
            "name": "G1",
            "midi": 31,
            "time": 47.99999999999997,
            "velocity": 0.6299212598425197,
            "duration": 3.038333333333334
          },
          {
            "name": "G2",
            "midi": 43,
            "time": 47.99999999999997,
            "velocity": 0.6299212598425197,
            "duration": 3.038333333333334
          },
          {
            "name": "B1",
            "midi": 35,
            "time": 51.199999999999974,
            "velocity": 0.6299212598425197,
            "duration": 3.038333333333327
          },
          {
            "name": "B2",
            "midi": 47,
            "time": 51.199999999999974,
            "velocity": 0.6299212598425197,
            "duration": 3.038333333333327
          },
          {
            "name": "F#4",
            "midi": 66,
            "time": 52.79999999999997,
            "velocity": 0.6299212598425197,
            "duration": 1.5183333333333309
          },
          {
            "name": "D2",
            "midi": 38,
            "time": 54.39999999999996,
            "velocity": 0.6299212598425197,
            "duration": 3.038333333333334
          },
          {
            "name": "D3",
            "midi": 50,
            "time": 54.39999999999996,
            "velocity": 0.6299212598425197,
            "duration": 3.038333333333334
          },
          {
            "name": "F#4",
            "midi": 66,
            "time": 55.999999999999964,
            "velocity": 0.6299212598425197,
            "duration": 1.5183333333333309
          },
          {
            "name": "A1",
            "midi": 33,
            "time": 57.59999999999996,
            "velocity": 0.6299212598425197,
            "duration": 3.038333333333334
          },
          {
            "name": "A2",
            "midi": 45,
            "time": 57.59999999999996,
            "velocity": 0.6299212598425197,
            "duration": 3.038333333333334
          },
          {
            "name": "F#4",
            "midi": 66,
            "time": 59.19999999999996,
            "velocity": 0.6299212598425197,
            "duration": 1.5183333333333309
          },
          {
            "name": "G1",
            "midi": 31,
            "time": 60.799999999999955,
            "velocity": 0.6299212598425197,
            "duration": 3.038333333333334
          },
          {
            "name": "G2",
            "midi": 43,
            "time": 60.799999999999955,
            "velocity": 0.6299212598425197,
            "duration": 3.038333333333334
          },
          {
            "name": "B1",
            "midi": 35,
            "time": 63.99999999999996,
            "velocity": 0.6299212598425197,
            "duration": 3.038333333333327
          },
          {
            "name": "B2",
            "midi": 47,
            "time": 63.99999999999996,
            "velocity": 0.6299212598425197,
            "duration": 3.038333333333327
          },
          {
            "name": "F#4",
            "midi": 66,
            "time": 65.59999999999995,
            "velocity": 0.6299212598425197,
            "duration": 1.5183333333333309
          },
          {
            "name": "D2",
            "midi": 38,
            "time": 67.19999999999995,
            "velocity": 0.6299212598425197,
            "duration": 3.038333333333327
          },
          {
            "name": "D3",
            "midi": 50,
            "time": 67.19999999999995,
            "velocity": 0.6299212598425197,
            "duration": 3.038333333333327
          },
          {
            "name": "F#4",
            "midi": 66,
            "time": 68.79999999999994,
            "velocity": 0.6299212598425197,
            "duration": 1.5183333333333309
          },
          {
            "name": "A1",
            "midi": 33,
            "time": 70.39999999999993,
            "velocity": 0.6299212598425197,
            "duration": 3.038333333333327
          },
          {
            "name": "A2",
            "midi": 45,
            "time": 70.39999999999993,
            "velocity": 0.6299212598425197,
            "duration": 3.038333333333327
          },
          {
            "name": "F#4",
            "midi": 66,
            "time": 71.99999999999993,
            "velocity": 0.6299212598425197,
            "duration": 1.5183333333333309
          },
          {
            "name": "G1",
            "midi": 31,
            "time": 73.59999999999992,
            "velocity": 0.6299212598425197,
            "duration": 3.038333333333327
          },
          {
            "name": "G2",
            "midi": 43,
            "time": 73.59999999999992,
            "velocity": 0.6299212598425197,
            "duration": 3.038333333333327
          },
          {
            "name": "B1",
            "midi": 35,
            "time": 76.79999999999991,
            "velocity": 0.6299212598425197,
            "duration": 3.038333333333327
          },
          {
            "name": "B2",
            "midi": 47,
            "time": 76.79999999999991,
            "velocity": 0.6299212598425197,
            "duration": 3.038333333333327
          },
          {
            "name": "F#4",
            "midi": 66,
            "time": 78.3999999999999,
            "velocity": 0.6299212598425197,
            "duration": 1.5183333333333309
          },
          {
            "name": "D2",
            "midi": 38,
            "time": 79.9999999999999,
            "velocity": 0.6299212598425197,
            "duration": 3.038333333333327
          },
          {
            "name": "D3",
            "midi": 50,
            "time": 79.9999999999999,
            "velocity": 0.6299212598425197,
            "duration": 3.038333333333327
          },
          {
            "name": "F#4",
            "midi": 66,
            "time": 81.5999999999999,
            "velocity": 0.6299212598425197,
            "duration": 1.5183333333333309
          },
          {
            "name": "A1",
            "midi": 33,
            "time": 83.19999999999989,
            "velocity": 0.6299212598425197,
            "duration": 3.038333333333327
          },
          {
            "name": "A2",
            "midi": 45,
            "time": 83.19999999999989,
            "velocity": 0.6299212598425197,
            "duration": 3.038333333333327
          },
          {
            "name": "F#4",
            "midi": 66,
            "time": 84.79999999999988,
            "velocity": 0.6299212598425197,
            "duration": 1.5183333333333309
          },
          {
            "name": "G1",
            "midi": 31,
            "time": 86.39999999999988,
            "velocity": 0.6299212598425197,
            "duration": 3.038333333333327
          },
          {
            "name": "G2",
            "midi": 43,
            "time": 86.39999999999988,
            "velocity": 0.6299212598425197,
            "duration": 3.038333333333327
          },
          {
            "name": "B1",
            "midi": 35,
            "time": 89.59999999999987,
            "velocity": 0.6299212598425197,
            "duration": 3.038333333333327
          },
          {
            "name": "B2",
            "midi": 47,
            "time": 89.59999999999987,
            "velocity": 0.6299212598425197,
            "duration": 3.038333333333327
          },
          {
            "name": "F#4",
            "midi": 66,
            "time": 91.19999999999986,
            "velocity": 0.6299212598425197,
            "duration": 1.5183333333333309
          },
          {
            "name": "D2",
            "midi": 38,
            "time": 92.79999999999986,
            "velocity": 0.6299212598425197,
            "duration": 3.038333333333327
          },
          {
            "name": "D3",
            "midi": 50,
            "time": 92.79999999999986,
            "velocity": 0.6299212598425197,
            "duration": 3.038333333333327
          },
          {
            "name": "F#4",
            "midi": 66,
            "time": 94.39999999999985,
            "velocity": 0.6299212598425197,
            "duration": 1.5183333333333309
          },
          {
            "name": "A1",
            "midi": 33,
            "time": 95.99999999999984,
            "velocity": 0.6299212598425197,
            "duration": 3.038333333333327
          },
          {
            "name": "A2",
            "midi": 45,
            "time": 95.99999999999984,
            "velocity": 0.6299212598425197,
            "duration": 3.038333333333327
          },
          {
            "name": "F#4",
            "midi": 66,
            "time": 97.59999999999984,
            "velocity": 0.6299212598425197,
            "duration": 1.5183333333333309
          },
          {
            "name": "G1",
            "midi": 31,
            "time": 99.19999999999983,
            "velocity": 0.6299212598425197,
            "duration": 3.038333333333327
          },
          {
            "name": "G2",
            "midi": 43,
            "time": 99.19999999999983,
            "velocity": 0.6299212598425197,
            "duration": 3.038333333333327
          },
          {
            "name": "B1",
            "midi": 35,
            "time": 102.39999999999982,
            "velocity": 0.6299212598425197,
            "duration": 3.038333333333327
          },
          {
            "name": "B2",
            "midi": 47,
            "time": 102.39999999999982,
            "velocity": 0.6299212598425197,
            "duration": 3.038333333333327
          },
          {
            "name": "F#4",
            "midi": 66,
            "time": 103.99999999999982,
            "velocity": 0.6299212598425197,
            "duration": 1.5183333333333309
          },
          {
            "name": "D2",
            "midi": 38,
            "time": 105.59999999999981,
            "velocity": 0.6299212598425197,
            "duration": 3.038333333333327
          },
          {
            "name": "D3",
            "midi": 50,
            "time": 105.59999999999981,
            "velocity": 0.6299212598425197,
            "duration": 3.038333333333327
          },
          {
            "name": "F#4",
            "midi": 66,
            "time": 107.1999999999998,
            "velocity": 0.6299212598425197,
            "duration": 1.5183333333333309
          },
          {
            "name": "A1",
            "midi": 33,
            "time": 108.7999999999998,
            "velocity": 0.6299212598425197,
            "duration": 3.038333333333327
          },
          {
            "name": "A2",
            "midi": 45,
            "time": 108.7999999999998,
            "velocity": 0.6299212598425197,
            "duration": 3.038333333333327
          },
          {
            "name": "F#4",
            "midi": 66,
            "time": 110.39999999999979,
            "velocity": 0.6299212598425197,
            "duration": 1.5183333333333309
          },
          {
            "name": "G1",
            "midi": 31,
            "time": 111.99999999999979,
            "velocity": 0.6299212598425197,
            "duration": 3.038333333333327
          },
          {
            "name": "G2",
            "midi": 43,
            "time": 111.99999999999979,
            "velocity": 0.6299212598425197,
            "duration": 3.038333333333327
          },
          {
            "name": "B1",
            "midi": 35,
            "time": 115.19999999999978,
            "velocity": 0.6299212598425197,
            "duration": 3.038333333333327
          },
          {
            "name": "B2",
            "midi": 47,
            "time": 115.19999999999978,
            "velocity": 0.6299212598425197,
            "duration": 3.038333333333327
          },
          {
            "name": "F#4",
            "midi": 66,
            "time": 116.79999999999977,
            "velocity": 0.6299212598425197,
            "duration": 1.5183333333333309
          },
          {
            "name": "D2",
            "midi": 38,
            "time": 118.39999999999976,
            "velocity": 0.6299212598425197,
            "duration": 3.038333333333327
          },
          {
            "name": "D3",
            "midi": 50,
            "time": 118.39999999999976,
            "velocity": 0.6299212598425197,
            "duration": 3.038333333333327
          },
          {
            "name": "F#4",
            "midi": 66,
            "time": 119.99999999999976,
            "velocity": 0.6299212598425197,
            "duration": 1.5183333333333309
          },
          {
            "name": "A1",
            "midi": 33,
            "time": 121.59999999999975,
            "velocity": 0.6299212598425197,
            "duration": 3.038333333333327
          },
          {
            "name": "A2",
            "midi": 45,
            "time": 121.59999999999975,
            "velocity": 0.6299212598425197,
            "duration": 3.038333333333327
          },
          {
            "name": "F#4",
            "midi": 66,
            "time": 123.19999999999975,
            "velocity": 0.6299212598425197,
            "duration": 1.5183333333333309
          },
          {
            "name": "G1",
            "midi": 31,
            "time": 124.79999999999974,
            "velocity": 0.6299212598425197,
            "duration": 3.038333333333327
          },
          {
            "name": "G2",
            "midi": 43,
            "time": 124.79999999999974,
            "velocity": 0.6299212598425197,
            "duration": 3.038333333333327
          },
          {
            "name": "B1",
            "midi": 35,
            "time": 127.99999999999973,
            "velocity": 0.6299212598425197,
            "duration": 3.038333333333341
          },
          {
            "name": "B2",
            "midi": 47,
            "time": 127.99999999999973,
            "velocity": 0.6299212598425197,
            "duration": 3.038333333333341
          },
          {
            "name": "F#4",
            "midi": 66,
            "time": 129.59999999999974,
            "velocity": 0.6299212598425197,
            "duration": 1.518333333333345
          },
          {
            "name": "D2",
            "midi": 38,
            "time": 131.19999999999976,
            "velocity": 0.6299212598425197,
            "duration": 3.038333333333327
          },
          {
            "name": "D3",
            "midi": 50,
            "time": 131.19999999999976,
            "velocity": 0.6299212598425197,
            "duration": 3.038333333333327
          },
          {
            "name": "F#4",
            "midi": 66,
            "time": 132.79999999999976,
            "velocity": 0.6299212598425197,
            "duration": 1.518333333333345
          },
          {
            "name": "A1",
            "midi": 33,
            "time": 134.39999999999978,
            "velocity": 0.6299212598425197,
            "duration": 3.038333333333327
          },
          {
            "name": "A2",
            "midi": 45,
            "time": 134.39999999999978,
            "velocity": 0.6299212598425197,
            "duration": 3.038333333333327
          },
          {
            "name": "F#4",
            "midi": 66,
            "time": 135.99999999999977,
            "velocity": 0.6299212598425197,
            "duration": 1.518333333333345
          },
          {
            "name": "G1",
            "midi": 31,
            "time": 137.5999999999998,
            "velocity": 0.6299212598425197,
            "duration": 3.038333333333327
          },
          {
            "name": "G2",
            "midi": 43,
            "time": 137.5999999999998,
            "velocity": 0.6299212598425197,
            "duration": 3.038333333333327
          },
          {
            "name": "B1",
            "midi": 35,
            "time": 140.79999999999978,
            "velocity": 0.6299212598425197,
            "duration": 3.038333333333327
          },
          {
            "name": "B2",
            "midi": 47,
            "time": 140.79999999999978,
            "velocity": 0.6299212598425197,
            "duration": 3.038333333333327
          },
          {
            "name": "F#4",
            "midi": 66,
            "time": 142.39999999999978,
            "velocity": 0.6299212598425197,
            "duration": 1.518333333333345
          },
          {
            "name": "D2",
            "midi": 38,
            "time": 143.9999999999998,
            "velocity": 0.6299212598425197,
            "duration": 3.038333333333327
          },
          {
            "name": "D3",
            "midi": 50,
            "time": 143.9999999999998,
            "velocity": 0.6299212598425197,
            "duration": 3.038333333333327
          },
          {
            "name": "F#4",
            "midi": 66,
            "time": 145.5999999999998,
            "velocity": 0.6299212598425197,
            "duration": 1.518333333333345
          },
          {
            "name": "A1",
            "midi": 33,
            "time": 147.19999999999982,
            "velocity": 0.6299212598425197,
            "duration": 3.038333333333327
          },
          {
            "name": "A2",
            "midi": 45,
            "time": 147.19999999999982,
            "velocity": 0.6299212598425197,
            "duration": 3.038333333333327
          },
          {
            "name": "F#4",
            "midi": 66,
            "time": 148.7999999999998,
            "velocity": 0.6299212598425197,
            "duration": 1.518333333333345
          },
          {
            "name": "G1",
            "midi": 31,
            "time": 150.39999999999984,
            "velocity": 0.6299212598425197,
            "duration": 3.038333333333327
          },
          {
            "name": "G2",
            "midi": 43,
            "time": 150.39999999999984,
            "velocity": 0.6299212598425197,
            "duration": 3.038333333333327
          },
          {
            "name": "B1",
            "midi": 35,
            "time": 153.59999999999982,
            "velocity": 0.6299212598425197,
            "duration": 3.038333333333327
          },
          {
            "name": "B2",
            "midi": 47,
            "time": 153.59999999999982,
            "velocity": 0.6299212598425197,
            "duration": 3.038333333333327
          },
          {
            "name": "F#4",
            "midi": 66,
            "time": 155.19999999999982,
            "velocity": 0.6299212598425197,
            "duration": 1.518333333333345
          },
          {
            "name": "D2",
            "midi": 38,
            "time": 156.79999999999984,
            "velocity": 0.6299212598425197,
            "duration": 3.038333333333327
          },
          {
            "name": "D3",
            "midi": 50,
            "time": 156.79999999999984,
            "velocity": 0.6299212598425197,
            "duration": 3.038333333333327
          },
          {
            "name": "F#4",
            "midi": 66,
            "time": 158.39999999999984,
            "velocity": 0.6299212598425197,
            "duration": 1.518333333333345
          },
          {
            "name": "A1",
            "midi": 33,
            "time": 159.99999999999986,
            "velocity": 0.6299212598425197,
            "duration": 3.038333333333327
          },
          {
            "name": "A2",
            "midi": 45,
            "time": 159.99999999999986,
            "velocity": 0.6299212598425197,
            "duration": 3.038333333333327
          },
          {
            "name": "F#4",
            "midi": 66,
            "time": 161.59999999999985,
            "velocity": 0.6299212598425197,
            "duration": 1.518333333333345
          },
          {
            "name": "G1",
            "midi": 31,
            "time": 163.19999999999987,
            "velocity": 0.6299212598425197,
            "duration": 3.038333333333327
          },
          {
            "name": "G2",
            "midi": 43,
            "time": 163.19999999999987,
            "velocity": 0.6299212598425197,
            "duration": 3.038333333333327
          },
          {
            "name": "B1",
            "midi": 35,
            "time": 166.39999999999986,
            "velocity": 0.6299212598425197,
            "duration": 3.038333333333327
          },
          {
            "name": "B2",
            "midi": 47,
            "time": 166.39999999999986,
            "velocity": 0.6299212598425197,
            "duration": 3.038333333333327
          },
          {
            "name": "F#4",
            "midi": 66,
            "time": 167.99999999999986,
            "velocity": 0.6299212598425197,
            "duration": 1.518333333333345
          },
          {
            "name": "D2",
            "midi": 38,
            "time": 169.59999999999988,
            "velocity": 0.6299212598425197,
            "duration": 3.038333333333327
          },
          {
            "name": "D3",
            "midi": 50,
            "time": 169.59999999999988,
            "velocity": 0.6299212598425197,
            "duration": 3.038333333333327
          },
          {
            "name": "F#4",
            "midi": 66,
            "time": 171.19999999999987,
            "velocity": 0.6299212598425197,
            "duration": 1.518333333333345
          },
          {
            "name": "A1",
            "midi": 33,
            "time": 172.7999999999999,
            "velocity": 0.6299212598425197,
            "duration": 3.038333333333327
          },
          {
            "name": "A2",
            "midi": 45,
            "time": 172.7999999999999,
            "velocity": 0.6299212598425197,
            "duration": 3.038333333333327
          },
          {
            "name": "F#4",
            "midi": 66,
            "time": 174.3999999999999,
            "velocity": 0.6299212598425197,
            "duration": 1.518333333333345
          },
          {
            "name": "G1",
            "midi": 31,
            "time": 175.99999999999991,
            "velocity": 0.6299212598425197,
            "duration": 3.038333333333327
          },
          {
            "name": "G2",
            "midi": 43,
            "time": 175.99999999999991,
            "velocity": 0.6299212598425197,
            "duration": 3.038333333333327
          },
          {
            "name": "B1",
            "midi": 35,
            "time": 179.1999999999999,
            "velocity": 0.6299212598425197,
            "duration": 3.038333333333327
          },
          {
            "name": "B2",
            "midi": 47,
            "time": 179.1999999999999,
            "velocity": 0.6299212598425197,
            "duration": 3.038333333333327
          },
          {
            "name": "F#4",
            "midi": 66,
            "time": 180.7999999999999,
            "velocity": 0.6299212598425197,
            "duration": 1.518333333333345
          },
          {
            "name": "D2",
            "midi": 38,
            "time": 182.39999999999992,
            "velocity": 0.6299212598425197,
            "duration": 3.038333333333327
          },
          {
            "name": "D3",
            "midi": 50,
            "time": 182.39999999999992,
            "velocity": 0.6299212598425197,
            "duration": 3.038333333333327
          },
          {
            "name": "F#4",
            "midi": 66,
            "time": 183.99999999999991,
            "velocity": 0.6299212598425197,
            "duration": 1.518333333333345
          },
          {
            "name": "A1",
            "midi": 33,
            "time": 185.59999999999994,
            "velocity": 0.6299212598425197,
            "duration": 3.038333333333327
          },
          {
            "name": "A2",
            "midi": 45,
            "time": 185.59999999999994,
            "velocity": 0.6299212598425197,
            "duration": 3.038333333333327
          },
          {
            "name": "F#4",
            "midi": 66,
            "time": 187.19999999999993,
            "velocity": 0.6299212598425197,
            "duration": 1.518333333333345
          },
          {
            "name": "G1",
            "midi": 31,
            "time": 188.79999999999995,
            "velocity": 0.6299212598425197,
            "duration": 3.038333333333327
          },
          {
            "name": "G2",
            "midi": 43,
            "time": 188.79999999999995,
            "velocity": 0.6299212598425197,
            "duration": 3.038333333333327
          },
          {
            "name": "B0",
            "midi": 23,
            "time": 191.99999999999994,
            "velocity": 0.6299212598425197,
            "duration": 6.078333333333319
          },
          {
            "name": "B1",
            "midi": 35,
            "time": 191.99999999999994,
            "velocity": 0.6299212598425197,
            "duration": 6.078333333333319
          }
        ],
        "controlChanges": {
          "64": [
            {
              "number": 64,
              "time": 0.0016666666666666668,
              "value": 0
            },
            {
              "number": 64,
              "time": 0.0033333333333333335,
              "value": 1
            },
            {
              "number": 64,
              "time": 12.801666666666671,
              "value": 0
            },
            {
              "number": 64,
              "time": 12.801666666666671,
              "value": 0
            },
            {
              "number": 64,
              "time": 12.803333333333338,
              "value": 1
            },
            {
              "number": 64,
              "time": 25.601666666666667,
              "value": 0
            },
            {
              "number": 64,
              "time": 25.601666666666667,
              "value": 0
            },
            {
              "number": 64,
              "time": 25.60333333333333,
              "value": 1
            },
            {
              "number": 64,
              "time": 38.40166666666666,
              "value": 0
            },
            {
              "number": 64,
              "time": 38.40166666666666,
              "value": 0
            },
            {
              "number": 64,
              "time": 38.40333333333332,
              "value": 1
            },
            {
              "number": 64,
              "time": 51.20166666666664,
              "value": 0
            },
            {
              "number": 64,
              "time": 51.20166666666664,
              "value": 0
            },
            {
              "number": 64,
              "time": 51.203333333333305,
              "value": 1
            },
            {
              "number": 64,
              "time": 64.00166666666662,
              "value": 0
            },
            {
              "number": 64,
              "time": 64.00166666666662,
              "value": 0
            },
            {
              "number": 64,
              "time": 64.00333333333329,
              "value": 1
            },
            {
              "number": 64,
              "time": 76.80166666666658,
              "value": 0
            },
            {
              "number": 64,
              "time": 76.80166666666658,
              "value": 0
            },
            {
              "number": 64,
              "time": 76.80333333333324,
              "value": 1
            },
            {
              "number": 64,
              "time": 89.60166666666653,
              "value": 0
            },
            {
              "number": 64,
              "time": 89.60166666666653,
              "value": 0
            },
            {
              "number": 64,
              "time": 89.6033333333332,
              "value": 1
            },
            {
              "number": 64,
              "time": 102.40166666666649,
              "value": 0
            },
            {
              "number": 64,
              "time": 102.40166666666649,
              "value": 0
            },
            {
              "number": 64,
              "time": 102.40333333333315,
              "value": 1
            },
            {
              "number": 64,
              "time": 115.20166666666644,
              "value": 0
            },
            {
              "number": 64,
              "time": 115.20166666666644,
              "value": 0
            },
            {
              "number": 64,
              "time": 115.2033333333331,
              "value": 1
            },
            {
              "number": 64,
              "time": 128.0016666666664,
              "value": 0
            },
            {
              "number": 64,
              "time": 128.0016666666664,
              "value": 0
            },
            {
              "number": 64,
              "time": 128.00333333333307,
              "value": 1
            },
            {
              "number": 64,
              "time": 140.80166666666645,
              "value": 0
            },
            {
              "number": 64,
              "time": 140.80166666666645,
              "value": 0
            },
            {
              "number": 64,
              "time": 140.80333333333311,
              "value": 1
            },
            {
              "number": 64,
              "time": 153.6016666666665,
              "value": 0
            },
            {
              "number": 64,
              "time": 153.6016666666665,
              "value": 0
            },
            {
              "number": 64,
              "time": 153.60333333333315,
              "value": 1
            },
            {
              "number": 64,
              "time": 166.40166666666653,
              "value": 0
            },
            {
              "number": 64,
              "time": 166.40166666666653,
              "value": 0
            },
            {
              "number": 64,
              "time": 166.4033333333332,
              "value": 1
            },
            {
              "number": 64,
              "time": 179.20166666666657,
              "value": 0
            },
            {
              "number": 64,
              "time": 179.20166666666657,
              "value": 0
            },
            {
              "number": 64,
              "time": 179.20333333333323,
              "value": 1
            },
            {
              "number": 64,
              "time": 192.0016666666666,
              "value": 0
            },
            {
              "number": 64,
              "time": 192.0016666666666,
              "value": 0
            },
            {
              "number": 64,
              "time": 192.00333333333327,
              "value": 1
            },
            {
              "number": 64,
              "time": 198.40166666666659,
              "value": 0
            }
          ]
        },
        "id": 1,
        "channelNumber": 0,
        "isPercussion": false
      }
    ]
  }